<?xml version="1.0" encoding="us-ascii" standalone="no"?><svg xmlns="http://www.w3.org/2000/svg" xmlns:xlink="http://www.w3.org/1999/xlink" contentStyleType="text/css" height="454px" preserveAspectRatio="none" style="width:466px;height:454px;background:#FFFFFF;" version="1.1" viewBox="0 0 466 454" width="466px" zoomAndPan="magnify"><defs/><g><text fill="#000000" font-family="sans-serif" font-size="14" font-weight="bold" lengthAdjust="spacing" textLength="405" x="29.5" y="28.5352">As a registered user I want to comment on a discussion</text><rect fill="#FFFFFF" height="235.4844" style="stroke:#181818;stroke-width:1.0;" width="10" x="59" y="128.9766"/><rect fill="#FFFFFF" height="29.3105" style="stroke:#181818;stroke-width:1.0;" width="10" x="422" y="150.2871"/><rect fill="#FFFFFF" height="117.2422" style="stroke:#181818;stroke-width:1.0;" width="10" x="422" y="238.2188"/><line style="stroke:#181818;stroke-width:0.5;stroke-dasharray:5.0,5.0;" x1="64" x2="64" y1="118.9766" y2="373.4609"/><line style="stroke:#181818;stroke-width:0.5;stroke-dasharray:5.0,5.0;" x1="427" x2="427" y1="118.9766" y2="373.4609"/><text fill="#000000" font-family="sans-serif" font-size="14" lengthAdjust="spacing" textLength="108" x="9" y="116.0234">Registered User</text><ellipse cx="64" cy="50.9883" fill="#E3E3E3" rx="8" ry="8" style="stroke:#181818;stroke-width:0.5;"/><path d="M64,58.9883 L64,85.9883 M51,66.9883 L77,66.9883 M64,85.9883 L51,100.9883 M64,85.9883 L77,100.9883 " fill="none" style="stroke:#181818;stroke-width:0.5;"/><text fill="#000000" font-family="sans-serif" font-size="14" lengthAdjust="spacing" textLength="108" x="9" y="385.9961">Registered User</text><ellipse cx="64" cy="397.4492" fill="#E3E3E3" rx="8" ry="8" style="stroke:#181818;stroke-width:0.5;"/><path d="M64,405.4492 L64,432.4492 M51,413.4492 L77,413.4492 M64,432.4492 L51,447.4492 M64,432.4492 L77,447.4492 " fill="none" style="stroke:#181818;stroke-width:0.5;"/><rect fill="#E3E3E3" height="30.4883" rx="2.5" ry="2.5" style="stroke:#181818;stroke-width:0.5;" width="66" x="394" y="87.4883"/><text fill="#000000" font-family="sans-serif" font-size="14" lengthAdjust="spacing" textLength="52" x="401" y="108.0234">:System</text><rect fill="#E3E3E3" height="30.4883" rx="2.5" ry="2.5" style="stroke:#181818;stroke-width:0.5;" width="66" x="394" y="372.4609"/><text fill="#000000" font-family="sans-serif" font-size="14" lengthAdjust="spacing" textLength="52" x="401" y="392.9961">:System</text><rect fill="#FFFFFF" height="235.4844" style="stroke:#181818;stroke-width:1.0;" width="10" x="59" y="128.9766"/><rect fill="#FFFFFF" height="29.3105" style="stroke:#181818;stroke-width:1.0;" width="10" x="422" y="150.2871"/><rect fill="#FFFFFF" height="117.2422" style="stroke:#181818;stroke-width:1.0;" width="10" x="422" y="238.2188"/><polygon fill="#181818" points="410,146.2871,420,150.2871,410,154.2871,414,150.2871" style="stroke:#181818;stroke-width:1.0;"/><line style="stroke:#181818;stroke-width:1.0;" x1="69" x2="416" y1="150.2871" y2="150.2871"/><text fill="#000000" font-family="sans-serif" font-size="13" font-weight="bold" lengthAdjust="spacing" textLength="9" x="76" y="145.5449">1</text><text fill="#000000" font-family="sans-serif" font-size="13" lengthAdjust="spacing" textLength="135" x="89" y="145.5449">Click on a discussion</text><polygon fill="#181818" points="80,175.5977,70,179.5977,80,183.5977,76,179.5977" style="stroke:#181818;stroke-width:1.0;"/><line style="stroke:#181818;stroke-width:1.0;stroke-dasharray:2.0,2.0;" x1="74" x2="426" y1="179.5977" y2="179.5977"/><text fill="#000000" font-family="sans-serif" font-size="13" font-weight="bold" lengthAdjust="spacing" textLength="9" x="86" y="174.8555">2</text><text fill="#000000" font-family="sans-serif" font-size="13" lengthAdjust="spacing" textLength="316" x="99" y="174.8555">Show page with discussion and an empty text box</text><polygon fill="#181818" points="415,204.9082,425,208.9082,415,212.9082,419,208.9082" style="stroke:#181818;stroke-width:1.0;"/><line style="stroke:#181818;stroke-width:1.0;" x1="69" x2="421" y1="208.9082" y2="208.9082"/><text fill="#000000" font-family="sans-serif" font-size="13" font-weight="bold" lengthAdjust="spacing" textLength="9" x="76" y="204.166">3</text><text fill="#000000" font-family="sans-serif" font-size="13" lengthAdjust="spacing" textLength="127" x="89" y="204.166">Type in the text box</text><polygon fill="#181818" points="410,234.2188,420,238.2188,410,242.2188,414,238.2188" style="stroke:#181818;stroke-width:1.0;"/><line style="stroke:#181818;stroke-width:1.0;" x1="69" x2="416" y1="238.2188" y2="238.2188"/><text fill="#000000" font-family="sans-serif" font-size="13" font-weight="bold" lengthAdjust="spacing" textLength="9" x="76" y="233.4766">4</text><text fill="#000000" font-family="sans-serif" font-size="13" lengthAdjust="spacing" textLength="192" x="89" y="233.4766">Click on button Post comment</text><polygon fill="#181818" points="80,263.5293,70,267.5293,80,271.5293,76,267.5293" style="stroke:#181818;stroke-width:1.0;"/><line style="stroke:#181818;stroke-width:1.0;stroke-dasharray:2.0,2.0;" x1="74" x2="421" y1="267.5293" y2="267.5293"/><text fill="#000000" font-family="sans-serif" font-size="13" font-weight="bold" lengthAdjust="spacing" textLength="9" x="86" y="262.7871">5</text><text fill="#000000" font-family="sans-serif" font-size="13" lengthAdjust="spacing" textLength="202" x="99" y="262.7871">Stores comment in the database</text><polygon fill="#181818" points="80,292.8398,70,296.8398,80,300.8398,76,296.8398" style="stroke:#181818;stroke-width:1.0;"/><line style="stroke:#181818;stroke-width:1.0;stroke-dasharray:2.0,2.0;" x1="74" x2="421" y1="296.8398" y2="296.8398"/><text fill="#000000" font-family="sans-serif" font-size="13" font-weight="bold" lengthAdjust="spacing" textLength="9" x="86" y="292.0977">6</text><text fill="#000000" font-family="sans-serif" font-size="13" lengthAdjust="spacing" textLength="244" x="99" y="292.0977">Update list of comments (if applicable)</text><polygon fill="#181818" points="80,322.1504,70,326.1504,80,330.1504,76,326.1504" style="stroke:#181818;stroke-width:1.0;"/><line style="stroke:#181818;stroke-width:1.0;stroke-dasharray:2.0,2.0;" x1="74" x2="421" y1="326.1504" y2="326.1504"/><text fill="#000000" font-family="sans-serif" font-size="13" font-weight="bold" lengthAdjust="spacing" textLength="9" x="86" y="321.4082">7</text><text fill="#000000" font-family="sans-serif" font-size="13" lengthAdjust="spacing" textLength="250" x="99" y="321.4082">Returns success message (if applicable)</text><polygon fill="#181818" points="80,351.4609,70,355.4609,80,359.4609,76,355.4609" style="stroke:#181818;stroke-width:1.0;"/><line style="stroke:#181818;stroke-width:1.0;stroke-dasharray:2.0,2.0;" x1="74" x2="426" y1="355.4609" y2="355.4609"/><text fill="#000000" font-family="sans-serif" font-size="13" font-weight="bold" lengthAdjust="spacing" textLength="9" x="86" y="350.7188">8</text><text fill="#000000" font-family="sans-serif" font-size="13" lengthAdjust="spacing" textLength="280" x="99" y="350.7188">Displays the comment below the Discussion</text><!--SRC=[bP5DJiCm48NtESLJLx3e1Rf0Gh1XXrfwW8apJQp6F_9CQ7Dx9g4je880Iub6zflFp_DaxsEcGW4XnUIwaW93oy2LN4uokJsrlD6nPnHsIh7jFmkaeoOTV6onerwugjIhIUy5PFhMYtBX1eDmmHCE51MQu588R6MA9ckyk474frXLD6YAGwYvMEqq5Iom_i1i3RC0oLnKva2zytc2BbQRqKHXFdqlPu9_9ULtUGLRKuNbtKc25Hvwx_PNHYRffVkCmscTUfU6cN4hRBfqi5crZ8FNxXC851lxm27h2EMZeax7cTJmjnTS6NmPCyD7QCSN07vvIpsepH7FIVGywtyzoLvaisUv17Mwlo6bcYpc7_kskPdulIM6j3lt2sxy3fIp6QIwvzkV0MlMeKI13Cwn28Bzfi7-6V3e9VSqocpuxB_ctXAQTXw_XdoL0get]--></g></svg>