<?xml version="1.0" encoding="us-ascii" standalone="no"?><svg xmlns="http://www.w3.org/2000/svg" xmlns:xlink="http://www.w3.org/1999/xlink" contentStyleType="text/css" height="408px" preserveAspectRatio="none" style="width:393px;height:408px;background:#FFFFFF;" version="1.1" viewBox="0 0 393 408" width="393px" zoomAndPan="magnify"><defs/><g><text fill="#000000" font-family="sans-serif" font-size="14" font-weight="bold" lengthAdjust="spacing" textLength="365" x="10" y="29.5332">SSD US002: TO LOGIN IN SYSTEM - Alternative Three</text><rect fill="#FFFFFF" height="183.1094" style="stroke:#181818;stroke-width:1.0;" width="10" x="53.75" y="132.2188"/><rect fill="#FFFFFF" height="30.3516" style="stroke:#181818;stroke-width:1.0;" width="10" x="317.75" y="154.5703"/><rect fill="#FFFFFF" height="30.3516" style="stroke:#181818;stroke-width:1.0;" width="10" x="317.75" y="215.2734"/><rect fill="#FFFFFF" height="30.3516" style="stroke:#181818;stroke-width:1.0;" width="10" x="317.75" y="275.9766"/><line style="stroke:#181818;stroke-width:0.5;stroke-dasharray:5.0,5.0;" x1="58.25" x2="58.25" y1="122.2188" y2="324.3281"/><line style="stroke:#181818;stroke-width:0.5;stroke-dasharray:5.0,5.0;" x1="322.75" x2="322.75" y1="122.2188" y2="324.3281"/><text fill="#000000" font-family="sans-serif" font-size="14" lengthAdjust="spacing" textLength="29" x="41.25" y="119.1426">User</text><ellipse cx="58.75" cy="60.1094" fill="#E3E3E3" rx="16" ry="16" style="stroke:#181818;stroke-width:0.5;"/><path d="M58.75,80.1094 C62.75,80.1094 65.75,80.1094 69.75,76.1094 C77.75,76.1094 85.75,84.1094 85.75,92.1094 L85.75,96.1094 C85.75,100.1094 81.75,104.1094 77.75,104.1094 L39.75,104.1094 C35.75,104.1094 31.75,100.1094 31.75,96.1094 L31.75,92.1094 C31.75,84.1094 39.75,76.1094 47.75,76.1094 C51.75,80.1094 54.75,80.1094 58.75,80.1094 " fill="#E3E3E3" style="stroke:#181818;stroke-width:0.5;"/><text fill="#000000" font-family="sans-serif" font-size="14" lengthAdjust="spacing" textLength="29" x="41.25" y="337.8613">User</text><ellipse cx="58.75" cy="357.4375" fill="#E3E3E3" rx="16" ry="16" style="stroke:#181818;stroke-width:0.5;"/><path d="M58.75,377.4375 C62.75,377.4375 65.75,377.4375 69.75,373.4375 C77.75,373.4375 85.75,381.4375 85.75,389.4375 L85.75,393.4375 C85.75,397.4375 81.75,401.4375 77.75,401.4375 L39.75,401.4375 C35.75,401.4375 31.75,397.4375 31.75,393.4375 L31.75,389.4375 C31.75,381.4375 39.75,373.4375 47.75,373.4375 C51.75,377.4375 54.75,377.4375 58.75,377.4375 " fill="#E3E3E3" style="stroke:#181818;stroke-width:0.5;"/><rect fill="#E3E3E3" height="31.6094" rx="2.5" ry="2.5" style="stroke:#181818;stroke-width:0.5;" width="64" x="290.75" y="89.6094"/><text fill="#000000" font-family="sans-serif" font-size="14" lengthAdjust="spacing" textLength="50" x="297.75" y="111.1426">:System</text><rect fill="#E3E3E3" height="31.6094" rx="2.5" ry="2.5" style="stroke:#181818;stroke-width:0.5;" width="64" x="290.75" y="323.3281"/><text fill="#000000" font-family="sans-serif" font-size="14" lengthAdjust="spacing" textLength="50" x="297.75" y="344.8613">:System</text><rect fill="#FFFFFF" height="183.1094" style="stroke:#181818;stroke-width:1.0;" width="10" x="53.75" y="132.2188"/><rect fill="#FFFFFF" height="30.3516" style="stroke:#181818;stroke-width:1.0;" width="10" x="317.75" y="154.5703"/><rect fill="#FFFFFF" height="30.3516" style="stroke:#181818;stroke-width:1.0;" width="10" x="317.75" y="215.2734"/><rect fill="#FFFFFF" height="30.3516" style="stroke:#181818;stroke-width:1.0;" width="10" x="317.75" y="275.9766"/><polygon fill="#181818" points="305.75,150.5703,315.75,154.5703,305.75,158.5703,309.75,154.5703" style="stroke:#181818;stroke-width:1.0;"/><line style="stroke:#181818;stroke-width:1.0;" x1="63.75" x2="311.75" y1="154.5703" y2="154.5703"/><text fill="#000000" font-family="sans-serif" font-size="13" font-weight="bold" lengthAdjust="spacing" textLength="7" x="70.75" y="149.7139">1</text><text fill="#000000" font-family="sans-serif" font-size="13" lengthAdjust="spacing" textLength="141" x="81.75" y="149.7139">wants to login in system</text><polygon fill="#181818" points="74.75,180.9219,64.75,184.9219,74.75,188.9219,70.75,184.9219" style="stroke:#181818;stroke-width:1.0;"/><line style="stroke:#181818;stroke-width:1.0;stroke-dasharray:2.0,2.0;" x1="68.75" x2="321.75" y1="184.9219" y2="184.9219"/><text fill="#000000" font-family="sans-serif" font-size="13" font-weight="bold" lengthAdjust="spacing" textLength="7" x="80.75" y="180.0654">2</text><text fill="#000000" font-family="sans-serif" font-size="13" lengthAdjust="spacing" textLength="219" x="91.75" y="180.0654">requests data (username + password)</text><polygon fill="#181818" points="305.75,211.2734,315.75,215.2734,305.75,219.2734,309.75,215.2734" style="stroke:#181818;stroke-width:1.0;"/><line style="stroke:#181818;stroke-width:1.0;" x1="63.75" x2="311.75" y1="215.2734" y2="215.2734"/><text fill="#000000" font-family="sans-serif" font-size="13" font-weight="bold" lengthAdjust="spacing" textLength="7" x="70.75" y="210.417">3</text><text fill="#000000" font-family="sans-serif" font-size="13" lengthAdjust="spacing" textLength="213" x="81.75" y="210.417">types incorrect password and submit</text><polygon fill="#181818" points="74.75,241.625,64.75,245.625,74.75,249.625,70.75,245.625" style="stroke:#181818;stroke-width:1.0;"/><line style="stroke:#181818;stroke-width:1.0;stroke-dasharray:2.0,2.0;" x1="68.75" x2="321.75" y1="245.625" y2="245.625"/><text fill="#000000" font-family="sans-serif" font-size="13" font-weight="bold" lengthAdjust="spacing" textLength="7" x="80.75" y="240.7686">4</text><text fill="#000000" font-family="sans-serif" font-size="13" lengthAdjust="spacing" textLength="175" x="91.75" y="240.7686">displays message of insucess</text><polygon fill="#181818" points="305.75,271.9766,315.75,275.9766,305.75,279.9766,309.75,275.9766" style="stroke:#181818;stroke-width:1.0;"/><line style="stroke:#181818;stroke-width:1.0;" x1="63.75" x2="311.75" y1="275.9766" y2="275.9766"/><text fill="#000000" font-family="sans-serif" font-size="13" font-weight="bold" lengthAdjust="spacing" textLength="7" x="70.75" y="271.1201">5</text><text fill="#000000" font-family="sans-serif" font-size="13" lengthAdjust="spacing" textLength="203" x="81.75" y="271.1201">types correct password and submit</text><polygon fill="#181818" points="74.75,302.3281,64.75,306.3281,74.75,310.3281,70.75,306.3281" style="stroke:#181818;stroke-width:1.0;"/><line style="stroke:#181818;stroke-width:1.0;stroke-dasharray:2.0,2.0;" x1="68.75" x2="321.75" y1="306.3281" y2="306.3281"/><text fill="#000000" font-family="sans-serif" font-size="13" font-weight="bold" lengthAdjust="spacing" textLength="7" x="80.75" y="301.4717">6</text><text fill="#000000" font-family="sans-serif" font-size="13" lengthAdjust="spacing" textLength="165" x="91.75" y="301.4717">displays message of sucess</text><!--SRC=[jP71QiCm38RlUGhHqyOeb1rp60msHc5R3suFEwgEcfh6TcR93NdxAKbN2Xk33MPqa97-pxybFhZGOa8FFePezobw0acP2ZvNMhG7hCb8tn0aieAXRYuRU8zLx5oeOOSDNrRGIaoJ43jYXHT58KxqRim3RCnYSLl2UWNFgwVbAsYODxD-V84vt3T2AQ2u8y5wdqYLc2M6xBUKD1_8CDimfHaWmv0K-gWuwreC0hFIz2pan-gKZYftHA6flG0zGmRpkrCBbD2fca4YDB5s0JHuKW_TPy0d4Kxd99yhQIIMEgdtJAoe2WNXAlFm7PtkZGwKkOkfkXxL5NqB_U9B-fPOxTYOXYMSAO2X0ivRx-IN5Yl7ROCzWoTctJ34dV8vMxt-mTh_6llHrWS0]--></g></svg>