<?xml version="1.0" encoding="UTF-8" standalone="no"?><svg xmlns="http://www.w3.org/2000/svg" xmlns:xlink="http://www.w3.org/1999/xlink" contentStyleType="text/css" height="527px" preserveAspectRatio="none" style="width:449px;height:527px;background:#FFFFFF;" version="1.1" viewBox="0 0 449 527" width="449px" zoomAndPan="magnify"><defs/><g><!--cluster DeploymentMachine--><g id="cluster_DeploymentMachine"><polygon fill="none" points="16,16,26,6,432,6,432,500,422,510,16,510,16,16" style="stroke:#181818;stroke-width:1.0;"/><line style="stroke:#181818;stroke-width:1.0;" x1="422" x2="432" y1="16" y2="6"/><line style="stroke:#181818;stroke-width:1.0;" x1="16" x2="422" y1="16" y2="16"/><line style="stroke:#181818;stroke-width:1.0;" x1="422" x2="422" y1="16" y2="510"/><text fill="#000000" font-family="sans-serif" font-size="20" font-style="italic" lengthAdjust="spacing" textLength="80" x="180" y="39.7617">«device»</text><text fill="#000000" font-family="sans-serif" font-size="20" font-weight="bold" lengthAdjust="spacing" textLength="191" x="124.5" y="64.918">DeploymentMachine</text></g><!--entity MySQL--><g id="elem_MySQL"><polygon fill="#F1F1F1" points="254,424,264,414,398,414,398,484.3125,388,494.3125,254,494.3125,254,424" style="stroke:#181818;stroke-width:0.5;"/><line style="stroke:#181818;stroke-width:0.5;" x1="388" x2="398" y1="424" y2="414"/><line style="stroke:#181818;stroke-width:0.5;" x1="254" x2="388" y1="424" y2="424"/><line style="stroke:#181818;stroke-width:0.5;" x1="388" x2="388" y1="424" y2="494.3125"/><text fill="#000000" font-family="sans-serif" font-size="20" font-style="italic" lengthAdjust="spacing" textLength="104" x="269" y="454.7617">«container»</text><text fill="#000000" font-family="sans-serif" font-size="20" lengthAdjust="spacing" textLength="67" x="287.5" y="479.918">MySQL</text></g><!--entity Adminer--><g id="elem_Adminer"><polygon fill="#F1F1F1" points="269,257,279,247,413,247,413,317.3125,403,327.3125,269,327.3125,269,257" style="stroke:#181818;stroke-width:0.5;"/><line style="stroke:#181818;stroke-width:0.5;" x1="403" x2="413" y1="257" y2="247"/><line style="stroke:#181818;stroke-width:0.5;" x1="269" x2="403" y1="257" y2="257"/><line style="stroke:#181818;stroke-width:0.5;" x1="403" x2="403" y1="257" y2="327.3125"/><text fill="#000000" font-family="sans-serif" font-size="20" font-style="italic" lengthAdjust="spacing" textLength="104" x="284" y="287.7617">«container»</text><text fill="#000000" font-family="sans-serif" font-size="20" lengthAdjust="spacing" textLength="72" x="300" y="312.918">Adminer</text></g><!--entity Redis--><g id="elem_Redis"><polygon fill="#F1F1F1" points="65,424,75,414,209,414,209,484.3125,199,494.3125,65,494.3125,65,424" style="stroke:#181818;stroke-width:0.5;"/><line style="stroke:#181818;stroke-width:0.5;" x1="199" x2="209" y1="424" y2="414"/><line style="stroke:#181818;stroke-width:0.5;" x1="65" x2="199" y1="424" y2="424"/><line style="stroke:#181818;stroke-width:0.5;" x1="199" x2="199" y1="424" y2="494.3125"/><text fill="#000000" font-family="sans-serif" font-size="20" font-style="italic" lengthAdjust="spacing" textLength="104" x="80" y="454.7617">«container»</text><text fill="#000000" font-family="sans-serif" font-size="20" lengthAdjust="spacing" textLength="50" x="107" y="479.918">Redis</text></g><!--entity Backend--><g id="elem_Backend"><polygon fill="#F1F1F1" points="46,257,56,247,228,247,228,317.3125,218,327.3125,46,327.3125,46,257" style="stroke:#181818;stroke-width:0.5;"/><line style="stroke:#181818;stroke-width:0.5;" x1="218" x2="228" y1="257" y2="247"/><line style="stroke:#181818;stroke-width:0.5;" x1="46" x2="218" y1="257" y2="257"/><line style="stroke:#181818;stroke-width:0.5;" x1="218" x2="218" y1="257" y2="327.3125"/><text fill="#000000" font-family="sans-serif" font-size="20" font-style="italic" lengthAdjust="spacing" textLength="142" x="61" y="287.7617">«node process»</text><text fill="#000000" font-family="sans-serif" font-size="20" lengthAdjust="spacing" textLength="76" x="94" y="312.918">Backend</text></g><!--entity Frontend--><g id="elem_Frontend"><polygon fill="#F1F1F1" points="32,90,42,80,214,80,214,150.3125,204,160.3125,32,160.3125,32,90" style="stroke:#181818;stroke-width:0.5;"/><line style="stroke:#181818;stroke-width:0.5;" x1="204" x2="214" y1="90" y2="80"/><line style="stroke:#181818;stroke-width:0.5;" x1="32" x2="204" y1="90" y2="90"/><line style="stroke:#181818;stroke-width:0.5;" x1="204" x2="204" y1="90" y2="160.3125"/><text fill="#000000" font-family="sans-serif" font-size="20" font-style="italic" lengthAdjust="spacing" textLength="142" x="47" y="120.7617">«node process»</text><text fill="#000000" font-family="sans-serif" font-size="20" lengthAdjust="spacing" textLength="78" x="79" y="145.918">Frontend</text></g><!--entity Browser--><g id="elem_Browser"><polygon fill="#F1F1F1" points="284,90,294,80,416,80,416,150.3125,406,160.3125,284,160.3125,284,90" style="stroke:#181818;stroke-width:0.5;"/><line style="stroke:#181818;stroke-width:0.5;" x1="406" x2="416" y1="90" y2="80"/><line style="stroke:#181818;stroke-width:0.5;" x1="284" x2="406" y1="90" y2="90"/><line style="stroke:#181818;stroke-width:0.5;" x1="406" x2="406" y1="90" y2="160.3125"/><text fill="#000000" font-family="sans-serif" font-size="20" font-style="italic" lengthAdjust="spacing" textLength="92" x="299" y="120.7617">«process»</text><text fill="#000000" font-family="sans-serif" font-size="20" lengthAdjust="spacing" textLength="74" x="308" y="145.918">Browser</text></g><!--link Frontend to Backend--><g id="link_Frontend_Backend"><path d="M126.32,160.1 C128.54,186.31 131.46,220.68 133.68,246.89 " fill="none" id="Frontend-Backend" style="stroke:#181818;stroke-width:1.0;"/><text fill="#000000" font-family="sans-serif" font-size="20" lengthAdjust="spacing" textLength="33" x="132" y="211.7617">http</text><text fill="#000000" font-family="sans-serif" font-size="20" lengthAdjust="spacing" textLength="44" x="85.8029" y="234.5838">5001</text></g><!--link Backend to MySQL--><g id="link_Backend_MySQL"><path d="M181.79,327.1 C211.81,353.31 251.18,387.68 281.2,413.89 " fill="none" id="Backend-MySQL" style="stroke:#181818;stroke-width:1.0;"/><text fill="#000000" font-family="sans-serif" font-size="20" lengthAdjust="spacing" textLength="48" x="243" y="378.7617">tcp/ip</text><text fill="#000000" font-family="sans-serif" font-size="20" lengthAdjust="spacing" textLength="44" x="226.9713" y="401.5838">3306</text></g><!--link Backend to Redis--><g id="link_Backend_Redis"><path d="M137,327.1 C137,353.31 137,387.68 137,413.89 " fill="none" id="Backend-Redis" style="stroke:#181818;stroke-width:1.0;"/><text fill="#000000" font-family="sans-serif" font-size="20" lengthAdjust="spacing" textLength="48" x="138" y="378.7617">tcp/ip</text><text fill="#000000" font-family="sans-serif" font-size="20" lengthAdjust="spacing" textLength="44" x="89.6313" y="401.5838">6379</text></g><!--link Adminer to MySQL--><g id="link_Adminer_MySQL"><path d="M337.45,327.1 C335.06,353.31 331.94,387.68 329.56,413.89 " fill="none" id="Adminer-MySQL" style="stroke:#181818;stroke-width:1.0;"/><text fill="#000000" font-family="sans-serif" font-size="20" lengthAdjust="spacing" textLength="48" x="335" y="378.7617">tcp/ip</text><text fill="#000000" font-family="sans-serif" font-size="20" lengthAdjust="spacing" textLength="44" x="282.7364" y="401.5838">3306</text></g><!--link Frontend to Browser--><g id="link_Frontend_Browser"><path d="M214.02,120 C237.33,120 261.96,120 283.76,120 " fill="none" id="Frontend-Browser" style="stroke:#181818;stroke-width:1.0;"/><text fill="#000000" font-family="sans-serif" font-size="20" lengthAdjust="spacing" textLength="33" x="232.5" y="111.7617">http</text><text fill="#000000" font-family="sans-serif" font-size="20" lengthAdjust="spacing" textLength="44" x="221.9667" y="141.6351">3000</text></g><!--link Browser to Adminer--><g id="link_Browser_Adminer"><path d="M347.87,160.1 C346.44,186.31 344.56,220.68 343.13,246.89 " fill="none" id="Browser-Adminer" style="stroke:#181818;stroke-width:1.0;"/><text fill="#000000" font-family="sans-serif" font-size="20" lengthAdjust="spacing" textLength="33" x="347" y="211.7617">http</text><text fill="#000000" font-family="sans-serif" font-size="20" lengthAdjust="spacing" textLength="44" x="296.0874" y="234.5838">8080</text></g><!--SRC=[VP31Ri8m44Jl_egLxr5TebAAKAHMY1CSMhx0iXTXaTYMROeeuj-xIJ1LggQ-sVCyExFnOAoNGJQrKmVKe74dZtLQEPksvWjX8XYpJYCiqTVktA1D6wdsnY8i5Xe_ZSAgWWi3EXstEM_VrwGfSf24XQfYF-ghRjgtKVq3jOcZwfkaZ5QJtbrzS0fZ722hG3_7cRjS5C2VX7ZasNGE-vHyJ-KvBLIMOihxLdD8oZ-OFw1f-Vp2-_13AFVzrwdl5jmfTflv5JaBHOsxrDe88VYzo21s9ecQYHbHj_4twCg-0G00]--></g></svg>