<?xml version="1.0" encoding="us-ascii" standalone="no"?><svg xmlns="http://www.w3.org/2000/svg" xmlns:xlink="http://www.w3.org/1999/xlink" contentStyleType="text/css" height="639px" preserveAspectRatio="none" style="width:437px;height:639px;background:#FFFFFF;" version="1.1" viewBox="0 0 437 639" width="437px" zoomAndPan="magnify"><defs/><g><text fill="#000000" font-family="sans-serif" font-size="14" font-weight="bold" lengthAdjust="spacing" textLength="409" x="10" y="23.5352">Domain Model for Hackernews-inspired Forum Web App</text><!--class User--><g id="elem_User"><rect codeLine="4" fill="#F1F1F1" height="97.4648" id="User" rx="2.5" ry="2.5" style="stroke:#181818;stroke-width:0.5;" width="80" x="296.485" y="44.4883"/><ellipse cx="319.135" cy="60.4883" fill="#ADD1B2" rx="11" ry="11" style="stroke:#181818;stroke-width:1.0;"/><path d="M322.7493,66.9883 L315.0295,66.9883 L315.0295,54.5952 L322.7493,54.5952 L322.7493,56.7534 L317.4783,56.7534 L317.4783,59.4263 L322.2512,59.4263 L322.2512,61.5845 L317.4783,61.5845 L317.4783,64.8301 L322.7493,64.8301 Z " fill="#000000"/><text fill="#000000" font-family="sans-serif" font-size="14" lengthAdjust="spacing" textLength="31" x="334.835" y="65.7793">User</text><line style="stroke:#181818;stroke-width:0.5;" x1="297.485" x2="375.485" y1="76.4883" y2="76.4883"/><text fill="#000000" font-family="sans-serif" font-size="14" lengthAdjust="spacing" textLength="68" x="302.485" y="94.0234">username</text><text fill="#000000" font-family="sans-serif" font-size="14" lengthAdjust="spacing" textLength="37" x="302.485" y="110.5117">email</text><text fill="#000000" font-family="sans-serif" font-size="14" lengthAdjust="spacing" textLength="66" x="302.485" y="127">password</text><line style="stroke:#181818;stroke-width:0.5;" x1="297.485" x2="375.485" y1="133.9531" y2="133.9531"/></g><!--class Post--><g id="elem_Post"><rect codeLine="10" fill="#F1F1F1" height="97.4648" id="Post" rx="2.5" ry="2.5" style="stroke:#181818;stroke-width:0.5;" width="78" x="58.485" y="218.9483"/><ellipse cx="81.135" cy="234.9483" fill="#ADD1B2" rx="11" ry="11" style="stroke:#181818;stroke-width:1.0;"/><path d="M84.7493,241.4483 L77.0295,241.4483 L77.0295,229.0552 L84.7493,229.0552 L84.7493,231.2134 L79.4783,231.2134 L79.4783,233.8863 L84.2512,233.8863 L84.2512,236.0445 L79.4783,236.0445 L79.4783,239.2901 L84.7493,239.2901 Z " fill="#000000"/><text fill="#000000" font-family="sans-serif" font-size="14" lengthAdjust="spacing" textLength="29" x="96.835" y="240.2393">Post</text><line style="stroke:#181818;stroke-width:0.5;" x1="59.485" x2="135.485" y1="250.9483" y2="250.9483"/><text fill="#000000" font-family="sans-serif" font-size="14" lengthAdjust="spacing" textLength="26" x="64.485" y="268.4834">title</text><text fill="#000000" font-family="sans-serif" font-size="14" lengthAdjust="spacing" textLength="52" x="64.485" y="284.9717">content</text><text fill="#000000" font-family="sans-serif" font-size="14" lengthAdjust="spacing" textLength="66" x="64.485" y="301.46">createdAt</text><line style="stroke:#181818;stroke-width:0.5;" x1="59.485" x2="135.485" y1="308.4131" y2="308.4131"/></g><!--class Comment--><g id="elem_Comment"><rect codeLine="16" fill="#F1F1F1" height="80.9766" id="Comment" rx="2.5" ry="2.5" style="stroke:#181818;stroke-width:0.5;" width="99" x="189.985" y="393.4183"/><ellipse cx="204.985" cy="409.4183" fill="#ADD1B2" rx="11" ry="11" style="stroke:#181818;stroke-width:1.0;"/><path d="M208.5993,415.9183 L200.8795,415.9183 L200.8795,403.5252 L208.5993,403.5252 L208.5993,405.6834 L203.3283,405.6834 L203.3283,408.3563 L208.1012,408.3563 L208.1012,410.5145 L203.3283,410.5145 L203.3283,413.7601 L208.5993,413.7601 Z " fill="#000000"/><text fill="#000000" font-family="sans-serif" font-size="14" lengthAdjust="spacing" textLength="67" x="218.985" y="414.7093">Comment</text><line style="stroke:#181818;stroke-width:0.5;" x1="190.985" x2="287.985" y1="425.4183" y2="425.4183"/><text fill="#000000" font-family="sans-serif" font-size="14" lengthAdjust="spacing" textLength="52" x="195.985" y="442.9534">content</text><text fill="#000000" font-family="sans-serif" font-size="14" lengthAdjust="spacing" textLength="66" x="195.985" y="459.4417">createdAt</text><line style="stroke:#181818;stroke-width:0.5;" x1="190.985" x2="287.985" y1="466.3948" y2="466.3948"/></g><!--class Vote--><g id="elem_Vote"><rect codeLine="21" fill="#F1F1F1" height="80.9766" id="Vote" rx="2.5" ry="2.5" style="stroke:#181818;stroke-width:0.5;" width="78" x="124.485" y="551.3883"/><ellipse cx="146.235" cy="567.3883" fill="#ADD1B2" rx="11" ry="11" style="stroke:#181818;stroke-width:1.0;"/><path d="M149.8493,573.8883 L142.1295,573.8883 L142.1295,561.4952 L149.8493,561.4952 L149.8493,563.6534 L144.5783,563.6534 L144.5783,566.3263 L149.3512,566.3263 L149.3512,568.4845 L144.5783,568.4845 L144.5783,571.7301 L149.8493,571.7301 Z " fill="#000000"/><text fill="#000000" font-family="sans-serif" font-size="14" lengthAdjust="spacing" textLength="31" x="161.735" y="572.6793">Vote</text><line style="stroke:#181818;stroke-width:0.5;" x1="125.485" x2="201.485" y1="583.3883" y2="583.3883"/><text fill="#000000" font-family="sans-serif" font-size="14" lengthAdjust="spacing" textLength="29" x="130.485" y="600.9234">type</text><text fill="#000000" font-family="sans-serif" font-size="14" lengthAdjust="spacing" textLength="66" x="130.485" y="617.4117">createdAt</text><line style="stroke:#181818;stroke-width:0.5;" x1="125.485" x2="201.485" y1="624.3648" y2="624.3648"/></g><!--class Visitor--><g id="elem_Visitor"><rect codeLine="26" fill="#F1F1F1" height="48" id="Visitor" rx="2.5" ry="2.5" style="stroke:#181818;stroke-width:0.5;" width="76" x="59.485" y="69.2183"/><ellipse cx="74.485" cy="85.2183" fill="#ADD1B2" rx="11" ry="11" style="stroke:#181818;stroke-width:1.0;"/><path d="M78.0993,91.7183 L70.3795,91.7183 L70.3795,79.3252 L78.0993,79.3252 L78.0993,81.4834 L72.8283,81.4834 L72.8283,84.1563 L77.6012,84.1563 L77.6012,86.3145 L72.8283,86.3145 L72.8283,89.5601 L78.0993,89.5601 Z " fill="#000000"/><text fill="#000000" font-family="sans-serif" font-size="14" lengthAdjust="spacing" textLength="44" x="88.485" y="90.5093">Visitor</text><line style="stroke:#181818;stroke-width:0.5;" x1="60.485" x2="134.485" y1="101.2183" y2="101.2183"/><line style="stroke:#181818;stroke-width:0.5;" x1="60.485" x2="134.485" y1="109.2183" y2="109.2183"/></g><!--link Visitor to Comment--><g id="link_Visitor_Comment"><path codeLine="29" d="M118.235,117.6983 C130.425,132.4483 145.375,152.3483 155.485,171.9483 C193.665,245.9683 218.905,340.7383 231.045,393.2883 " fill="none" id="Visitor-Comment" style="stroke:#181818;stroke-width:1.0;"/><polygon fill="#000000" points="216.3792,272.4609,215.6725,262.9766,210.2327,265.2033,216.3792,272.4609" style="stroke:#000000;stroke-width:1.0;"/><text fill="#000000" font-family="sans-serif" font-size="13" lengthAdjust="spacing" textLength="35" x="223.485" y="272.7466">views</text><text fill="#000000" font-family="sans-serif" font-size="13" lengthAdjust="spacing" textLength="8" x="114.1084" y="137.6979">1</text><text fill="#000000" font-family="sans-serif" font-size="13" lengthAdjust="spacing" textLength="22" x="205.7037" y="382.613">0..*</text></g><!--link Visitor to Post--><g id="link_Visitor_Post"><path codeLine="30" d="M97.485,117.4783 C97.485,143.3183 97.485,185.7283 97.485,218.7483 " fill="none" id="Visitor-Post" style="stroke:#181818;stroke-width:1.0;"/><polygon fill="#000000" points="102.485,185.6036,105.4239,176.5585,99.5461,176.5585,102.485,185.6036" style="stroke:#000000;stroke-width:1.0;"/><text fill="#000000" font-family="sans-serif" font-size="13" lengthAdjust="spacing" textLength="35" x="111.485" y="185.5166">views</text><text fill="#000000" font-family="sans-serif" font-size="13" lengthAdjust="spacing" textLength="8" x="88.51" y="137.826">1</text><text fill="#000000" font-family="sans-serif" font-size="13" lengthAdjust="spacing" textLength="22" x="73.8694" y="208.0509">0..*</text></g><!--link Visitor to Vote--><g id="link_Visitor_Vote"><path codeLine="31" d="M83.805,117.6583 C70.335,142.0583 50.515,181.8183 41.485,218.9483 C26.305,281.4183 20.515,300.6683 34.485,363.4183 C51.335,439.0983 67.705,455.4483 108.485,521.3883 C114.715,531.4683 122.175,541.7683 129.555,551.2483 " fill="none" id="Visitor-Vote" style="stroke:#181818;stroke-width:1.0;"/><polygon fill="#000000" points="40.0097,360.046,41.9832,350.7424,36.1378,351.3592,40.0097,360.046" style="stroke:#000000;stroke-width:1.0;"/><text fill="#000000" font-family="sans-serif" font-size="13" lengthAdjust="spacing" textLength="35" x="48.485" y="359.9866">views</text><text fill="#000000" font-family="sans-serif" font-size="13" lengthAdjust="spacing" textLength="8" x="71.7165" y="137.6487">1</text><text fill="#000000" font-family="sans-serif" font-size="13" lengthAdjust="spacing" textLength="22" x="94.3568" y="554.1308">0..*</text></g><!--link User to Post--><g id="link_User_Post"><path codeLine="32" d="M296.275,123.1883 C261.205,148.4583 208.965,186.1083 163.485,218.9483 C154.885,225.1583 145.665,231.8283 136.915,238.1483 " fill="none" id="User-Post" style="stroke:#181818;stroke-width:1.0;"/><polygon fill="#000000" points="225.43,183.5288,234.485,180.6205,231.0462,175.8535,225.43,183.5288" style="stroke:#000000;stroke-width:1.0;"/><text fill="#000000" font-family="sans-serif" font-size="13" lengthAdjust="spacing" textLength="45" x="238.485" y="185.5166">creates</text><text fill="#000000" font-family="sans-serif" font-size="13" lengthAdjust="spacing" textLength="8" x="280.4001" y="124.7863">1</text><text fill="#000000" font-family="sans-serif" font-size="13" lengthAdjust="spacing" textLength="22" x="144.6371" y="230.0698">0..*</text></g><!--link User to Comment--><g id="link_User_Comment"><path codeLine="33" d="M322.695,142.3883 C303.415,209.6783 268.785,330.5983 250.885,393.0883 " fill="none" id="User-Comment" style="stroke:#181818;stroke-width:1.0;"/><polygon fill="#000000" points="302.1082,272.6403,307.4242,264.7541,301.7736,263.1356,302.1082,272.6403" style="stroke:#000000;stroke-width:1.0;"/><text fill="#000000" font-family="sans-serif" font-size="13" lengthAdjust="spacing" textLength="38" x="312.485" y="272.7466">writes</text><text fill="#000000" font-family="sans-serif" font-size="13" lengthAdjust="spacing" textLength="8" x="312.3045" y="162.5922">1</text><text fill="#000000" font-family="sans-serif" font-size="13" lengthAdjust="spacing" textLength="22" x="228.9513" y="382.6796">0..*</text></g><!--link User to Vote--><g id="link_User_Vote"><path codeLine="34" d="M347.455,142.2083 C352.175,165.2783 357.145,193.4083 359.485,218.9483 C370.045,334.4183 355.685,369.3983 306.485,474.3883 C296.065,496.6183 294.885,504.0783 277.485,521.3883 C255.875,542.8883 226.385,560.6283 202.815,572.8083 " fill="none" id="User-Vote" style="stroke:#181818;stroke-width:1.0;"/><polygon fill="#000000" points="358.8929,359.8133,364.559,352.1748,358.9871,350.3032,358.8929,359.8133" style="stroke:#000000;stroke-width:1.0;"/><text fill="#000000" font-family="sans-serif" font-size="13" lengthAdjust="spacing" textLength="51" x="369.485" y="359.9866">submits</text><text fill="#000000" font-family="sans-serif" font-size="13" lengthAdjust="spacing" textLength="8" x="340.3916" y="162.388">1</text><text fill="#000000" font-family="sans-serif" font-size="13" lengthAdjust="spacing" textLength="22" x="210.5218" y="566.3321">0..*</text></g><!--link Post to Comment--><g id="link_Post_Comment"><path codeLine="35" d="M115.265,316.7083 C122.525,332.5883 131.965,349.6883 143.485,363.4183 C156.445,378.8583 173.555,392.6683 189.735,403.8183 " fill="none" id="Post-Comment" style="stroke:#181818;stroke-width:1.0;"/><polygon fill="#000000" points="151.734,358.8741,148.0904,350.0892,143.6226,353.9086,151.734,358.8741" style="stroke:#000000;stroke-width:1.0;"/><text fill="#000000" font-family="sans-serif" font-size="13" lengthAdjust="spacing" textLength="22" x="157.485" y="359.9866">has</text><text fill="#000000" font-family="sans-serif" font-size="13" lengthAdjust="spacing" textLength="8" x="109.1167" y="336.8934">1</text><text fill="#000000" font-family="sans-serif" font-size="13" lengthAdjust="spacing" textLength="22" x="159.9514" y="396.5905">0..*</text></g><!--link Post to Vote--><g id="link_Post_Vote"><path codeLine="36" d="M94.095,316.8783 C92.415,359.0883 93.075,421.7383 106.485,474.3883 C113.325,501.2283 126.745,529.1683 138.855,550.9583 " fill="none" id="Post-Vote" style="stroke:#181818;stroke-width:1.0;"/><polygon fill="#000000" points="112.4241,438.9746,113.6119,429.5385,107.8386,430.6424,112.4241,438.9746" style="stroke:#000000;stroke-width:1.0;"/><text fill="#000000" font-family="sans-serif" font-size="13" lengthAdjust="spacing" textLength="51" x="120.485" y="438.9766">receives</text><text fill="#000000" font-family="sans-serif" font-size="13" lengthAdjust="spacing" textLength="8" x="85.102" y="337.0862">1</text><text fill="#000000" font-family="sans-serif" font-size="13" lengthAdjust="spacing" textLength="22" x="110.9538" y="540.5331">0..*</text></g><!--link Comment to Vote--><g id="link_Comment_Vote"><path codeLine="37" d="M220.115,474.6683 C208.725,498.0383 194.365,527.5083 182.955,550.9183 " fill="none" id="Comment-Vote" style="stroke:#181818;stroke-width:1.0;"/><polygon fill="#000000" points="206.2946,517.5382,212.899,510.6948,207.6152,508.1198,206.2946,517.5382" style="stroke:#000000;stroke-width:1.0;"/><text fill="#000000" font-family="sans-serif" font-size="13" lengthAdjust="spacing" textLength="51" x="217.485" y="517.9566">receives</text><text fill="#000000" font-family="sans-serif" font-size="13" lengthAdjust="spacing" textLength="8" x="208.3904" y="494.9531">1</text><text fill="#000000" font-family="sans-serif" font-size="13" lengthAdjust="spacing" textLength="22" x="162.3049" y="540.7883">0..*</text></g><!--SRC=[XP0_QmCn3CNt-nJYniA5TkrG22cbIw1BqjcvKudesJAoBaSe_UxHEVywnCsaP_kdzoGhQO_mojvHW2LtsCCN2xoxzXibu9WQ2YcIO0TlB8E7Jzp0FCQgmg2aUrWb5FYf00OJmNaqYURMMuqkfP6bgtul-0SdpRXEmLPR3cflan9qYjrS_-0BzjvaxlYVNBFYqNWViSHG8kLfNBix7-gd6fe6wiVPxA6-13x3ZcnxU2bmUOzxK9xf2kMlkcbp7BR0N4SQXOhKAIiD6qywCTcwvBHr1UHa8zWYxNBMkUaUTm00]--></g></svg>