<?xml version="1.0" encoding="us-ascii" standalone="no"?><svg xmlns="http://www.w3.org/2000/svg" xmlns:xlink="http://www.w3.org/1999/xlink" contentStyleType="text/css" height="846px" preserveAspectRatio="none" style="width:863px;height:846px;background:#FFFFFF;" version="1.1" viewBox="0 0 863 846" width="863px" zoomAndPan="magnify"><defs/><g><text fill="#000000" font-family="sans-serif" font-size="14" font-weight="bold" lengthAdjust="spacing" textLength="409" x="220" y="23.5352">Domain Model for Hackernews-inspired Forum Web App</text><!--class Visitor--><g id="elem_Visitor"><rect codeLine="4" fill="#F1F1F1" height="64.4883" id="Visitor" rx="2.5" ry="2.5" style="stroke:#181818;stroke-width:0.5;" width="108" x="40" y="52.7283"/><ellipse cx="69.4" cy="68.7283" fill="#ADD1B2" rx="11" ry="11" style="stroke:#181818;stroke-width:1.0;"/><path d="M71.8731,74.8713 Q71.2921,75.1702 70.6529,75.3196 Q70.0138,75.469 69.3082,75.469 Q66.8014,75.469 65.4815,73.8171 Q64.1617,72.1653 64.1617,69.0442 Q64.1617,65.9148 65.4815,64.2629 Q66.8014,62.6111 69.3082,62.6111 Q70.0138,62.6111 70.6612,62.7605 Q71.3087,62.9099 71.8731,63.2088 L71.8731,65.9314 Q71.2423,65.3504 70.6488,65.0806 Q70.0553,64.8108 69.4244,64.8108 Q68.0797,64.8108 67.3949,65.8775 Q66.7101,66.9441 66.7101,69.0442 Q66.7101,71.136 67.3949,72.2026 Q68.0797,73.2693 69.4244,73.2693 Q70.0553,73.2693 70.6488,72.9995 Q71.2423,72.7297 71.8731,72.1487 Z " fill="#000000"/><text fill="#000000" font-family="sans-serif" font-size="14" lengthAdjust="spacing" textLength="44" x="86.6" y="74.0193">Visitor</text><line style="stroke:#181818;stroke-width:0.5;" x1="41" x2="147" y1="84.7283" y2="84.7283"/><rect fill="none" height="6" style="stroke:#C82930;stroke-width:1.0;" width="6" x="48" y="95.4724"/><text fill="#000000" font-family="sans-serif" font-size="14" lengthAdjust="spacing" textLength="82" x="60" y="102.2634">visitorID: int</text><line style="stroke:#181818;stroke-width:0.5;" x1="41" x2="147" y1="109.2166" y2="109.2166"/></g><!--class User--><g id="elem_User"><rect codeLine="8" fill="#F1F1F1" height="113.9531" id="User" rx="2.5" ry="2.5" style="stroke:#181818;stroke-width:0.5;" width="143" x="228.5" y="551.3883"/><ellipse cx="280.25" cy="567.3883" fill="#ADD1B2" rx="11" ry="11" style="stroke:#181818;stroke-width:1.0;"/><path d="M282.7231,573.5313 Q282.1421,573.8302 281.5029,573.9796 Q280.8638,574.129 280.1582,574.129 Q277.6514,574.129 276.3315,572.4771 Q275.0117,570.8253 275.0117,567.7042 Q275.0117,564.5748 276.3315,562.9229 Q277.6514,561.2711 280.1582,561.2711 Q280.8638,561.2711 281.5112,561.4205 Q282.1587,561.5699 282.7231,561.8688 L282.7231,564.5914 Q282.0923,564.0104 281.4988,563.7406 Q280.9053,563.4708 280.2744,563.4708 Q278.9297,563.4708 278.2449,564.5375 Q277.5601,565.6041 277.5601,567.7042 Q277.5601,569.796 278.2449,570.8626 Q278.9297,571.9293 280.2744,571.9293 Q280.9053,571.9293 281.4988,571.6595 Q282.0923,571.3897 282.7231,570.8087 Z " fill="#000000"/><text fill="#000000" font-family="sans-serif" font-size="14" lengthAdjust="spacing" textLength="31" x="300.75" y="572.6793">User</text><line style="stroke:#181818;stroke-width:0.5;" x1="229.5" x2="370.5" y1="583.3883" y2="583.3883"/><ellipse cx="239.5" cy="597.1324" fill="none" rx="3" ry="3" style="stroke:#038048;stroke-width:1.0;"/><text fill="#000000" font-family="sans-serif" font-size="14" lengthAdjust="spacing" textLength="92" x="248.5" y="600.9234">userId: String</text><ellipse cx="239.5" cy="613.6207" fill="none" rx="3" ry="3" style="stroke:#038048;stroke-width:1.0;"/><text fill="#000000" font-family="sans-serif" font-size="14" lengthAdjust="spacing" textLength="117" x="248.5" y="617.4117">username: String</text><ellipse cx="239.5" cy="630.109" fill="none" rx="3" ry="3" style="stroke:#038048;stroke-width:1.0;"/><text fill="#000000" font-family="sans-serif" font-size="14" lengthAdjust="spacing" textLength="86" x="248.5" y="633.9">email: String</text><ellipse cx="239.5" cy="646.5973" fill="none" rx="3" ry="3" style="stroke:#038048;stroke-width:1.0;"/><text fill="#000000" font-family="sans-serif" font-size="14" lengthAdjust="spacing" textLength="115" x="248.5" y="650.3883">password: String</text><line style="stroke:#181818;stroke-width:0.5;" x1="229.5" x2="370.5" y1="657.3414" y2="657.3414"/></g><!--class Post--><g id="elem_Post"><rect codeLine="15" fill="#F1F1F1" height="97.4648" id="Post" rx="2.5" ry="2.5" style="stroke:#181818;stroke-width:0.5;" width="171" x="336.5" y="202.4583"/><ellipse cx="403.25" cy="218.4583" fill="#A9DCDF" rx="11" ry="11" style="stroke:#181818;stroke-width:1.0;"/><path d="M403.1133,213.8064 L401.9595,218.8782 L404.2754,218.8782 Z M401.6191,211.5652 L404.6157,211.5652 L407.9609,223.9583 L405.5122,223.9583 L404.7485,220.8953 L401.4697,220.8953 L400.7227,223.9583 L398.2739,223.9583 Z " fill="#000000"/><text fill="#000000" font-family="sans-serif" font-size="14" font-style="italic" lengthAdjust="spacing" textLength="29" x="423.75" y="223.7493">Post</text><line style="stroke:#181818;stroke-width:0.5;" x1="337.5" x2="506.5" y1="234.4583" y2="234.4583"/><rect fill="none" height="6" style="stroke:#C82930;stroke-width:1.0;" width="6" x="344.5" y="245.2024"/><text fill="#000000" font-family="sans-serif" font-size="14" lengthAdjust="spacing" textLength="70" x="356.5" y="251.9934">postID: int</text><rect fill="none" height="6" style="stroke:#C82930;stroke-width:1.0;" width="6" x="344.5" y="261.6907"/><text fill="#000000" font-family="sans-serif" font-size="14" lengthAdjust="spacing" textLength="75" x="356.5" y="268.4817">title: String</text><rect fill="none" height="6" style="stroke:#C82930;stroke-width:1.0;" width="6" x="344.5" y="278.179"/><text fill="#000000" font-family="sans-serif" font-size="14" lengthAdjust="spacing" textLength="145" x="356.5" y="284.97">timestamp: DateTime</text><line style="stroke:#181818;stroke-width:0.5;" x1="337.5" x2="506.5" y1="291.9231" y2="291.9231"/></g><!--class TextPost--><g id="elem_TextPost"><rect codeLine="21" fill="#F1F1F1" height="64.4883" id="TextPost" rx="2.5" ry="2.5" style="stroke:#181818;stroke-width:0.5;" width="127" x="599.5" y="393.4183"/><ellipse cx="630.25" cy="409.4183" fill="#ADD1B2" rx="11" ry="11" style="stroke:#181818;stroke-width:1.0;"/><path d="M632.7231,415.5613 Q632.1421,415.8602 631.5029,416.0096 Q630.8638,416.159 630.1582,416.159 Q627.6514,416.159 626.3315,414.5071 Q625.0117,412.8553 625.0117,409.7342 Q625.0117,406.6048 626.3315,404.9529 Q627.6514,403.3011 630.1582,403.3011 Q630.8638,403.3011 631.5112,403.4505 Q632.1587,403.5999 632.7231,403.8988 L632.7231,406.6214 Q632.0923,406.0404 631.4988,405.7706 Q630.9053,405.5008 630.2744,405.5008 Q628.9297,405.5008 628.2449,406.5675 Q627.5601,407.6341 627.5601,409.7342 Q627.5601,411.826 628.2449,412.8926 Q628.9297,413.9593 630.2744,413.9593 Q630.9053,413.9593 631.4988,413.6895 Q632.0923,413.4197 632.7231,412.8387 Z " fill="#000000"/><text fill="#000000" font-family="sans-serif" font-size="14" lengthAdjust="spacing" textLength="60" x="647.75" y="414.7093">TextPost</text><line style="stroke:#181818;stroke-width:0.5;" x1="600.5" x2="725.5" y1="425.4183" y2="425.4183"/><rect fill="none" height="6" style="stroke:#C82930;stroke-width:1.0;" width="6" x="607.5" y="436.1624"/><text fill="#000000" font-family="sans-serif" font-size="14" lengthAdjust="spacing" textLength="101" x="619.5" y="442.9534">content: String</text><line style="stroke:#181818;stroke-width:0.5;" x1="600.5" x2="725.5" y1="449.9066" y2="449.9066"/></g><!--class LinkPost--><g id="elem_LinkPost"><rect codeLine="25" fill="#F1F1F1" height="64.4883" id="LinkPost" rx="2.5" ry="2.5" style="stroke:#181818;stroke-width:0.5;" width="94" x="762" y="393.4183"/><ellipse cx="779.25" cy="409.4183" fill="#ADD1B2" rx="11" ry="11" style="stroke:#181818;stroke-width:1.0;"/><path d="M781.7231,415.5613 Q781.1421,415.8602 780.5029,416.0096 Q779.8638,416.159 779.1582,416.159 Q776.6514,416.159 775.3315,414.5071 Q774.0117,412.8553 774.0117,409.7342 Q774.0117,406.6048 775.3315,404.9529 Q776.6514,403.3011 779.1582,403.3011 Q779.8638,403.3011 780.5112,403.4505 Q781.1587,403.5999 781.7231,403.8988 L781.7231,406.6214 Q781.0923,406.0404 780.4988,405.7706 Q779.9053,405.5008 779.2744,405.5008 Q777.9297,405.5008 777.2449,406.5675 Q776.5601,407.6341 776.5601,409.7342 Q776.5601,411.826 777.2449,412.8926 Q777.9297,413.9593 779.2744,413.9593 Q779.9053,413.9593 780.4988,413.6895 Q781.0923,413.4197 781.7231,412.8387 Z " fill="#000000"/><text fill="#000000" font-family="sans-serif" font-size="14" lengthAdjust="spacing" textLength="57" x="793.75" y="414.7093">LinkPost</text><line style="stroke:#181818;stroke-width:0.5;" x1="763" x2="855" y1="425.4183" y2="425.4183"/><rect fill="none" height="6" style="stroke:#C82930;stroke-width:1.0;" width="6" x="770" y="436.1624"/><text fill="#000000" font-family="sans-serif" font-size="14" lengthAdjust="spacing" textLength="68" x="782" y="442.9534">url: String</text><line style="stroke:#181818;stroke-width:0.5;" x1="763" x2="855" y1="449.9066" y2="449.9066"/></g><!--class Comment--><g id="elem_Comment"><rect codeLine="29" fill="#F1F1F1" height="97.4648" id="Comment" rx="2.5" ry="2.5" style="stroke:#181818;stroke-width:0.5;" width="152" x="224" y="376.9283"/><ellipse cx="262.85" cy="392.9283" fill="#ADD1B2" rx="11" ry="11" style="stroke:#181818;stroke-width:1.0;"/><path d="M265.3231,399.0713 Q264.7421,399.3702 264.1029,399.5196 Q263.4638,399.669 262.7582,399.669 Q260.2514,399.669 258.9315,398.0171 Q257.6117,396.3653 257.6117,393.2442 Q257.6117,390.1148 258.9315,388.4629 Q260.2514,386.8111 262.7582,386.8111 Q263.4638,386.8111 264.1112,386.9605 Q264.7587,387.1099 265.3231,387.4088 L265.3231,390.1314 Q264.6923,389.5504 264.0988,389.2806 Q263.5053,389.0108 262.8744,389.0108 Q261.5297,389.0108 260.8449,390.0775 Q260.1601,391.1441 260.1601,393.2442 Q260.1601,395.336 260.8449,396.4026 Q261.5297,397.4693 262.8744,397.4693 Q263.5053,397.4693 264.0988,397.1995 Q264.6923,396.9297 265.3231,396.3487 Z " fill="#000000"/><text fill="#000000" font-family="sans-serif" font-size="14" lengthAdjust="spacing" textLength="67" x="282.15" y="398.2193">Comment</text><line style="stroke:#181818;stroke-width:0.5;" x1="225" x2="375" y1="408.9283" y2="408.9283"/><ellipse cx="235" cy="422.6724" fill="none" rx="3" ry="3" style="stroke:#038048;stroke-width:1.0;"/><text fill="#000000" font-family="sans-serif" font-size="14" lengthAdjust="spacing" textLength="126" x="244" y="426.4634">commentId: String</text><ellipse cx="235" cy="439.1607" fill="none" rx="3" ry="3" style="stroke:#038048;stroke-width:1.0;"/><text fill="#000000" font-family="sans-serif" font-size="14" lengthAdjust="spacing" textLength="101" x="244" y="442.9517">content: String</text><ellipse cx="235" cy="455.649" fill="none" rx="3" ry="3" style="stroke:#038048;stroke-width:1.0;"/><text fill="#000000" font-family="sans-serif" font-size="14" lengthAdjust="spacing" textLength="105" x="244" y="459.44">createdAt: Date</text><line style="stroke:#181818;stroke-width:0.5;" x1="225" x2="375" y1="466.3931" y2="466.3931"/></g><!--class Vote--><g id="elem_Vote"><rect codeLine="35" fill="#F1F1F1" height="97.4648" id="Vote" rx="2.5" ry="2.5" style="stroke:#181818;stroke-width:0.5;" width="131" x="234.5" y="742.3483"/><ellipse cx="280.25" cy="758.3483" fill="#ADD1B2" rx="11" ry="11" style="stroke:#181818;stroke-width:1.0;"/><path d="M282.7231,764.4913 Q282.1421,764.7902 281.5029,764.9396 Q280.8638,765.089 280.1582,765.089 Q277.6514,765.089 276.3315,763.4371 Q275.0117,761.7853 275.0117,758.6642 Q275.0117,755.5348 276.3315,753.8829 Q277.6514,752.2311 280.1582,752.2311 Q280.8638,752.2311 281.5112,752.3805 Q282.1587,752.5299 282.7231,752.8288 L282.7231,755.5514 Q282.0923,754.9704 281.4988,754.7006 Q280.9053,754.4308 280.2744,754.4308 Q278.9297,754.4308 278.2449,755.4975 Q277.5601,756.5641 277.5601,758.6642 Q277.5601,760.756 278.2449,761.8226 Q278.9297,762.8893 280.2744,762.8893 Q280.9053,762.8893 281.4988,762.6195 Q282.0923,762.3497 282.7231,761.7687 Z " fill="#000000"/><text fill="#000000" font-family="sans-serif" font-size="14" lengthAdjust="spacing" textLength="31" x="300.75" y="763.6393">Vote</text><line style="stroke:#181818;stroke-width:0.5;" x1="235.5" x2="364.5" y1="774.3483" y2="774.3483"/><ellipse cx="245.5" cy="788.0924" fill="none" rx="3" ry="3" style="stroke:#038048;stroke-width:1.0;"/><text fill="#000000" font-family="sans-serif" font-size="14" lengthAdjust="spacing" textLength="91" x="254.5" y="791.8834">voteId: String</text><ellipse cx="245.5" cy="804.5807" fill="none" rx="3" ry="3" style="stroke:#038048;stroke-width:1.0;"/><text fill="#000000" font-family="sans-serif" font-size="14" lengthAdjust="spacing" textLength="101" x="254.5" y="808.3717">type: VoteType</text><ellipse cx="245.5" cy="821.069" fill="none" rx="3" ry="3" style="stroke:#038048;stroke-width:1.0;"/><text fill="#000000" font-family="sans-serif" font-size="14" lengthAdjust="spacing" textLength="105" x="254.5" y="824.86">createdAt: Date</text><line style="stroke:#181818;stroke-width:0.5;" x1="235.5" x2="364.5" y1="831.8131" y2="831.8131"/></g><!--class VoteType--><g id="elem_VoteType"><rect codeLine="41" fill="#F1F1F1" height="80.9766" id="VoteType" rx="2.5" ry="2.5" style="stroke:#181818;stroke-width:0.5;" width="96" x="183" y="44.4883"/><ellipse cx="198" cy="60.4883" fill="#EB937F" rx="11" ry="11" style="stroke:#181818;stroke-width:1.0;"/><path d="M201.6143,66.9883 L193.8945,66.9883 L193.8945,54.5952 L201.6143,54.5952 L201.6143,56.7534 L196.3433,56.7534 L196.3433,59.4263 L201.1162,59.4263 L201.1162,61.5845 L196.3433,61.5845 L196.3433,64.8301 L201.6143,64.8301 Z " fill="#000000"/><text fill="#000000" font-family="sans-serif" font-size="14" lengthAdjust="spacing" textLength="64" x="212" y="65.7793">VoteType</text><line style="stroke:#181818;stroke-width:0.5;" x1="184" x2="278" y1="76.4883" y2="76.4883"/><text fill="#000000" font-family="sans-serif" font-size="14" lengthAdjust="spacing" textLength="55" x="189" y="94.0234">UPVOTE</text><text fill="#000000" font-family="sans-serif" font-size="14" lengthAdjust="spacing" textLength="80" x="189" y="110.5117">DOWNVOTE</text><line style="stroke:#181818;stroke-width:0.5;" x1="184" x2="278" y1="117.4648" y2="117.4648"/></g><!--link User to Post--><g id="link_User_Post"><path codeLine="46" d="M352,550.9283 C359.54,541.4183 366.83,531.3883 373,521.3883 C415.24,452.9783 422.9936,363.3581 423.4336,306.4081 " fill="none" id="User-to-Post" style="stroke:#181818;stroke-width:1.0;"/><polygon fill="#181818" points="423.48,300.4083,419.4106,309.3771,423.4414,305.4081,427.4103,309.4389,423.48,300.4083" style="stroke:#181818;stroke-width:1.0;"/><text fill="#000000" font-family="sans-serif" font-size="13" lengthAdjust="spacing" textLength="45" x="419" y="430.7266">creates</text><text fill="#000000" font-family="sans-serif" font-size="13" lengthAdjust="spacing" textLength="8" x="349.85" y="540.6014">1</text><text fill="#000000" font-family="sans-serif" font-size="13" lengthAdjust="spacing" textLength="22" x="400.2008" y="320.6189">0..*</text></g><!--link Post to User--><g id="link_Post_User"><path codeLine="50" d="M336.28,264.4283 C269.69,278.9283 181.58,310.1883 138,376.9283 C114.32,413.1983 119.48,435.2283 138,474.3883 C156.82,514.1883 189.0391,542.763 223.0691,565.323 " fill="none" id="Post-to-User" style="stroke:#181818;stroke-width:1.0;"/><polygon fill="#181818" points="228.07,568.6383,222.7789,560.3314,223.9026,565.8755,218.3585,566.9992,228.07,568.6383" style="stroke:#181818;stroke-width:1.0;"/><text fill="#000000" font-family="sans-serif" font-size="13" lengthAdjust="spacing" textLength="67" x="139" y="430.7266">belongs to</text><text fill="#000000" font-family="sans-serif" font-size="13" lengthAdjust="spacing" textLength="8" x="320.5697" y="262.5031">1</text><text fill="#000000" font-family="sans-serif" font-size="13" lengthAdjust="spacing" textLength="8" x="212.5956" y="561.5731">1</text></g><!--link Visitor to Post--><g id="link_Visitor_Post"><path codeLine="47" d="M148.5,116.2183 C154.38,119.3783 160.3,122.5083 166,125.4583 C222.2,154.5483 286.2,185.7283 336.15,209.6383 " fill="none" id="Visitor-Post" style="stroke:#181818;stroke-width:1.0;"/><text fill="#000000" font-family="sans-serif" font-size="13" lengthAdjust="spacing" textLength="35" x="258" y="169.0266">views</text><text fill="#000000" font-family="sans-serif" font-size="13" lengthAdjust="spacing" textLength="8" x="155.9953" y="116.849">1</text><text fill="#000000" font-family="sans-serif" font-size="13" lengthAdjust="spacing" textLength="22" x="306.4323" y="203.3101">0..*</text></g><!--link Visitor to Comment--><g id="link_Visitor_Comment"><path codeLine="48" d="M113.19,117.5283 C149.4,177.0583 227.98,306.2483 270.78,376.6183 " fill="none" id="Visitor-Comment" style="stroke:#181818;stroke-width:1.0;"/><text fill="#000000" font-family="sans-serif" font-size="13" lengthAdjust="spacing" textLength="27" x="222" y="256.2566">lists</text><text fill="#000000" font-family="sans-serif" font-size="13" lengthAdjust="spacing" textLength="8" x="108.0856" y="137.7619">1</text><text fill="#000000" font-family="sans-serif" font-size="13" lengthAdjust="spacing" textLength="22" x="243.1241" y="366.2572">0..*</text></g><!--link Visitor to Vote--><g id="link_Visitor_Vote"><path codeLine="49" d="M64.94,117.5683 C39.31,148.8283 6,199.2483 6,250.1883 C6,250.1883 6,250.1883 6,609.3683 C6,715.7083 147.34,761.4583 234.02,779.5183 " fill="none" id="Visitor-Vote" style="stroke:#181818;stroke-width:1.0;"/><text fill="#000000" font-family="sans-serif" font-size="13" lengthAdjust="spacing" textLength="28" x="7" y="430.7266">sees</text><text fill="#000000" font-family="sans-serif" font-size="13" lengthAdjust="spacing" textLength="8" x="50.6379" y="137.8095">1</text><text fill="#000000" font-family="sans-serif" font-size="13" lengthAdjust="spacing" textLength="22" x="204.4423" y="775.2255">0..*</text></g><!--link Post to Comment--><g id="link_Post_Comment"><path codeLine="51" d="M391.49,300.3883 C381.68,315.4583 370.6,332.0283 360,346.9283 C353.08,356.6483 349.1031,362.1009 341.6831,371.8109 " fill="none" id="Post-to-Comment" style="stroke:#181818;stroke-width:1.0;"/><polygon fill="#181818" points="338.04,376.5783,346.6829,371.8559,341.0759,372.6054,340.3263,366.9985,338.04,376.5783" style="stroke:#181818;stroke-width:1.0;"/><text fill="#000000" font-family="sans-serif" font-size="13" lengthAdjust="spacing" textLength="22" x="372" y="343.4966">has</text><text fill="#000000" font-family="sans-serif" font-size="13" lengthAdjust="spacing" textLength="8" x="378.8527" y="320.5962">1</text><text fill="#000000" font-family="sans-serif" font-size="13" lengthAdjust="spacing" textLength="22" x="319.8425" y="366.2116">0..*</text></g><!--link Comment to Post--><g id="link_Comment_Post"><path codeLine="52" d="M278.98,376.5983 C275.25,360.8883 274.8,343.9083 283,329.9283 C295.17,309.1783 309.8635,296.4413 330.9035,284.8613 " fill="none" id="Comment-to-Post" style="stroke:#181818;stroke-width:1.0;"/><polygon fill="#181818" points="336.16,281.9683,326.3466,282.8036,331.7796,284.3792,330.204,289.8122,336.16,281.9683" style="stroke:#181818;stroke-width:1.0;"/><text fill="#000000" font-family="sans-serif" font-size="13" lengthAdjust="spacing" textLength="67" x="284" y="343.4966">belongs to</text><text fill="#000000" font-family="sans-serif" font-size="13" lengthAdjust="spacing" textLength="8" x="267.4616" y="366.2344">1</text><text fill="#000000" font-family="sans-serif" font-size="13" lengthAdjust="spacing" textLength="8" x="320.4394" y="281.5504">1</text></g><!--link Comment to User--><g id="link_Comment_User"><path codeLine="53" d="M300,474.6083 C300,498.1383 300,520.6283 300,545.1683 " fill="none" id="Comment-to-User" style="stroke:#181818;stroke-width:1.0;"/><polygon fill="#181818" points="300,551.1683,304,542.1683,300,546.1683,296,542.1683,300,551.1683" style="stroke:#181818;stroke-width:1.0;"/><text fill="#000000" font-family="sans-serif" font-size="13" lengthAdjust="spacing" textLength="63" x="301" y="517.9566">written by</text><text fill="#000000" font-family="sans-serif" font-size="13" lengthAdjust="spacing" textLength="8" x="291.4375" y="495.1364">1</text><text fill="#000000" font-family="sans-serif" font-size="13" lengthAdjust="spacing" textLength="8" x="291.4875" y="540.4673">1</text></g><!--link User to Vote--><g id="link_User_Vote"><path codeLine="54" d="M300,665.5583 C300,690.0083 300,712.3683 300,735.8483 " fill="none" id="User-to-Vote" style="stroke:#181818;stroke-width:1.0;"/><polygon fill="#181818" points="300,741.8483,304,732.8483,300,736.8483,296,732.8483,300,741.8483" style="stroke:#181818;stroke-width:1.0;"/><text fill="#000000" font-family="sans-serif" font-size="13" lengthAdjust="spacing" textLength="34" x="301" y="708.9166">votes</text><text fill="#000000" font-family="sans-serif" font-size="13" lengthAdjust="spacing" textLength="22" x="276.6594" y="686.0301">0..*</text><text fill="#000000" font-family="sans-serif" font-size="13" lengthAdjust="spacing" textLength="22" x="276.4531" y="731.4605">0..*</text></g><!--link Post to Vote--><g id="link_Post_Vote"><path codeLine="55" d="M446.78,300.2983 C457.09,322.9183 467.83,350.6383 473,376.9283 C481.35,419.4283 481.91,431.9983 473,474.3883 C451.17,578.2083 385.8186,678.3398 341.8386,737.2698 " fill="none" id="Post-to-Vote" style="stroke:#181818;stroke-width:1.0;"/><polygon fill="#181818" points="338.25,742.0783,346.8386,737.2579,341.2405,738.0712,340.4273,732.4731,338.25,742.0783" style="stroke:#181818;stroke-width:1.0;"/><text fill="#000000" font-family="sans-serif" font-size="13" lengthAdjust="spacing" textLength="51" x="465" y="517.9566">receives</text><text fill="#000000" font-family="sans-serif" font-size="13" lengthAdjust="spacing" textLength="8" x="441.5723" y="320.4941">1</text><text fill="#000000" font-family="sans-serif" font-size="13" lengthAdjust="spacing" textLength="22" x="320.082" y="731.7228">0..*</text></g><!--reverse link Post to TextPost--><g id="link_Post_TextPost"><path codeLine="56" d="M523.7711,298.8595 C545.5611,310.2195 552.38,315.2683 572,329.9283 C596.48,348.2183 620.26,373.3183 637.37,393.0883 " fill="none" id="Post-backto-TextPost" style="stroke:#181818;stroke-width:1.0;"/><polygon fill="none" points="507.81,290.5383,520.9974,304.1798,526.5449,293.5391,507.81,290.5383" style="stroke:#181818;stroke-width:1.0;"/></g><!--reverse link Post to LinkPost--><g id="link_Post_LinkPost"><path codeLine="57" d="M524.8673,284.1872 C591.3573,306.2072 667.64,335.0683 744,376.9283 C752.59,381.6383 761.35,387.3383 769.53,393.1383 " fill="none" id="Post-backto-LinkPost" style="stroke:#181818;stroke-width:1.0;"/><polygon fill="none" points="507.78,278.5283,522.981,289.883,526.7536,278.4914,507.78,278.5283" style="stroke:#181818;stroke-width:1.0;"/></g><!--SRC=[TL9DJyCm3BttLrWzWehWMY6aYO6O16mItNPEMpEYjKcLU1qJyDzncuPsPJl5jbxUU_uWIGN2L9T2AdZHEHRmhWqyYMoBHk7UHbBPIXhCuL6RNGbhJ65ILK6G5S9QM4ahYJzy1G0Hr2wRJMEGYe8VZrfQT120ont7ipo6Dp9IRVgQ4YKULv5D5SUbYjdsslJVMKAabep829pMGblgx5GSUYzDJasp0yAcKg8bKLOnJ0LXmcdlEi5F6h1bMX4g6aextBDKsm5kPuh_c7jTblpP3o5pwNWEOmbNDCZMyWavZptdIXDwmfhZCHiTAkwsGIKSdIL3nMlrg8vlkLZDauSsdCxNhst2q7QFuKq8KNG7uVNLrKNevXs38xQ1FmY76e5goHTr1k8d54CXBPr3jJt7O96bMj8_D_oszc98iT1gOu7q238M-X0syDcGftCxu3c5wjJsHX8l3T93DnwdCX3iF3ShiYSTTG236ShQOsw_kMj_WeEIlxRW5m00]--></g></svg>