<?xml version="1.0" encoding="us-ascii" standalone="no"?><svg xmlns="http://www.w3.org/2000/svg" xmlns:xlink="http://www.w3.org/1999/xlink" contentStyleType="text/css" height="1256px" preserveAspectRatio="none" style="width:576px;height:1256px;background:#FFFFFF;" version="1.1" viewBox="0 0 576 1256" width="576px" zoomAndPan="magnify"><defs/><g><!--cluster actors--><g id="cluster_actors"><rect fill="none" height="243" rx="2.5" ry="2.5" style="stroke:#181818;stroke-width:1.0;" width="146" x="7" y="664"/><text fill="#000000" font-family="sans-serif" font-size="14" font-weight="bold" lengthAdjust="spacing" textLength="99" x="30.5" y="680.5332">System Actors</text></g><!--cluster usecases--><g id="cluster_usecases"><rect fill="none" height="1243" rx="2.5" ry="2.5" style="stroke:#181818;stroke-width:1.0;" width="389" x="181" y="7"/><text fill="#000000" font-family="sans-serif" font-size="14" font-weight="bold" lengthAdjust="spacing" textLength="74" x="338.5" y="23.5332">Use Cases</text></g><!--entity RegisteredUser--><g id="elem_RegisteredUser"><ellipse cx="80" cy="708.5" fill="#F1F1F1" rx="8" ry="8" style="stroke:#181818;stroke-width:0.5;"/><path d="M80,716.5 L80,743.5 M67,724.5 L93,724.5 M80,743.5 L67,758.5 M80,743.5 L93,758.5 " fill="none" style="stroke:#181818;stroke-width:0.5;"/><text fill="#000000" font-family="sans-serif" font-size="14" lengthAdjust="spacing" textLength="102" x="29" y="774.5332">Registered User</text></g><!--entity UnregisteredUser--><g id="elem_UnregisteredUser"><ellipse cx="80" cy="821.5" fill="#F1F1F1" rx="8" ry="8" style="stroke:#181818;stroke-width:0.5;"/><path d="M80,829.5 L80,856.5 M67,837.5 L93,837.5 M80,856.5 L67,871.5 M80,856.5 L93,871.5 " fill="none" style="stroke:#181818;stroke-width:0.5;"/><text fill="#000000" font-family="sans-serif" font-size="14" lengthAdjust="spacing" textLength="114" x="23" y="887.5332">Unregistered User</text></g><g id="elem_UC1"><ellipse cx="375.2514" cy="1100.8503" fill="#F1F1F1" rx="94.7514" ry="21.3503" style="stroke:#181818;stroke-width:0.5;"/><text fill="#000000" font-family="sans-serif" font-size="14" lengthAdjust="spacing" textLength="149" x="300.7514" y="1104.5788">UC1 - User Registration</text></g><g id="elem_UC2"><ellipse cx="375.337" cy="64.9674" fill="#F1F1F1" rx="97.837" ry="21.9674" style="stroke:#181818;stroke-width:0.5;"/><text fill="#000000" font-family="sans-serif" font-size="14" lengthAdjust="spacing" textLength="156" x="297.337" y="68.6959">UC2 - To login in System</text></g><g id="elem_UC3"><ellipse cx="375.6077" cy="1196.1215" fill="#F1F1F1" rx="178.6077" ry="38.1215" style="stroke:#181818;stroke-width:0.5;"/><text fill="#000000" font-family="sans-serif" font-size="14" lengthAdjust="spacing" textLength="328" x="211.6077" y="1199.8501">UC3 - View the discussions list as Unregistered User</text></g><g id="elem_UC4"><ellipse cx="375.3449" cy="144.769" fill="#F1F1F1" rx="101.8449" ry="22.769" style="stroke:#181818;stroke-width:0.5;"/><text fill="#000000" font-family="sans-serif" font-size="14" lengthAdjust="spacing" textLength="165" x="292.8449" y="148.4975">UC4 - Create a discussion</text></g><g id="elem_UC5"><ellipse cx="375.337" cy="224.9674" fill="#F1F1F1" rx="97.837" ry="21.9674" style="stroke:#181818;stroke-width:0.5;"/><text fill="#000000" font-family="sans-serif" font-size="14" lengthAdjust="spacing" textLength="156" x="297.337" y="228.6959">UC5 - Create a comment</text></g><g id="elem_UC6"><ellipse cx="375.3577" cy="319.1715" fill="#F1F1F1" rx="171.3577" ry="36.6715" style="stroke:#181818;stroke-width:0.5;"/><text fill="#000000" font-family="sans-serif" font-size="14" lengthAdjust="spacing" textLength="313" x="218.8577" y="322.9001">UC6 - Reply directly to a comment in a Discussion</text></g><g id="elem_UC7"><ellipse cx="375.3193" cy="410.9639" fill="#F1F1F1" rx="87.8193" ry="19.9639" style="stroke:#181818;stroke-width:0.5;"/><text fill="#000000" font-family="sans-serif" font-size="14" lengthAdjust="spacing" textLength="133" x="308.8193" y="414.6924">UC7 - Post with a link</text></g><g id="elem_UC8"><ellipse cx="375.5948" cy="491.219" fill="#F1F1F1" rx="114.0948" ry="25.219" style="stroke:#181818;stroke-width:0.5;"/><text fill="#000000" font-family="sans-serif" font-size="14" lengthAdjust="spacing" textLength="192" x="279.5948" y="494.9475">UC8 - To vote on a Discussion</text></g><g id="elem_UC9"><ellipse cx="375.7046" cy="574.9409" fill="#F1F1F1" rx="107.7046" ry="23.9409" style="stroke:#181818;stroke-width:0.5;"/><text fill="#000000" font-family="sans-serif" font-size="14" lengthAdjust="spacing" textLength="178" x="286.7046" y="578.6694">UC9 - To format discussions</text></g><g id="elem_UC10"><ellipse cx="375.2783" cy="659.9557" fill="#F1F1F1" rx="117.7783" ry="25.9557" style="stroke:#181818;stroke-width:0.5;"/><text fill="#000000" font-family="sans-serif" font-size="14" lengthAdjust="spacing" textLength="200" x="275.2783" y="663.6842">UC10 - To vote on a Discussion</text></g><g id="elem_UC11"><ellipse cx="375.5069" cy="738.9014" fill="#F1F1F1" rx="77.5069" ry="17.9014" style="stroke:#181818;stroke-width:0.5;"/><text fill="#000000" font-family="sans-serif" font-size="14" lengthAdjust="spacing" textLength="108" x="319.3567" y="743.216">UC11 - To logout</text></g><g id="elem_UC12"><ellipse cx="375.2783" cy="817.9557" fill="#F1F1F1" rx="117.7783" ry="25.9557" style="stroke:#181818;stroke-width:0.5;"/><text fill="#000000" font-family="sans-serif" font-size="14" lengthAdjust="spacing" textLength="200" x="275.2783" y="821.6842">UC12 - Access a discussion link</text></g><g id="elem_UC13"><ellipse cx="375.6476" cy="909.8295" fill="#F1F1F1" rx="142.1476" ry="30.8295" style="stroke:#181818;stroke-width:0.5;"/><text fill="#000000" font-family="sans-serif" font-size="14" lengthAdjust="spacing" textLength="252" x="249.6476" y="913.558">UC13 - Discussion's list ordered by date</text></g><g id="elem_UC14"><ellipse cx="375.3675" cy="1010.0735" fill="#F1F1F1" rx="158.3675" ry="34.0735" style="stroke:#181818;stroke-width:0.5;"/><text fill="#000000" font-family="sans-serif" font-size="14" lengthAdjust="spacing" textLength="286" x="232.3675" y="1013.802">UC14 - Discussion's list ordered by popularity</text></g><!--link RegisteredUser to UC1--><g id="link_RegisteredUser_UC1"><path d="M131.11,763.67 C142.91,771.96 154.06,782.37 161,795 C175.25,820.93 153.72,1038.56 173,1061 C199.85,1092.24 237.5056,1102.9971 277.3156,1105.8771 " fill="none" id="RegisteredUser-to-UC1" style="stroke:#181818;stroke-width:1.0;"/><polygon fill="#181818" points="283.3,1106.31,274.6121,1101.671,278.313,1105.9492,274.0348,1109.6502,283.3,1106.31" style="stroke:#181818;stroke-width:1.0;"/></g><!--link UnregisteredUser to UC1--><g id="link_UnregisteredUser_UC1"><path d="M87.12,891.38 C96.7,939.12 119.96,1018.46 173,1061 C203.05,1085.1 237.6448,1095.2581 274.5048,1099.7881 " fill="none" id="UnregisteredUser-to-UC1" style="stroke:#181818;stroke-width:1.0;"/><polygon fill="#181818" points="280.46,1100.52,272.0151,1095.4521,275.4973,1099.9101,271.0393,1103.3923,280.46,1100.52" style="stroke:#181818;stroke-width:1.0;"/></g><!--link RegisteredUser to UC2--><g id="link_RegisteredUser_UC2"><path d="M80.98,699.86 C81.74,575.13 90.83,190.15 173,104 C200.05,75.64 235.0859,65.007 273.0559,61.467 " fill="none" id="RegisteredUser-to-UC2" style="stroke:#181818;stroke-width:1.0;"/><polygon fill="#181818" points="279.03,60.91,269.6975,57.7627,274.0516,61.3741,270.4402,65.7282,279.03,60.91" style="stroke:#181818;stroke-width:1.0;"/></g><!--link UnregisteredUser to UC3--><g id="link_UnregisteredUser_UC3"><path d="M82.19,891.13 C86.24,952.89 103.23,1072.84 173,1140 C188.7,1155.11 202.5228,1163.9976 223.0428,1172.1376 " fill="none" id="UnregisteredUser-to-UC3" style="stroke:#181818;stroke-width:1.0;"/><polygon fill="#181818" points="228.62,1174.35,221.7291,1167.3133,223.9723,1172.5063,218.7792,1174.7495,228.62,1174.35" style="stroke:#181818;stroke-width:1.0;"/></g><!--link RegisteredUser to UC4--><g id="link_RegisteredUser_UC4"><path d="M81.92,699.7 C85.41,585.77 101.59,258.69 173,185 C199.06,158.11 231.6811,147.2513 268.1311,142.9613 " fill="none" id="RegisteredUser-to-UC4" style="stroke:#181818;stroke-width:1.0;"/><polygon fill="#181818" points="274.09,142.26,264.6841,139.3394,269.1243,142.8444,265.6192,147.2846,274.09,142.26" style="stroke:#181818;stroke-width:1.0;"/></g><!--link RegisteredUser to UC5--><g id="link_RegisteredUser_UC5"><path d="M83.12,699.94 C89.47,597.79 111.86,326.41 173,265 C200.3,237.58 234.6938,226.8558 272.1338,222.8658 " fill="none" id="RegisteredUser-to-UC5" style="stroke:#181818;stroke-width:1.0;"/><polygon fill="#181818" points="278.1,222.23,268.7268,219.2063,273.1282,222.7599,269.5746,227.1612,278.1,222.23" style="stroke:#181818;stroke-width:1.0;"/></g><!--link RegisteredUser to UC6--><g id="link_RegisteredUser_UC6"><path d="M85.81,699.87 C96.96,615.34 127.21,419.51 173,373 C188.44,357.32 202.3007,348.2217 223.0007,340.1417 " fill="none" id="RegisteredUser-to-UC6" style="stroke:#181818;stroke-width:1.0;"/><polygon fill="#181818" points="228.59,337.96,218.7516,337.5064,223.9323,339.7781,221.6605,344.9588,228.59,337.96" style="stroke:#181818;stroke-width:1.0;"/></g><!--link RegisteredUser to UC7--><g id="link_RegisteredUser_UC7"><path d="M81.31,700 C84.07,636.95 99.21,513.13 173,448 C204.27,420.4 243.1752,410.7575 282.6552,407.9375 " fill="none" id="RegisteredUser-to-UC7" style="stroke:#181818;stroke-width:1.0;"/><polygon fill="#181818" points="288.64,407.51,279.3779,404.1614,283.6527,407.8662,279.9479,412.1411,288.64,407.51" style="stroke:#181818;stroke-width:1.0;"/></g><!--link RegisteredUser to UC8--><g id="link_RegisteredUser_UC8"><path d="M87.44,699.85 C97.31,652.82 120.84,575.02 173,533 C198.39,512.54 225.3822,502.4328 257.2022,496.4828 " fill="none" id="RegisteredUser-to-UC8" style="stroke:#181818;stroke-width:1.0;"/><polygon fill="#181818" points="263.1,495.38,253.5181,493.1024,258.1852,496.299,254.9885,500.9661,263.1,495.38" style="stroke:#181818;stroke-width:1.0;"/></g><!--link RegisteredUser to UC9--><g id="link_RegisteredUser_UC9"><path d="M100.29,699.9 C116.03,672.14 140.9,636.34 173,616 C202.25,597.47 232.3561,588.103 265.8061,582.373 " fill="none" id="RegisteredUser-to-UC9" style="stroke:#181818;stroke-width:1.0;"/><polygon fill="#181818" points="271.72,581.36,262.1738,578.937,266.7918,582.2042,263.5246,586.8221,271.72,581.36" style="stroke:#181818;stroke-width:1.0;"/></g><!--link RegisteredUser to UC10--><g id="link_RegisteredUser_UC10"><path d="M131.1,717.69 C144.55,712.44 159.2,707.14 173,703 C208.54,692.33 242.4887,684.4377 277.2987,677.4077 " fill="none" id="RegisteredUser-to-UC10" style="stroke:#181818;stroke-width:1.0;"/><polygon fill="#181818" points="283.18,676.22,273.5663,674.0808,278.2789,677.2098,275.1499,681.9225,283.18,676.22" style="stroke:#181818;stroke-width:1.0;"/></g><!--link RegisteredUser to UC11--><g id="link_RegisteredUser_UC11"><path d="M131.12,739 C176.88,739 239.21,739 291.83,739 " fill="none" id="RegisteredUser-to-UC11" style="stroke:#181818;stroke-width:1.0;"/><polygon fill="#181818" points="297.83,739,288.83,735,292.83,739,288.83,743,297.83,739" style="stroke:#181818;stroke-width:1.0;"/></g><!--link RegisteredUser to UC12--><g id="link_RegisteredUser_UC12"><path d="M131.15,759.62 C144.61,764.73 159.24,769.91 173,774 C209.12,784.75 243.7247,792.8832 278.8747,800.1632 " fill="none" id="RegisteredUser-to-UC12" style="stroke:#181818;stroke-width:1.0;"/><polygon fill="#181818" points="284.75,801.38,276.7483,795.6379,279.8539,800.366,275.1258,803.4716,284.75,801.38" style="stroke:#181818;stroke-width:1.0;"/></g><!--link RegisteredUser to UC13--><g id="link_RegisteredUser_UC13"><path d="M131.24,765.22 C142.59,773.34 153.5,783.3 161,795 C177.09,820.1 152.55,839.31 173,861 C191.09,880.19 209.5859,890.6764 234.9659,898.3364 " fill="none" id="RegisteredUser-to-UC13" style="stroke:#181818;stroke-width:1.0;"/><polygon fill="#181818" points="240.71,900.07,233.2496,893.6402,235.9233,898.6253,230.9381,901.2989,240.71,900.07" style="stroke:#181818;stroke-width:1.0;"/></g><!--link UnregisteredUser to UC13--><g id="link_UnregisteredUser_UC13"><path d="M137.24,863.11 C174.69,870.52 219.1638,879.3067 263.8438,888.1367 " fill="none" id="UnregisteredUser-to-UC13" style="stroke:#181818;stroke-width:1.0;"/><polygon fill="#181818" points="269.73,889.3,261.6763,883.631,264.8249,888.3306,260.1253,891.4792,269.73,889.3" style="stroke:#181818;stroke-width:1.0;"/></g><!--link RegisteredUser to UC14--><g id="link_RegisteredUser_UC14"><path d="M131.28,764.1 C142.93,772.33 153.96,782.62 161,795 C178.95,826.58 149.72,930.12 173,958 C188,975.95 202.6799,986.0489 224.6399,994.2589 " fill="none" id="RegisteredUser-to-UC14" style="stroke:#181818;stroke-width:1.0;"/><polygon fill="#181818" points="230.26,996.36,223.2306,989.4616,225.5766,994.6091,220.4291,996.955,230.26,996.36" style="stroke:#181818;stroke-width:1.0;"/></g><!--link UnregisteredUser to UC14--><g id="link_UnregisteredUser_UC14"><path d="M105.97,891.12 C122.4,913.84 145.86,941.2 173,958 C195.66,972.02 216.2151,980.617 242.2151,988.117 " fill="none" id="UnregisteredUser-to-UC14" style="stroke:#181818;stroke-width:1.0;"/><polygon fill="#181818" points="247.98,989.78,240.4412,983.4423,243.1759,988.3942,238.2239,991.1288,247.98,989.78" style="stroke:#181818;stroke-width:1.0;"/></g><!--SRC=[XLFBRgim4DtxAqRPP1KfJiXhKwcY7r3rSVU-pWIi04QsQHHL_VSEu2J418fOOCyvPnvdcDgZAafXH0wvBhHCZSuHdAcGtIAba4UHuBixPmW6fHD5aY6RtX0s5NjzKaK21v5PP2p3WmEdmQWaTR1NDKlfWh4h7IRlP-imXsVfjB4J41P4ymdV3EXf3Z1vmqGHpk0UFYsQ1dUxgw-wwC_2FC1tRnl6prqXT0MniDWMKLcKzS6NuO-4YZdC6asVtuYwfJP1p4FmWi0V6ZATg0BeRRlrw4M8NXBwdy8Jk1HfN5PMrfAuXOmIXIrq6ekNeL94Ih51uH14Hyd3en2-wiAbpdCidCUkGkoQi6zOPcTlA7sGnLTQtQM0bp3bEfJPaCohfhPEogN4o5HnzDXDYDssK_pIL9z-AByDARkMSj0c5wuxIq_OzMoT_vc4ptiaVlLNLvU9yTuMy7eDdgL4Q-_iw3RDUzl0wtMu5J7rQw3Dlh7_Fnb0XbtelHNWqL_qKfTL9enovuj8n1gL-pyBPhEdwsw7Fz5Ty25lCSPR3lEYuT1gEBGU3cs6GzlXq6va8lEHsCX4lDMFOylHCO_CYqUZJBBsX_q2]--></g></svg>