<?xml version="1.0" encoding="us-ascii" standalone="no"?><svg xmlns="http://www.w3.org/2000/svg" xmlns:xlink="http://www.w3.org/1999/xlink" contentStyleType="text/css" height="1163px" preserveAspectRatio="none" style="width:706px;height:1163px;background:#FFFFFF;" version="1.1" viewBox="0 0 706 1163" width="706px" zoomAndPan="magnify"><defs/><g><!--cluster usecases--><g id="cluster_usecases"><rect fill="none" height="1150" rx="2.5" ry="2.5" style="stroke:#181818;stroke-width:1.0;" width="389" x="152" y="7"/><text fill="#000000" font-family="sans-serif" font-size="14" font-weight="bold" lengthAdjust="spacing" textLength="74" x="309.5" y="23.5332">Use Cases</text></g><g id="elem_UC01"><ellipse cx="346.2514" cy="375.8503" fill="#F1F1F1" rx="94.7514" ry="21.3503" style="stroke:#181818;stroke-width:0.5;"/><text fill="#000000" font-family="sans-serif" font-size="14" lengthAdjust="spacing" textLength="149" x="271.7514" y="379.5788">UC1 - User Registration</text></g><g id="elem_UC02"><ellipse cx="346.337" cy="454.9674" fill="#F1F1F1" rx="97.837" ry="21.9674" style="stroke:#181818;stroke-width:0.5;"/><text fill="#000000" font-family="sans-serif" font-size="14" lengthAdjust="spacing" textLength="156" x="268.337" y="458.6959">UC2 - To login in System</text></g><g id="elem_UC03"><ellipse cx="346.6077" cy="281.1215" fill="#F1F1F1" rx="178.6077" ry="38.1215" style="stroke:#181818;stroke-width:0.5;"/><text fill="#000000" font-family="sans-serif" font-size="14" lengthAdjust="spacing" textLength="328" x="182.6077" y="284.8501">UC3 - View the discussions list as Unregistered User</text></g><g id="elem_UC04"><ellipse cx="346.3449" cy="534.769" fill="#F1F1F1" rx="101.8449" ry="22.769" style="stroke:#181818;stroke-width:0.5;"/><text fill="#000000" font-family="sans-serif" font-size="14" lengthAdjust="spacing" textLength="165" x="263.8449" y="538.4975">UC4 - Create a discussion</text></g><g id="elem_UC05"><ellipse cx="346.337" cy="614.9674" fill="#F1F1F1" rx="97.837" ry="21.9674" style="stroke:#181818;stroke-width:0.5;"/><text fill="#000000" font-family="sans-serif" font-size="14" lengthAdjust="spacing" textLength="156" x="268.337" y="618.6959">UC5 - Create a comment</text></g><g id="elem_UC06"><ellipse cx="346.4716" cy="706.0943" fill="#F1F1F1" rx="155.9716" ry="33.5943" style="stroke:#181818;stroke-width:0.5;"/><text fill="#000000" font-family="sans-serif" font-size="14" lengthAdjust="spacing" textLength="281" x="205.9716" y="709.8228">UC6 - Reply directly to a post in a discussion</text></g><g id="elem_UC07"><ellipse cx="346.3193" cy="794.9639" fill="#F1F1F1" rx="87.8193" ry="19.9639" style="stroke:#181818;stroke-width:0.5;"/><text fill="#000000" font-family="sans-serif" font-size="14" lengthAdjust="spacing" textLength="133" x="279.8193" y="798.6924">UC7 - Post with a link</text></g><g id="elem_UC08"><ellipse cx="346.5948" cy="875.219" fill="#F1F1F1" rx="114.0948" ry="25.219" style="stroke:#181818;stroke-width:0.5;"/><text fill="#000000" font-family="sans-serif" font-size="14" lengthAdjust="spacing" textLength="192" x="250.5948" y="878.9475">UC8 - To vote on a Discussion</text></g><g id="elem_UC09"><ellipse cx="346.7046" cy="958.9409" fill="#F1F1F1" rx="107.7046" ry="23.9409" style="stroke:#181818;stroke-width:0.5;"/><text fill="#000000" font-family="sans-serif" font-size="14" lengthAdjust="spacing" textLength="178" x="257.7046" y="962.6694">UC9 - To format discussions</text></g><g id="elem_UC10"><ellipse cx="346.3675" cy="174.0735" fill="#F1F1F1" rx="158.3675" ry="34.0735" style="stroke:#181818;stroke-width:0.5;"/><text fill="#000000" font-family="sans-serif" font-size="14" lengthAdjust="spacing" textLength="286" x="203.3675" y="177.802">UC10 - Discussion's list ordered by popularity</text></g><g id="elem_UC11"><ellipse cx="346.5069" cy="1035.9014" fill="#F1F1F1" rx="77.5069" ry="17.9014" style="stroke:#181818;stroke-width:0.5;"/><text fill="#000000" font-family="sans-serif" font-size="14" lengthAdjust="spacing" textLength="108" x="290.3567" y="1040.216">UC11 - To logout</text></g><g id="elem_UC12"><ellipse cx="346.2783" cy="1114.9557" fill="#F1F1F1" rx="117.7783" ry="25.9557" style="stroke:#181818;stroke-width:0.5;"/><text fill="#000000" font-family="sans-serif" font-size="14" lengthAdjust="spacing" textLength="200" x="246.2783" y="1118.6842">UC12 - Access a discussion link</text></g><g id="elem_UC13"><ellipse cx="346.6476" cy="73.8295" fill="#F1F1F1" rx="142.1476" ry="30.8295" style="stroke:#181818;stroke-width:0.5;"/><text fill="#000000" font-family="sans-serif" font-size="14" lengthAdjust="spacing" textLength="252" x="220.6476" y="77.558">UC13 - Discussion's list ordered by date</text></g><!--entity RegisteredUser--><g id="elem_RegisteredUser"><ellipse cx="57" cy="675.5" fill="#F1F1F1" rx="8" ry="8" style="stroke:#181818;stroke-width:0.5;"/><path d="M57,683.5 L57,710.5 M44,691.5 L70,691.5 M57,710.5 L44,725.5 M57,710.5 L70,725.5 " fill="none" style="stroke:#181818;stroke-width:0.5;"/><text fill="#000000" font-family="sans-serif" font-size="14" lengthAdjust="spacing" textLength="102" x="6" y="741.5332">Registered User</text></g><!--entity UnregisteredUser--><g id="elem_UnregisteredUser"><ellipse cx="642" cy="197.5" fill="#F1F1F1" rx="8" ry="8" style="stroke:#181818;stroke-width:0.5;"/><path d="M642,205.5 L642,232.5 M629,213.5 L655,213.5 M642,232.5 L629,247.5 M642,232.5 L655,247.5 " fill="none" style="stroke:#181818;stroke-width:0.5;"/><text fill="#000000" font-family="sans-serif" font-size="14" lengthAdjust="spacing" textLength="114" x="585" y="263.5332">Unregistered User</text></g><!--link RegisteredUser to UC02--><g id="link_RegisteredUser_UC02"><path d="M62.59,666.94 C70.43,618.65 91.08,537.52 144,494 C172.96,470.18 206.2158,460.0899 242.3458,455.5999 " fill="none" id="RegisteredUser-to-UC02" style="stroke:#181818;stroke-width:1.0;"/><polygon fill="#181818" points="248.3,454.86,238.8754,452.0005,243.3382,455.4766,239.862,459.9394,248.3,454.86" style="stroke:#181818;stroke-width:1.0;"/></g><!--link RegisteredUser to UC04--><g id="link_RegisteredUser_UC04"><path d="M73.6,666.83 C87.56,636.95 110.95,597.27 144,575 C173.8,554.92 205.4195,545.3604 240.0095,540.0504 " fill="none" id="RegisteredUser-to-UC04" style="stroke:#181818;stroke-width:1.0;"/><polygon fill="#181818" points="245.94,539.14,236.4373,536.5519,240.9979,539.8987,237.6511,544.4593,245.94,539.14" style="stroke:#181818;stroke-width:1.0;"/></g><!--link RegisteredUser to UC05--><g id="link_RegisteredUser_UC05"><path d="M108.41,672.28 C119.76,665.79 132,659.59 144,655 C180.81,640.91 217.4623,632.5206 253.9623,626.4106 " fill="none" id="RegisteredUser-to-UC05" style="stroke:#181818;stroke-width:1.0;"/><polygon fill="#181818" points="259.88,625.42,250.3431,622.9608,254.9486,626.2455,251.6639,630.851,259.88,625.42" style="stroke:#181818;stroke-width:1.0;"/></g><!--link RegisteredUser to UC06--><g id="link_RegisteredUser_UC06"><path d="M108.08,706 C131.41,706 154.56,706 184.38,706 " fill="none" id="RegisteredUser-to-UC06" style="stroke:#181818;stroke-width:1.0;"/><polygon fill="#181818" points="190.38,706,181.38,702,185.38,706,181.38,710,190.38,706" style="stroke:#181818;stroke-width:1.0;"/></g><!--link RegisteredUser to UC07--><g id="link_RegisteredUser_UC07"><path d="M108.37,739.8 C119.73,746.29 131.98,752.46 144,757 C182.97,771.71 222.4758,780.0242 260.3258,785.6742 " fill="none" id="RegisteredUser-to-UC07" style="stroke:#181818;stroke-width:1.0;"/><polygon fill="#181818" points="266.26,786.56,257.9492,781.2751,261.3148,785.8218,256.7681,789.1874,266.26,786.56" style="stroke:#181818;stroke-width:1.0;"/></g><!--link RegisteredUser to UC08--><g id="link_RegisteredUser_UC08"><path d="M74.8,745.05 C89.08,773.54 112.33,810.75 144,832 C171.55,850.49 199.6875,860.0894 231.8975,866.2694 " fill="none" id="RegisteredUser-to-UC08" style="stroke:#181818;stroke-width:1.0;"/><polygon fill="#181818" points="237.79,867.4,229.7049,861.7758,232.8796,866.4579,228.1975,869.6325,237.79,867.4" style="stroke:#181818;stroke-width:1.0;"/></g><!--link RegisteredUser to UC09--><g id="link_RegisteredUser_UC09"><path d="M62.82,745.18 C70.87,793.17 91.73,873.45 144,917 C170.63,939.19 200.0916,949.6039 233.7616,955.2139 " fill="none" id="RegisteredUser-to-UC09" style="stroke:#181818;stroke-width:1.0;"/><polygon fill="#181818" points="239.68,956.2,231.4598,950.7752,234.748,955.3782,230.145,958.6664,239.68,956.2" style="stroke:#181818;stroke-width:1.0;"/></g><!--link RegisteredUser to UC10--><g id="link_RegisteredUser_UC10"><path d="M59.67,666.94 C64.86,564.08 84.16,289.25 144,225 C159.86,207.97 174.8862,198.3167 196.9162,190.3667 " fill="none" id="RegisteredUser-to-UC10" style="stroke:#181818;stroke-width:1.0;"/><polygon fill="#181818" points="202.56,188.33,192.7366,187.6225,197.8569,190.0272,195.4521,195.1475,202.56,188.33" style="stroke:#181818;stroke-width:1.0;"/></g><!--link RegisteredUser to UC11--><g id="link_RegisteredUser_UC11"><path d="M57.26,745.1 C58.35,808.66 70.39,933.93 144,1000 C178.25,1030.74 223.4126,1039.4138 265.6126,1040.6538 " fill="none" id="RegisteredUser-to-UC11" style="stroke:#181818;stroke-width:1.0;"/><polygon fill="#181818" points="271.61,1040.83,262.7314,1036.5674,266.6122,1040.6831,262.4964,1044.5639,271.61,1040.83" style="stroke:#181818;stroke-width:1.0;"/></g><!--link RegisteredUser to UC12--><g id="link_RegisteredUser_UC12"><path d="M61.99,745.15 C71.4,829.72 97.76,1025.52 144,1071 C166.72,1093.35 192.1095,1104.2884 223.2495,1110.5984 " fill="none" id="RegisteredUser-to-UC12" style="stroke:#181818;stroke-width:1.0;"/><polygon fill="#181818" points="229.13,1111.79,221.1037,1106.0823,224.2296,1110.797,219.5149,1113.923,229.13,1111.79" style="stroke:#181818;stroke-width:1.0;"/></g><!--link RegisteredUser to UC13--><g id="link_RegisteredUser_UC13"><path d="M58.25,666.86 C59.82,549.22 70.71,202.01 144,122 C161.61,102.77 179.6676,92.3292 204.7276,84.7392 " fill="none" id="RegisteredUser-to-UC13" style="stroke:#181818;stroke-width:1.0;"/><polygon fill="#181818" points="210.47,83,200.6969,81.7806,205.6847,84.4493,203.0159,89.4371,210.47,83" style="stroke:#181818;stroke-width:1.0;"/></g><!--reverse link UC01 to UnregisteredUser--><g id="link_UC01_UnregisteredUser"><path d="M444.7978,369.9582 C481.0378,364.6982 515.93,355.4 549,336 C577.36,319.36 601.16,290.7 617.45,267.09 " fill="none" id="UC01-backto-UnregisteredUser" style="stroke:#181818;stroke-width:1.0;"/><polygon fill="#181818" points="438.86,370.82,448.3412,373.4858,443.8082,370.1018,447.1921,365.5687,438.86,370.82" style="stroke:#181818;stroke-width:1.0;"/></g><!--reverse link UC03 to UnregisteredUser--><g id="link_UC03_UnregisteredUser"><path d="M488.9843,255.4526 C524.8843,248.9626 555.77,243.39 584.8,238.15 " fill="none" id="UC03-backto-UnregisteredUser" style="stroke:#181818;stroke-width:1.0;"/><polygon fill="#181818" points="483.08,256.52,492.648,258.8551,488.0002,255.6305,491.2249,250.9827,483.08,256.52" style="stroke:#181818;stroke-width:1.0;"/></g><!--reverse link UC10 to UnregisteredUser--><g id="link_UC10_UnregisteredUser"><path d="M473.2008,197.1263 C513.9408,204.6263 551.64,211.56 584.97,217.69 " fill="none" id="UC10-backto-UnregisteredUser" style="stroke:#181818;stroke-width:1.0;"/><polygon fill="#181818" points="467.3,196.04,475.4271,201.6034,472.2174,196.9453,476.8755,193.7356,467.3,196.04" style="stroke:#181818;stroke-width:1.0;"/></g><!--reverse link UC13 to UnregisteredUser--><g id="link_UC13_UnregisteredUser"><path d="M474.2443,91.4713 C502.0343,98.5513 524.71,107.27 549,122 C576.4,138.61 599.93,166.12 616.33,188.96 " fill="none" id="UC13-backto-UnregisteredUser" style="stroke:#181818;stroke-width:1.0;"/><polygon fill="#181818" points="468.43,89.99,476.1639,96.0881,473.2752,91.2244,478.1389,88.3358,468.43,89.99" style="stroke:#181818;stroke-width:1.0;"/></g><!--SRC=[XPJRZfim48Rl_HIZlSbLf7Z9yQPIHH-WsaFlNPY05MCZsso4ghvx1u8NQX8sIgJW_vj_nZEJhDn5wbfOKK5bjCbAQoe4RnjaerABx28AVFMjGh2OUQ4BXMmr4guKkRbANS1PA8UCAJnxy0QiB4eFkUoYfD6CCP5vO-7f1GlfF5hCuTsXVGBXO3phZWBvhkqTTdhQq-opC0fn2Abmw7gqSPXr3_270Rs6Hw9I3klUSSXiHLVZpJxTy9X-9lhDW3A5r43lrvRILm5_Zl64y5yIh-1Bf0wuh76Ex1qeIXLVONAnT9F4LbkoIYqAZo0cLe7VnlnkocUcgb3x0EzYU4_m2zQg7SP4NsXm0cf3PT8rxsNSnoO7CldP1LobBob4INq9y266ZxT6VXYgptG9VimI7EEOqotcR6mb_BIT8U8q6-w6GaRdrT1uO_E-uRzRkc7TA66bRmSJlfcPyC-XcoRqaCzMWtUxyJtBqBd_-ZNj0vzj24- -gZ2d4ORmVYl29_gjm7hzRLp2-zfsGTijQFi5xR2W7HUqqsDjcC5zZIze2tUdth7u3mFMJNqhXYzeoMED2dsi9Uml-mS0]--></g></svg>