<?xml version="1.0" encoding="us-ascii" standalone="no"?><svg xmlns="http://www.w3.org/2000/svg" xmlns:xlink="http://www.w3.org/1999/xlink" contentStyleType="text/css" height="1389px" preserveAspectRatio="none" style="width:576px;height:1389px;background:#FFFFFF;" version="1.1" viewBox="0 0 576 1389" width="576px" zoomAndPan="magnify"><defs/><g><!--cluster actors--><g id="cluster_actors"><rect fill="none" height="243" rx="2.5" ry="2.5" style="stroke:#181818;stroke-width:1.0;" width="146" x="7" y="761"/><text fill="#000000" font-family="sans-serif" font-size="14" font-weight="bold" lengthAdjust="spacing" textLength="99" x="30.5" y="777.5332">System Actors</text></g><!--cluster usecases--><g id="cluster_usecases"><rect fill="none" height="1376" rx="2.5" ry="2.5" style="stroke:#181818;stroke-width:1.0;" width="389" x="181" y="7"/><text fill="#000000" font-family="sans-serif" font-size="14" font-weight="bold" lengthAdjust="spacing" textLength="74" x="338.5" y="23.5332">Use Cases</text></g><!--entity RegisteredUser--><g id="elem_RegisteredUser"><ellipse cx="80" cy="805.5" fill="#F1F1F1" rx="8" ry="8" style="stroke:#181818;stroke-width:0.5;"/><path d="M80,813.5 L80,840.5 M67,821.5 L93,821.5 M80,840.5 L67,855.5 M80,840.5 L93,855.5 " fill="none" style="stroke:#181818;stroke-width:0.5;"/><text fill="#000000" font-family="sans-serif" font-size="14" lengthAdjust="spacing" textLength="102" x="29" y="871.5332">Registered User</text></g><!--entity UnregisteredUser--><g id="elem_UnregisteredUser"><ellipse cx="80" cy="918.5" fill="#F1F1F1" rx="8" ry="8" style="stroke:#181818;stroke-width:0.5;"/><path d="M80,926.5 L80,953.5 M67,934.5 L93,934.5 M80,953.5 L67,968.5 M80,953.5 L93,968.5 " fill="none" style="stroke:#181818;stroke-width:0.5;"/><text fill="#000000" font-family="sans-serif" font-size="14" lengthAdjust="spacing" textLength="114" x="23" y="984.5332">Unregistered User</text></g><g id="elem_UC01"><ellipse cx="375.2514" cy="1231.8503" fill="#F1F1F1" rx="94.7514" ry="21.3503" style="stroke:#181818;stroke-width:0.5;"/><text fill="#000000" font-family="sans-serif" font-size="14" lengthAdjust="spacing" textLength="149" x="300.7514" y="1235.5788">UC1 - User Registration</text></g><g id="elem_UC02"><ellipse cx="375.337" cy="64.9674" fill="#F1F1F1" rx="97.837" ry="21.9674" style="stroke:#181818;stroke-width:0.5;"/><text fill="#000000" font-family="sans-serif" font-size="14" lengthAdjust="spacing" textLength="156" x="297.337" y="68.6959">UC2 - To login in System</text></g><g id="elem_UC3"><ellipse cx="375.6077" cy="241.1215" fill="#F1F1F1" rx="178.6077" ry="38.1215" style="stroke:#181818;stroke-width:0.5;"/><text fill="#000000" font-family="sans-serif" font-size="14" lengthAdjust="spacing" textLength="328" x="211.6077" y="244.8501">UC3 - View the discussions list as Unregistered User</text></g><g id="elem_UC04"><ellipse cx="375.3449" cy="144.769" fill="#F1F1F1" rx="101.8449" ry="22.769" style="stroke:#181818;stroke-width:0.5;"/><text fill="#000000" font-family="sans-serif" font-size="14" lengthAdjust="spacing" textLength="165" x="292.8449" y="148.4975">UC4 - Create a discussion</text></g><g id="elem_UC05"><ellipse cx="375.337" cy="335.9674" fill="#F1F1F1" rx="97.837" ry="21.9674" style="stroke:#181818;stroke-width:0.5;"/><text fill="#000000" font-family="sans-serif" font-size="14" lengthAdjust="spacing" textLength="156" x="297.337" y="339.6959">UC5 - Create a comment</text></g><g id="elem_UC6"><ellipse cx="375.4716" cy="502.0943" fill="#F1F1F1" rx="155.9716" ry="33.5943" style="stroke:#181818;stroke-width:0.5;"/><text fill="#000000" font-family="sans-serif" font-size="14" lengthAdjust="spacing" textLength="281" x="234.9716" y="505.8228">UC6 - Reply directly to a post in a discussion</text></g><g id="elem_UC07"><ellipse cx="375.3193" cy="412.9639" fill="#F1F1F1" rx="87.8193" ry="19.9639" style="stroke:#181818;stroke-width:0.5;"/><text fill="#000000" font-family="sans-serif" font-size="14" lengthAdjust="spacing" textLength="133" x="308.8193" y="416.6924">UC7 - Post with a link</text></g><g id="elem_UC08"><ellipse cx="375.5948" cy="596.219" fill="#F1F1F1" rx="114.0948" ry="25.219" style="stroke:#181818;stroke-width:0.5;"/><text fill="#000000" font-family="sans-serif" font-size="14" lengthAdjust="spacing" textLength="192" x="279.5948" y="599.9475">UC8 - To vote on a Discussion</text></g><g id="elem_UC09"><ellipse cx="375.7046" cy="679.9409" fill="#F1F1F1" rx="107.7046" ry="23.9409" style="stroke:#181818;stroke-width:0.5;"/><text fill="#000000" font-family="sans-serif" font-size="14" lengthAdjust="spacing" textLength="178" x="286.7046" y="683.6694">UC9 - To format discussions</text></g><g id="elem_UC10"><ellipse cx="375.3675" cy="1044.0735" fill="#F1F1F1" rx="158.3675" ry="34.0735" style="stroke:#181818;stroke-width:0.5;"/><text fill="#000000" font-family="sans-serif" font-size="14" lengthAdjust="spacing" textLength="286" x="232.3675" y="1047.802">UC10 - Discussion's list ordered by popularity</text></g><g id="elem_UC11"><ellipse cx="375.5069" cy="756.9014" fill="#F1F1F1" rx="77.5069" ry="17.9014" style="stroke:#181818;stroke-width:0.5;"/><text fill="#000000" font-family="sans-serif" font-size="14" lengthAdjust="spacing" textLength="108" x="319.3567" y="761.216">UC11 - To logout</text></g><g id="elem_UC12"><ellipse cx="375.2783" cy="835.9557" fill="#F1F1F1" rx="117.7783" ry="25.9557" style="stroke:#181818;stroke-width:0.5;"/><text fill="#000000" font-family="sans-serif" font-size="14" lengthAdjust="spacing" textLength="200" x="275.2783" y="839.6842">UC12 - Access a discussion link</text></g><g id="elem_UC13"><ellipse cx="375.6476" cy="1143.8295" fill="#F1F1F1" rx="142.1476" ry="30.8295" style="stroke:#181818;stroke-width:0.5;"/><text fill="#000000" font-family="sans-serif" font-size="14" lengthAdjust="spacing" textLength="252" x="249.6476" y="1147.558">UC13 - Discussion's list ordered by date</text></g><!--entity UC03--><g id="elem_UC03"><ellipse cx="375.5" cy="1297.5" fill="#F1F1F1" rx="8" ry="8" style="stroke:#181818;stroke-width:0.5;"/><path d="M375.5,1305.5 L375.5,1332.5 M362.5,1313.5 L388.5,1313.5 M375.5,1332.5 L362.5,1347.5 M375.5,1332.5 L388.5,1347.5 " fill="none" style="stroke:#181818;stroke-width:0.5;"/><text fill="#000000" font-family="sans-serif" font-size="14" lengthAdjust="spacing" textLength="35" x="358" y="1363.5332">UC03</text></g><!--entity UC06--><g id="elem_UC06"><ellipse cx="375.5" cy="905.5" fill="#F1F1F1" rx="8" ry="8" style="stroke:#181818;stroke-width:0.5;"/><path d="M375.5,913.5 L375.5,940.5 M362.5,921.5 L388.5,921.5 M375.5,940.5 L362.5,955.5 M375.5,940.5 L388.5,955.5 " fill="none" style="stroke:#181818;stroke-width:0.5;"/><text fill="#000000" font-family="sans-serif" font-size="14" lengthAdjust="spacing" textLength="35" x="358" y="971.5332">UC06</text></g><!--link UnregisteredUser to UC01--><g id="link_UnregisteredUser_UC01"><path d="M84.29,988.02 C91.06,1042.36 111.54,1139.98 173,1192 C202.54,1217 237.2712,1227.2879 274.3612,1231.6579 " fill="none" id="UnregisteredUser-to-UC01" style="stroke:#181818;stroke-width:1.0;"/><polygon fill="#181818" points="280.32,1232.36,271.8499,1227.3344,275.3543,1231.7749,270.9138,1235.2794,280.32,1232.36" style="stroke:#181818;stroke-width:1.0;"/></g><!--link RegisteredUser to UC02--><g id="link_RegisteredUser_UC02"><path d="M83.27,796.77 C91.97,652.22 125.19,155.08 173,104 C199.91,75.25 235.1542,64.5987 273.3142,61.1587 " fill="none" id="RegisteredUser-to-UC02" style="stroke:#181818;stroke-width:1.0;"/><polygon fill="#181818" points="279.29,60.62,269.9672,57.4442,274.3102,61.0689,270.6855,65.4119,279.29,60.62" style="stroke:#181818;stroke-width:1.0;"/></g><!--link UnregisteredUser to UC03--><g id="link_UnregisteredUser_UC03"><path d="M80.63,988.21 C82.2,1055.61 95.4,1193.61 173,1271 C224.74,1322.6 313.45,1328.299 351.76,1328.369 " fill="none" id="UnregisteredUser-to-UC03" style="stroke:#181818;stroke-width:1.0;"/><polygon fill="#181818" points="357.76,1328.38,348.7673,1324.3636,352.76,1328.3709,348.7527,1332.3635,357.76,1328.38" style="stroke:#181818;stroke-width:1.0;"/></g><!--link RegisteredUser to UC04--><g id="link_RegisteredUser_UC04"><path d="M80.84,796.79 C81.15,669.95 88.97,273.83 173,185 C198.86,157.66 231.6588,146.7515 268.3088,142.5615 " fill="none" id="RegisteredUser-to-UC04" style="stroke:#181818;stroke-width:1.0;"/><polygon fill="#181818" points="274.27,141.88,264.8739,138.9282,269.3024,142.4479,265.7826,146.8764,274.27,141.88" style="stroke:#181818;stroke-width:1.0;"/></g><!--link RegisteredUser to UC05--><g id="link_RegisteredUser_UC05"><path d="M83.34,796.89 C90.14,696.66 113.39,434.27 173,375 C200.48,347.68 235.0003,337.1318 272.5003,333.3518 " fill="none" id="RegisteredUser-to-UC05" style="stroke:#181818;stroke-width:1.0;"/><polygon fill="#181818" points="278.47,332.75,269.1142,329.6728,273.4952,333.2515,269.9165,337.6325,278.47,332.75" style="stroke:#181818;stroke-width:1.0;"/></g><!--link RegisteredUser to UC06--><g id="link_RegisteredUser_UC06"><path d="M131.47,861.37 C144.79,867.58 159.29,873.89 173,879 C239.95,903.93 316.9938,922.8202 351.9038,930.8802 " fill="none" id="RegisteredUser-to-UC06" style="stroke:#181818;stroke-width:1.0;"/><polygon fill="#181818" points="357.75,932.23,349.8805,926.3079,352.8782,931.1052,348.0808,934.1028,357.75,932.23" style="stroke:#181818;stroke-width:1.0;"/></g><!--link RegisteredUser to UC07--><g id="link_RegisteredUser_UC07"><path d="M84.99,796.92 C94.8,708.81 123,498.65 173,451 C203.6,421.84 243.183,411.9445 283.253,409.3045 " fill="none" id="RegisteredUser-to-UC07" style="stroke:#181818;stroke-width:1.0;"/><polygon fill="#181818" points="289.24,408.91,279.9965,405.5103,284.2508,409.2387,280.5224,413.493,289.24,408.91" style="stroke:#181818;stroke-width:1.0;"/></g><!--link RegisteredUser to UC08--><g id="link_RegisteredUser_UC08"><path d="M88.27,796.73 C98.8,751.35 122.82,677.81 173,638 C198.55,617.73 225.5826,607.6849 257.3926,601.7249 " fill="none" id="RegisteredUser-to-UC08" style="stroke:#181818;stroke-width:1.0;"/><polygon fill="#181818" points="263.29,600.62,253.7073,598.3458,258.3755,601.5408,255.1806,606.209,263.29,600.62" style="stroke:#181818;stroke-width:1.0;"/></g><!--link RegisteredUser to UC09--><g id="link_RegisteredUser_UC09"><path d="M102.43,796.95 C118.51,771.37 142.89,739.39 173,721 C202.63,702.9 232.9071,693.6584 266.4071,687.8884 " fill="none" id="RegisteredUser-to-UC09" style="stroke:#181818;stroke-width:1.0;"/><polygon fill="#181818" points="272.32,686.87,262.7716,684.4557,267.3926,687.7187,264.1296,692.3396,272.32,686.87" style="stroke:#181818;stroke-width:1.0;"/></g><!--link RegisteredUser to UC10--><g id="link_RegisteredUser_UC10"><path d="M131.32,861.62 C142.82,869.8 153.77,879.93 161,892 C184,930.4 143.52,958.31 173,992 C188.46,1009.67 203.4397,1019.6465 225.5697,1027.7965 " fill="none" id="RegisteredUser-to-UC10" style="stroke:#181818;stroke-width:1.0;"/><polygon fill="#181818" points="231.2,1029.87,224.1369,1023.0062,226.5081,1028.1421,221.3722,1030.5133,231.2,1029.87" style="stroke:#181818;stroke-width:1.0;"/></g><!--link UnregisteredUser to UC10--><g id="link_UnregisteredUser_UC10"><path d="M137.24,977.28 C148.9,982.58 161.22,987.77 173,992 C202.33,1002.54 228.9496,1010.3735 259.0796,1018.1335 " fill="none" id="UnregisteredUser-to-UC10" style="stroke:#181818;stroke-width:1.0;"/><polygon fill="#181818" points="264.89,1019.63,257.1721,1013.5117,260.048,1018.3829,255.1768,1021.2589,264.89,1019.63" style="stroke:#181818;stroke-width:1.0;"/></g><!--link RegisteredUser to UC11--><g id="link_RegisteredUser_UC11"><path d="M131.08,809 C144.41,802.67 159,796.47 173,792 C215.62,778.39 259.1543,770.5057 298.4143,765.1857 " fill="none" id="RegisteredUser-to-UC11" style="stroke:#181818;stroke-width:1.0;"/><polygon fill="#181818" points="304.36,764.38,294.9044,761.6247,299.4053,765.0514,295.9786,769.5523,304.36,764.38" style="stroke:#181818;stroke-width:1.0;"/></g><!--link RegisteredUser to UC12--><g id="link_RegisteredUser_UC12"><path d="M131.12,836 C165.83,836 207.52,836 251.5,836 " fill="none" id="RegisteredUser-to-UC12" style="stroke:#181818;stroke-width:1.0;"/><polygon fill="#181818" points="257.5,836,248.5,832,252.5,836,248.5,840,257.5,836" style="stroke:#181818;stroke-width:1.0;"/></g><!--link RegisteredUser to UC13--><g id="link_RegisteredUser_UC13"><path d="M131.41,861.03 C143.05,869.27 154.05,879.57 161,892 C183.04,931.45 144.04,1060.31 173,1095 C189.84,1115.17 207.7378,1126.0575 232.8978,1133.8375 " fill="none" id="RegisteredUser-to-UC13" style="stroke:#181818;stroke-width:1.0;"/><polygon fill="#181818" points="238.63,1135.61,231.2134,1129.1298,233.8532,1134.1329,228.85,1136.7727,238.63,1135.61" style="stroke:#181818;stroke-width:1.0;"/></g><!--link UnregisteredUser to UC13--><g id="link_UnregisteredUser_UC13"><path d="M95.77,988.22 C110.36,1021.62 135.91,1068.32 173,1095 C195.58,1111.24 217.0864,1120.5799 244.1964,1127.8799 " fill="none" id="UnregisteredUser-to-UC13" style="stroke:#181818;stroke-width:1.0;"/><polygon fill="#181818" points="249.99,1129.44,242.3396,1123.2375,245.162,1128.1399,240.2595,1130.9623,249.99,1129.44" style="stroke:#181818;stroke-width:1.0;"/></g><!--SRC=[XLJBRgCm5DtxAwwooIfI27bkAbNq0qRfj7lNt80LWv5j9aAZ-VUvl0erbA88OP_7VIfhUvTvmGtF8DEv5gdH6O8p9R81ARYuymHVNQKG30h7yqGXMmyCc_9OFsIUm8qhYumfl3bm6enCKWUnh5LIvunzoc7rMbc76JmBfurT0RV0cq_uou2UvW2hAoQIU0PZUBDe6jvmLr-DsM-vcU6FRnl5lo-9q1L4t6ARH6bHr8SkZUv8h2Y0JUFPnJUyBgaD46q3dxqZzcyDIYSo1_grvVRqdKyFYVukyG4kHMgO5QMrP6z1KIY_Y55fKUWxxSafCiWT0XyvzP7tFlymvWkTPPYxddpmoKSYNx5GLJTK-g0nSoWqPKbLpaGy-XudylXLyn_IfQHGCh_t0Ky- -TosyO-cz7Jj_pAfwEnhBgtcfat6tRYPlU8o6UsM98FpkckxDd7Jxe-A2YnAnOrqLMSIR2ScmUV8TTctC9WiHb1lnhCGQEsNTetx44ps8mX_oZ2c2VRoaB7Qe37njnyscwTXOw-ps6vH6IuezmlOOG4xBc2d1UoyW5s-nxhfVLDXXyuh5_hMZMqU2nSZjcZxel-d_m00]--></g></svg>