<?xml version="1.0" encoding="us-ascii" standalone="no"?><svg xmlns="http://www.w3.org/2000/svg" xmlns:xlink="http://www.w3.org/1999/xlink" contentStyleType="text/css" height="454px" preserveAspectRatio="none" style="width:433px;height:454px;background:#FFFFFF;" version="1.1" viewBox="0 0 433 454" width="433px" zoomAndPan="magnify"><defs/><g><text fill="#000000" font-family="sans-serif" font-size="14" font-weight="bold" lengthAdjust="spacing" textLength="405" x="10" y="28.5352">As a registered user I want to comment on a discussion</text><rect fill="#FFFFFF" height="235.4844" style="stroke:#181818;stroke-width:1.0;" width="10" x="19.25" y="128.9766"/><rect fill="#FFFFFF" height="29.3105" style="stroke:#181818;stroke-width:1.0;" width="10" x="382.25" y="150.2871"/><rect fill="#FFFFFF" height="29.3105" style="stroke:#181818;stroke-width:1.0;" width="10" x="382.25" y="267.5293"/><line style="stroke:#181818;stroke-width:0.5;stroke-dasharray:5.0,5.0;" x1="23.75" x2="23.75" y1="118.9766" y2="373.4609"/><line style="stroke:#181818;stroke-width:0.5;stroke-dasharray:5.0,5.0;" x1="387.25" x2="387.25" y1="118.9766" y2="373.4609"/><text fill="#000000" font-family="sans-serif" font-size="14" lengthAdjust="spacing" textLength="31" x="5.75" y="116.0234">User</text><ellipse cx="24.25" cy="50.9883" fill="#E3E3E3" rx="8" ry="8" style="stroke:#181818;stroke-width:0.5;"/><path d="M24.25,58.9883 L24.25,85.9883 M11.25,66.9883 L37.25,66.9883 M24.25,85.9883 L11.25,100.9883 M24.25,85.9883 L37.25,100.9883 " fill="none" style="stroke:#181818;stroke-width:0.5;"/><text fill="#000000" font-family="sans-serif" font-size="14" lengthAdjust="spacing" textLength="31" x="5.75" y="385.9961">User</text><ellipse cx="24.25" cy="397.4492" fill="#E3E3E3" rx="8" ry="8" style="stroke:#181818;stroke-width:0.5;"/><path d="M24.25,405.4492 L24.25,432.4492 M11.25,413.4492 L37.25,413.4492 M24.25,432.4492 L11.25,447.4492 M24.25,432.4492 L37.25,447.4492 " fill="none" style="stroke:#181818;stroke-width:0.5;"/><rect fill="#E3E3E3" height="30.4883" rx="2.5" ry="2.5" style="stroke:#181818;stroke-width:0.5;" width="66" x="354.25" y="87.4883"/><text fill="#000000" font-family="sans-serif" font-size="14" lengthAdjust="spacing" textLength="52" x="361.25" y="108.0234">:System</text><rect fill="#E3E3E3" height="30.4883" rx="2.5" ry="2.5" style="stroke:#181818;stroke-width:0.5;" width="66" x="354.25" y="372.4609"/><text fill="#000000" font-family="sans-serif" font-size="14" lengthAdjust="spacing" textLength="52" x="361.25" y="392.9961">:System</text><rect fill="#FFFFFF" height="235.4844" style="stroke:#181818;stroke-width:1.0;" width="10" x="19.25" y="128.9766"/><rect fill="#FFFFFF" height="29.3105" style="stroke:#181818;stroke-width:1.0;" width="10" x="382.25" y="150.2871"/><rect fill="#FFFFFF" height="29.3105" style="stroke:#181818;stroke-width:1.0;" width="10" x="382.25" y="267.5293"/><polygon fill="#181818" points="370.25,146.2871,380.25,150.2871,370.25,154.2871,374.25,150.2871" style="stroke:#181818;stroke-width:1.0;"/><line style="stroke:#181818;stroke-width:1.0;" x1="29.25" x2="376.25" y1="150.2871" y2="150.2871"/><text fill="#000000" font-family="sans-serif" font-size="13" font-weight="bold" lengthAdjust="spacing" textLength="9" x="36.25" y="145.5449">1</text><text fill="#000000" font-family="sans-serif" font-size="13" lengthAdjust="spacing" textLength="161" x="49.25" y="145.5449">Enter email and password</text><polygon fill="#181818" points="40.25,175.5977,30.25,179.5977,40.25,183.5977,36.25,179.5977" style="stroke:#181818;stroke-width:1.0;"/><line style="stroke:#181818;stroke-width:1.0;stroke-dasharray:2.0,2.0;" x1="34.25" x2="386.25" y1="179.5977" y2="179.5977"/><text fill="#000000" font-family="sans-serif" font-size="13" font-weight="bold" lengthAdjust="spacing" textLength="9" x="46.25" y="174.8555">2</text><text fill="#000000" font-family="sans-serif" font-size="13" lengthAdjust="spacing" textLength="168" x="59.25" y="174.8555">Check email and password</text><polygon fill="#181818" points="40.25,204.9082,30.25,208.9082,40.25,212.9082,36.25,208.9082" style="stroke:#181818;stroke-width:1.0;"/><line style="stroke:#181818;stroke-width:1.0;stroke-dasharray:2.0,2.0;" x1="34.25" x2="386.25" y1="208.9082" y2="208.9082"/><text fill="#000000" font-family="sans-serif" font-size="13" font-weight="bold" lengthAdjust="spacing" textLength="9" x="46.25" y="204.166">3</text><text fill="#000000" font-family="sans-serif" font-size="13" lengthAdjust="spacing" textLength="111" x="59.25" y="204.166">Grant user access</text><polygon fill="#181818" points="40.25,234.2188,30.25,238.2188,40.25,242.2188,36.25,238.2188" style="stroke:#181818;stroke-width:1.0;"/><line style="stroke:#181818;stroke-width:1.0;stroke-dasharray:2.0,2.0;" x1="34.25" x2="386.25" y1="238.2188" y2="238.2188"/><text fill="#000000" font-family="sans-serif" font-size="13" font-weight="bold" lengthAdjust="spacing" textLength="9" x="46.25" y="233.4766">4</text><text fill="#000000" font-family="sans-serif" font-size="13" lengthAdjust="spacing" textLength="184" x="59.25" y="233.4766">Show discussions to the user</text><polygon fill="#181818" points="370.25,263.5293,380.25,267.5293,370.25,271.5293,374.25,267.5293" style="stroke:#181818;stroke-width:1.0;"/><line style="stroke:#181818;stroke-width:1.0;" x1="29.25" x2="376.25" y1="267.5293" y2="267.5293"/><text fill="#000000" font-family="sans-serif" font-size="13" font-weight="bold" lengthAdjust="spacing" textLength="9" x="36.25" y="262.7871">5</text><text fill="#000000" font-family="sans-serif" font-size="13" lengthAdjust="spacing" textLength="135" x="49.25" y="262.7871">Click on a discussion</text><polygon fill="#181818" points="40.25,292.8398,30.25,296.8398,40.25,300.8398,36.25,296.8398" style="stroke:#181818;stroke-width:1.0;"/><line style="stroke:#181818;stroke-width:1.0;stroke-dasharray:2.0,2.0;" x1="34.25" x2="386.25" y1="296.8398" y2="296.8398"/><text fill="#000000" font-family="sans-serif" font-size="13" font-weight="bold" lengthAdjust="spacing" textLength="9" x="46.25" y="292.0977">6</text><text fill="#000000" font-family="sans-serif" font-size="13" lengthAdjust="spacing" textLength="316" x="59.25" y="292.0977">Show page with discussion and an empty text box</text><polygon fill="#181818" points="370.25,322.1504,380.25,326.1504,370.25,330.1504,374.25,326.1504" style="stroke:#181818;stroke-width:1.0;"/><line style="stroke:#181818;stroke-width:1.0;" x1="29.25" x2="376.25" y1="326.1504" y2="326.1504"/><text fill="#000000" font-family="sans-serif" font-size="13" font-weight="bold" lengthAdjust="spacing" textLength="9" x="36.25" y="321.4082">7</text><text fill="#000000" font-family="sans-serif" font-size="13" lengthAdjust="spacing" textLength="282" x="49.25" y="321.4082">Type in the text box and click Post comment</text><polygon fill="#181818" points="40.25,351.4609,30.25,355.4609,40.25,359.4609,36.25,355.4609" style="stroke:#181818;stroke-width:1.0;"/><line style="stroke:#181818;stroke-width:1.0;stroke-dasharray:2.0,2.0;" x1="34.25" x2="381.25" y1="355.4609" y2="355.4609"/><text fill="#000000" font-family="sans-serif" font-size="13" font-weight="bold" lengthAdjust="spacing" textLength="9" x="46.25" y="350.7188">8</text><text fill="#000000" font-family="sans-serif" font-size="13" lengthAdjust="spacing" textLength="275" x="59.25" y="350.7188">Save comment and shows below discussion</text><!--SRC=[dPDDJoCn38RlyokiNdQHu0_qi192QBKtfCADYvkuCrRpCSGUXldtUDAFBLK1xUQKZzTFRB-9R3drM312p2cxhkH8e6MWHeudFRejjhJIAH0KSegf3QS2wT3daLCB6mn2JQEi9hqLGDEtB4g5F0n21Vx0Y4b1CxWS8zaq9vDv5ZU8S4vDWuFcDCGr5PixpGKMJnQw01IuZtt84r5ZDoixxcVOOhcQx8vO5RjfZUHNLFeRqe2DmmfkVksbi8JxP1a2HUG0cBnLB3Bcucl44RINxpZps6_S6Eg8NS9THsxx6MmUFox7IPT70KNPWhFhsboO189rxpbLKA6NWKG5F2h2pq8RQsjoTFsSF8ahtAlrprQSDhb4d5VmyKJ9TOaTXhDzFvGglpPNHAzggfxEAl-kyDzbDgEwZCwHo9UOouoLDU7aCSZyKBIZIlqATz7Mky3cnFdxkk3fTvNLh7hx0p2oTYUmwWicSxlN2PJU5DRvxPyJVPnw0awrqWEaebsjuC4yENoN_qeVN-dutMRixgcjANneTlCE]--></g></svg>