<?xml version="1.0" encoding="us-ascii" standalone="no"?><svg xmlns="http://www.w3.org/2000/svg" xmlns:xlink="http://www.w3.org/1999/xlink" contentStyleType="text/css" height="424px" preserveAspectRatio="none" style="width:643px;height:424px;background:#FFFFFF;" version="1.1" viewBox="0 0 643 424" width="643px" zoomAndPan="magnify"><defs><filter height="300%" id="f1kxg03w4qfhau" width="300%" x="-1" y="-1"><feGaussianBlur result="blurOut" stdDeviation="2.0"/><feColorMatrix in="blurOut" result="blurOut2" type="matrix" values="0 0 0 0 0 0 0 0 0 0 0 0 0 0 0 0 0 0 .4 0"/><feOffset dx="4.0" dy="4.0" in="blurOut2" result="blurOut3"/><feBlend in="SourceGraphic" in2="blurOut3" mode="normal"/></filter></defs><g><text fill="#000000" font-family="sans-serif" font-size="14" font-weight="bold" lengthAdjust="spacing" textLength="212" x="217.5" y="28.5352">US 004 - Create a Discussion</text><rect fill="#FFFFFF" filter="url(#f1kxg03w4qfhau)" height="193.8633" style="stroke:#181818;stroke-width:1.0;" width="10" x="57" y="131.9766"/><rect fill="#FFFFFF" filter="url(#f1kxg03w4qfhau)" height="29.3105" style="stroke:#181818;stroke-width:1.0;" width="10" x="488" y="153.2871"/><rect fill="#FFFFFF" filter="url(#f1kxg03w4qfhau)" height="113.9316" style="stroke:#181818;stroke-width:1.0;" width="10" x="488" y="211.9082"/><line style="stroke:#181818;stroke-width:0.5;stroke-dasharray:5.0,5.0;" x1="62" x2="62" y1="121.9766" y2="343.8398"/><line style="stroke:#181818;stroke-width:0.5;stroke-dasharray:5.0,5.0;" x1="492.5" x2="492.5" y1="121.9766" y2="343.8398"/><text fill="#000000" font-family="sans-serif" font-size="14" lengthAdjust="spacing" textLength="108" x="5" y="119.0234">Registered User</text><ellipse cx="62" cy="50.9883" fill="#E2E2F0" filter="url(#f1kxg03w4qfhau)" rx="8" ry="8" style="stroke:#181818;stroke-width:0.5;"/><path d="M62,58.9883 L62,85.9883 M49,66.9883 L75,66.9883 M62,85.9883 L49,100.9883 M62,85.9883 L75,100.9883 " fill="none" filter="url(#f1kxg03w4qfhau)" style="stroke:#181818;stroke-width:0.5;"/><text fill="#000000" font-family="sans-serif" font-size="14" lengthAdjust="spacing" textLength="108" x="5" y="356.375">Registered User</text><ellipse cx="62" cy="367.8281" fill="#E2E2F0" filter="url(#f1kxg03w4qfhau)" rx="8" ry="8" style="stroke:#181818;stroke-width:0.5;"/><path d="M62,375.8281 L62,402.8281 M49,383.8281 L75,383.8281 M62,402.8281 L49,417.8281 M62,402.8281 L75,417.8281 " fill="none" filter="url(#f1kxg03w4qfhau)" style="stroke:#181818;stroke-width:0.5;"/><rect fill="#E2E2F0" filter="url(#f1kxg03w4qfhau)" height="30.4883" rx="2.5" ry="2.5" style="stroke:#181818;stroke-width:0.5;" width="66" x="458.5" y="87.4883"/><text fill="#000000" font-family="sans-serif" font-size="14" lengthAdjust="spacing" textLength="52" x="465.5" y="108.0234">:System</text><rect fill="#E2E2F0" filter="url(#f1kxg03w4qfhau)" height="30.4883" rx="2.5" ry="2.5" style="stroke:#181818;stroke-width:0.5;" width="66" x="458.5" y="342.8398"/><text fill="#000000" font-family="sans-serif" font-size="14" lengthAdjust="spacing" textLength="52" x="465.5" y="363.375">:System</text><rect fill="#FFFFFF" filter="url(#f1kxg03w4qfhau)" height="193.8633" style="stroke:#181818;stroke-width:1.0;" width="10" x="57" y="131.9766"/><rect fill="#FFFFFF" filter="url(#f1kxg03w4qfhau)" height="29.3105" style="stroke:#181818;stroke-width:1.0;" width="10" x="488" y="153.2871"/><rect fill="#FFFFFF" filter="url(#f1kxg03w4qfhau)" height="113.9316" style="stroke:#181818;stroke-width:1.0;" width="10" x="488" y="211.9082"/><polygon fill="#181818" points="476,149.2871,486,153.2871,476,157.2871,480,153.2871" style="stroke:#181818;stroke-width:1.0;"/><line style="stroke:#181818;stroke-width:1.0;" x1="67" x2="482" y1="153.2871" y2="153.2871"/><text fill="#000000" font-family="sans-serif" font-size="13" font-weight="bold" lengthAdjust="spacing" textLength="9" x="74" y="148.5449">1</text><text fill="#000000" font-family="sans-serif" font-size="13" lengthAdjust="spacing" textLength="95" x="87" y="148.5449">Select "Submit"</text><polygon fill="#181818" points="78,178.5977,68,182.5977,78,186.5977,74,182.5977" style="stroke:#181818;stroke-width:1.0;"/><line style="stroke:#181818;stroke-width:1.0;stroke-dasharray:2.0,2.0;" x1="72" x2="492" y1="182.5977" y2="182.5977"/><text fill="#000000" font-family="sans-serif" font-size="13" font-weight="bold" lengthAdjust="spacing" textLength="9" x="84" y="177.8555">2</text><text fill="#000000" font-family="sans-serif" font-size="13" lengthAdjust="spacing" textLength="182" x="97" y="177.8555">Display new discussion form</text><polygon fill="#181818" points="476,207.9082,486,211.9082,476,215.9082,480,211.9082" style="stroke:#181818;stroke-width:1.0;"/><line style="stroke:#181818;stroke-width:1.0;" x1="67" x2="482" y1="211.9082" y2="211.9082"/><text fill="#000000" font-family="sans-serif" font-size="13" font-weight="bold" lengthAdjust="spacing" textLength="9" x="74" y="207.166">3</text><text fill="#000000" font-family="sans-serif" font-size="13" lengthAdjust="spacing" textLength="271" x="87" y="207.166">Enter Title, Text and click on "Submit post"</text><line style="stroke:#181818;stroke-width:1.0;" x1="498" x2="540" y1="241.2188" y2="241.2188"/><line style="stroke:#181818;stroke-width:1.0;" x1="540" x2="540" y1="241.2188" y2="254.2188"/><line style="stroke:#181818;stroke-width:1.0;" x1="499" x2="540" y1="254.2188" y2="254.2188"/><polygon fill="#181818" points="509,250.2188,499,254.2188,509,258.2188,505,254.2188" style="stroke:#181818;stroke-width:1.0;"/><text fill="#000000" font-family="sans-serif" font-size="13" font-weight="bold" lengthAdjust="spacing" textLength="9" x="505" y="236.4766">4</text><text fill="#000000" font-family="sans-serif" font-size="13" lengthAdjust="spacing" textLength="118" x="518" y="236.4766">Validate Title, Text</text><line style="stroke:#181818;stroke-width:1.0;" x1="498" x2="540" y1="283.5293" y2="283.5293"/><line style="stroke:#181818;stroke-width:1.0;" x1="540" x2="540" y1="283.5293" y2="296.5293"/><line style="stroke:#181818;stroke-width:1.0;" x1="499" x2="540" y1="296.5293" y2="296.5293"/><polygon fill="#181818" points="509,292.5293,499,296.5293,509,300.5293,505,296.5293" style="stroke:#181818;stroke-width:1.0;"/><text fill="#000000" font-family="sans-serif" font-size="13" font-weight="bold" lengthAdjust="spacing" textLength="9" x="505" y="278.7871">5</text><text fill="#000000" font-family="sans-serif" font-size="13" lengthAdjust="spacing" textLength="100" x="518" y="278.7871">Save discussion</text><polygon fill="#181818" points="73,321.8398,63,325.8398,73,329.8398,69,325.8398" style="stroke:#181818;stroke-width:1.0;"/><line style="stroke:#181818;stroke-width:1.0;stroke-dasharray:2.0,2.0;" x1="67" x2="492" y1="325.8398" y2="325.8398"/><text fill="#000000" font-family="sans-serif" font-size="13" font-weight="bold" lengthAdjust="spacing" textLength="9" x="79" y="321.0977">6</text><text fill="#000000" font-family="sans-serif" font-size="13" lengthAdjust="spacing" textLength="384" x="92" y="321.0977">Confirm discussion submission and return to all discussions</text><!--SRC=[TP7DRi8m48JlVefHpet4eISElT2-G0EzByucMFWdiZTGthvseDGIz6ADlD_EpjhfQFn4aHnSy44VOd2CWMnYbUwbYVIHHkxaOXcHjP0VRGsa0_NXRFm8YJCh9KOokUkmMhsYnIOo2OFmRfAUKpB1AqMp13-xFSUijOI8vfD7auGZzzWbZWqeBKBbAMAqcSWBcdLtoP1RgbUv69XJcR7WgfnetsvbhD6npR7HTFFU6Md- -5-36zdcfgLvNR9EbYxmV4P_puqXHATwVZ1u6FdXyoRObfTumPQ_1UHxQ6lq4Tdd5WLJIDBW_q2LunTPqnUcCdqATdJYAlEpxJR13oQwUhDK0brbIHfPvkWX0MHjnQKdsrStomVy0000]--></g></svg>