<?xml version="1.0" encoding="us-ascii" standalone="no"?><svg xmlns="http://www.w3.org/2000/svg" xmlns:xlink="http://www.w3.org/1999/xlink" contentStyleType="text/css" height="587px" preserveAspectRatio="none" style="width:671px;height:587px;background:#FFFFFF;" version="1.1" viewBox="0 0 671 587" width="671px" zoomAndPan="magnify"><defs/><g><text fill="#000000" font-family="sans-serif" font-size="14" font-weight="bold" lengthAdjust="spacing" textLength="350" x="161.75" y="29.5332">System Sequence Diagram (SSD) - Alternative Two</text><rect fill="#FFFFFF" height="365" style="stroke:#181818;stroke-width:1.0;" width="10" x="32.5" y="131.2188"/><rect fill="#FFFFFF" height="90.7031" style="stroke:#181818;stroke-width:1.0;" width="10" x="365.5" y="153.5703"/><rect fill="#FFFFFF" height="220.5938" style="stroke:#181818;stroke-width:1.0;" width="10" x="365.5" y="274.625"/><rect fill="#FFFFFF" height="30" style="stroke:#181818;stroke-width:1.0;" width="10" x="607.5" y="183.9219"/><rect fill="#FFFFFF" height="30" style="stroke:#181818;stroke-width:1.0;" width="10" x="607.5" y="373.6797"/><rect fill="none" height="155.2422" style="stroke:#000000;stroke-width:1.5;" width="654.5" x="10" y="332.9766"/><line style="stroke:#181818;stroke-width:0.5;stroke-dasharray:5.0,5.0;" x1="37" x2="37" y1="121.2188" y2="505.2188"/><line style="stroke:#181818;stroke-width:0.5;stroke-dasharray:5.0,5.0;" x1="370" x2="370" y1="121.2188" y2="505.2188"/><line style="stroke:#181818;stroke-width:0.5;stroke-dasharray:5.0,5.0;" x1="612.5" x2="612.5" y1="121.2188" y2="505.2188"/><text fill="#000000" font-family="sans-serif" font-size="14" lengthAdjust="spacing" textLength="29" x="20" y="118.1426">User</text><ellipse cx="37.5" cy="52.1094" fill="#E3E3E3" rx="8" ry="8" style="stroke:#181818;stroke-width:0.5;"/><path d="M37.5,60.1094 L37.5,87.1094 M24.5,68.1094 L50.5,68.1094 M37.5,87.1094 L24.5,102.1094 M37.5,87.1094 L50.5,102.1094 " fill="none" style="stroke:#181818;stroke-width:0.5;"/><text fill="#000000" font-family="sans-serif" font-size="14" lengthAdjust="spacing" textLength="29" x="20" y="518.752">User</text><ellipse cx="37.5" cy="530.3281" fill="#E3E3E3" rx="8" ry="8" style="stroke:#181818;stroke-width:0.5;"/><path d="M37.5,538.3281 L37.5,565.3281 M24.5,546.3281 L50.5,546.3281 M37.5,565.3281 L24.5,580.3281 M37.5,565.3281 L50.5,580.3281 " fill="none" style="stroke:#181818;stroke-width:0.5;"/><rect fill="#E3E3E3" height="31.6094" rx="2.5" ry="2.5" style="stroke:#181818;stroke-width:0.5;" width="87" x="327" y="88.6094"/><text fill="#000000" font-family="sans-serif" font-size="14" lengthAdjust="spacing" textLength="73" x="334" y="110.1426">:Application</text><rect fill="#E3E3E3" height="31.6094" rx="2.5" ry="2.5" style="stroke:#181818;stroke-width:0.5;" width="87" x="327" y="504.2188"/><text fill="#000000" font-family="sans-serif" font-size="14" lengthAdjust="spacing" textLength="73" x="334" y="525.752">:Application</text><rect fill="#E3E3E3" height="31.6094" rx="2.5" ry="2.5" style="stroke:#181818;stroke-width:0.5;" width="84" x="570.5" y="88.6094"/><text fill="#000000" font-family="sans-serif" font-size="14" lengthAdjust="spacing" textLength="70" x="577.5" y="110.1426">:Data Base</text><rect fill="#E3E3E3" height="31.6094" rx="2.5" ry="2.5" style="stroke:#181818;stroke-width:0.5;" width="84" x="570.5" y="504.2188"/><text fill="#000000" font-family="sans-serif" font-size="14" lengthAdjust="spacing" textLength="70" x="577.5" y="525.752">:Data Base</text><rect fill="#FFFFFF" height="365" style="stroke:#181818;stroke-width:1.0;" width="10" x="32.5" y="131.2188"/><rect fill="#FFFFFF" height="90.7031" style="stroke:#181818;stroke-width:1.0;" width="10" x="365.5" y="153.5703"/><rect fill="#FFFFFF" height="220.5938" style="stroke:#181818;stroke-width:1.0;" width="10" x="365.5" y="274.625"/><rect fill="#FFFFFF" height="30" style="stroke:#181818;stroke-width:1.0;" width="10" x="607.5" y="183.9219"/><rect fill="#FFFFFF" height="30" style="stroke:#181818;stroke-width:1.0;" width="10" x="607.5" y="373.6797"/><polygon fill="#181818" points="353.5,149.5703,363.5,153.5703,353.5,157.5703,357.5,153.5703" style="stroke:#181818;stroke-width:1.0;"/><line style="stroke:#181818;stroke-width:1.0;" x1="42.5" x2="359.5" y1="153.5703" y2="153.5703"/><text fill="#000000" font-family="sans-serif" font-size="13" font-weight="bold" lengthAdjust="spacing" textLength="7" x="49.5" y="148.7139">1</text><text fill="#000000" font-family="sans-serif" font-size="13" lengthAdjust="spacing" textLength="122" x="60.5" y="148.7139">accesses discussion</text><polygon fill="#181818" points="595.5,179.9219,605.5,183.9219,595.5,187.9219,599.5,183.9219" style="stroke:#181818;stroke-width:1.0;"/><line style="stroke:#181818;stroke-width:1.0;" x1="375.5" x2="601.5" y1="183.9219" y2="183.9219"/><text fill="#000000" font-family="sans-serif" font-size="13" font-weight="bold" lengthAdjust="spacing" textLength="7" x="382.5" y="179.0654">2</text><text fill="#000000" font-family="sans-serif" font-size="13" lengthAdjust="spacing" textLength="143" x="393.5" y="179.0654">retrieves discussion data</text><polygon fill="#181818" points="53.5,240.2734,43.5,244.2734,53.5,248.2734,49.5,244.2734" style="stroke:#181818;stroke-width:1.0;"/><line style="stroke:#181818;stroke-width:1.0;stroke-dasharray:2.0,2.0;" x1="47.5" x2="369.5" y1="244.2734" y2="244.2734"/><text fill="#000000" font-family="sans-serif" font-size="13" font-weight="bold" lengthAdjust="spacing" textLength="7" x="59.5" y="239.417">3</text><text fill="#000000" font-family="sans-serif" font-size="13" lengthAdjust="spacing" textLength="116" x="70.5" y="239.417">Displays discussion</text><polygon fill="#181818" points="353.5,270.625,363.5,274.625,353.5,278.625,357.5,274.625" style="stroke:#181818;stroke-width:1.0;"/><line style="stroke:#181818;stroke-width:1.0;" x1="42.5" x2="359.5" y1="274.625" y2="274.625"/><text fill="#000000" font-family="sans-serif" font-size="13" font-weight="bold" lengthAdjust="spacing" textLength="7" x="49.5" y="269.7686">4</text><text fill="#000000" font-family="sans-serif" font-size="13" lengthAdjust="spacing" textLength="226" x="60.5" y="269.7686">Selects voting option (upvote/downvote)</text><line style="stroke:#181818;stroke-width:1.0;" x1="375.5" x2="417.5" y1="304.9766" y2="304.9766"/><line style="stroke:#181818;stroke-width:1.0;" x1="417.5" x2="417.5" y1="304.9766" y2="317.9766"/><line style="stroke:#181818;stroke-width:1.0;" x1="376.5" x2="417.5" y1="317.9766" y2="317.9766"/><polygon fill="#181818" points="386.5,313.9766,376.5,317.9766,386.5,321.9766,382.5,317.9766" style="stroke:#181818;stroke-width:1.0;"/><text fill="#000000" font-family="sans-serif" font-size="13" font-weight="bold" lengthAdjust="spacing" textLength="7" x="382.5" y="300.1201">5</text><text fill="#000000" font-family="sans-serif" font-size="13" lengthAdjust="spacing" textLength="207" x="393.5" y="300.1201">Checks user eligibility (or validation)</text><path d="M10,332.9766 L71,332.9766 L71,341.3281 L61,351.3281 L10,351.3281 L10,332.9766 " fill="#EEEEEE" style="stroke:#000000;stroke-width:1.5;"/><rect fill="none" height="155.2422" style="stroke:#000000;stroke-width:1.5;" width="654.5" x="10" y="332.9766"/><text fill="#000000" font-family="sans-serif" font-size="13" font-weight="bold" lengthAdjust="spacing" textLength="16" x="25" y="347.4717">alt</text><text fill="#000000" font-family="sans-serif" font-size="11" font-weight="bold" lengthAdjust="spacing" textLength="64" x="86" y="346.3955">[Valid Vote]</text><polygon fill="#181818" points="595.5,369.6797,605.5,373.6797,595.5,377.6797,599.5,373.6797" style="stroke:#181818;stroke-width:1.0;"/><line style="stroke:#181818;stroke-width:1.0;" x1="375.5" x2="601.5" y1="373.6797" y2="373.6797"/><text fill="#000000" font-family="sans-serif" font-size="13" font-weight="bold" lengthAdjust="spacing" textLength="7" x="382.5" y="368.8232">6</text><text fill="#000000" font-family="sans-serif" font-size="13" lengthAdjust="spacing" textLength="182" x="393.5" y="368.8232">Updates vote count in database</text><polygon fill="#181818" points="53.5,430.0313,43.5,434.0313,53.5,438.0313,49.5,434.0313" style="stroke:#181818;stroke-width:1.0;"/><line style="stroke:#181818;stroke-width:1.0;stroke-dasharray:2.0,2.0;" x1="47.5" x2="364.5" y1="434.0313" y2="434.0313"/><text fill="#000000" font-family="sans-serif" font-size="13" font-weight="bold" lengthAdjust="spacing" textLength="7" x="59.5" y="429.1748">7</text><text fill="#000000" font-family="sans-serif" font-size="13" lengthAdjust="spacing" textLength="136" x="70.5" y="429.1748">The vote was registered</text><line style="stroke:#000000;stroke-width:1.0;stroke-dasharray:2.0,2.0;" x1="10" x2="664.5" y1="443.0313" y2="443.0313"/><text fill="#000000" font-family="sans-serif" font-size="11" font-weight="bold" lengthAdjust="spacing" textLength="72" x="15" y="454.4502">[Invalid Vote]</text><polygon fill="#181818" points="53.5,476.2188,43.5,480.2188,53.5,484.2188,49.5,480.2188" style="stroke:#181818;stroke-width:1.0;"/><line style="stroke:#181818;stroke-width:1.0;stroke-dasharray:2.0,2.0;" x1="47.5" x2="364.5" y1="480.2188" y2="480.2188"/><text fill="#000000" font-family="sans-serif" font-size="13" font-weight="bold" lengthAdjust="spacing" textLength="7" x="59.5" y="475.3623">8</text><text fill="#000000" font-family="sans-serif" font-size="13" lengthAdjust="spacing" textLength="288" x="70.5" y="475.3623">The vote was not registered (Invalid vote selection)</text><!--SRC=[fLAxKWCn3Epz5PfKIS7Gfs0620Nr0RtY4nTDVBQnT9V9toDV4aXu30LNtFYnkv9sBLkE6GlsqAUO_AQada3BG4u-RZBwBNRKw3uG5FAAiGld0DbWctOSEtZ58EISiXgqsOjI3msz3HGzmOgng_1vqwmMS0MtGQb4L1u9ddR9EHmqnQ5VKx6rrrHWzYnKPe02TU6idBBdZ55XjhpDER0tVeeJv53l2sY5Yd27GXEaxjPOMpHz7b7f8Epg7wvkZXfBGEz9X0HQ5Z-8M8rFoh6G0_kEGnhrfBqqZxGmZHTiQEtwK-AZaPQ-drq8ct9jRcdsIGwulsZfZ7rgwkia3GMBJ61CMXDAkVe5yo7R0LrRRh4k5dzDTvAxtv3V2Wor2WNkUCs1TGzpIsl4mEsKny8vInTUwW6ycFxlPZrdez3K7u5FWwN61xScB_xZsDE63h8xYxvGntPVg7NkmLufFCRnb_P-5eX9pqHWVk9F09bSdYP_Y6rzskvxEEy0]--></g></svg>