<?xml version="1.0" encoding="us-ascii" standalone="no"?><svg xmlns="http://www.w3.org/2000/svg" xmlns:xlink="http://www.w3.org/1999/xlink" contentStyleType="text/css" height="1076px" preserveAspectRatio="none" style="width:706px;height:1076px;background:#FFFFFF;" version="1.1" viewBox="0 0 706 1076" width="706px" zoomAndPan="magnify"><defs/><g><!--cluster usecases--><g id="cluster_usecases"><rect fill="none" height="1063" rx="2.5" ry="2.5" style="stroke:#181818;stroke-width:1.0;" width="389" x="152" y="7"/><text fill="#000000" font-family="sans-serif" font-size="14" font-weight="bold" lengthAdjust="spacing" textLength="74" x="309.5" y="23.5332">Use Cases</text></g><g id="elem_UC01"><ellipse cx="346.2514" cy="375.8503" fill="#F1F1F1" rx="94.7514" ry="21.3503" style="stroke:#181818;stroke-width:0.5;"/><text fill="#000000" font-family="sans-serif" font-size="14" lengthAdjust="spacing" textLength="149" x="271.7514" y="379.5788">UC1 - User Registration</text></g><g id="elem_UC02"><ellipse cx="346.337" cy="454.9674" fill="#F1F1F1" rx="97.837" ry="21.9674" style="stroke:#181818;stroke-width:0.5;"/><text fill="#000000" font-family="sans-serif" font-size="14" lengthAdjust="spacing" textLength="156" x="268.337" y="458.6959">UC2 - To login in System</text></g><g id="elem_UC03"><ellipse cx="346.6077" cy="281.1215" fill="#F1F1F1" rx="178.6077" ry="38.1215" style="stroke:#181818;stroke-width:0.5;"/><text fill="#000000" font-family="sans-serif" font-size="14" lengthAdjust="spacing" textLength="328" x="182.6077" y="284.8501">UC3 - View the discussions list as Unregistered User</text></g><g id="elem_UC04"><ellipse cx="346.3297" cy="533.0659" fill="#F1F1F1" rx="90.8297" ry="20.5659" style="stroke:#181818;stroke-width:0.5;"/><text fill="#000000" font-family="sans-serif" font-size="14" lengthAdjust="spacing" textLength="140" x="276.3297" y="536.7945">UC4 - Create text post</text></g><g id="elem_UC05"><ellipse cx="346.337" cy="610.9674" fill="#F1F1F1" rx="97.837" ry="21.9674" style="stroke:#181818;stroke-width:0.5;"/><text fill="#000000" font-family="sans-serif" font-size="14" lengthAdjust="spacing" textLength="156" x="268.337" y="614.6959">UC5 - Create a comment</text></g><g id="elem_UC06"><ellipse cx="346.4716" cy="702.0943" fill="#F1F1F1" rx="155.9716" ry="33.5943" style="stroke:#181818;stroke-width:0.5;"/><text fill="#000000" font-family="sans-serif" font-size="14" lengthAdjust="spacing" textLength="281" x="205.9716" y="705.8228">UC6 - Reply directly to a post in a discussion</text></g><g id="elem_UC07"><ellipse cx="346.3193" cy="790.9639" fill="#F1F1F1" rx="87.8193" ry="19.9639" style="stroke:#181818;stroke-width:0.5;"/><text fill="#000000" font-family="sans-serif" font-size="14" lengthAdjust="spacing" textLength="133" x="279.8193" y="794.6924">UC7 - Post with a link</text></g><g id="elem_UC08"><ellipse cx="346.5948" cy="871.219" fill="#F1F1F1" rx="114.0948" ry="25.219" style="stroke:#181818;stroke-width:0.5;"/><text fill="#000000" font-family="sans-serif" font-size="14" lengthAdjust="spacing" textLength="192" x="250.5948" y="874.9475">UC8 - To vote on a Discussion</text></g><g id="elem_UC10"><ellipse cx="346.3675" cy="174.0735" fill="#F1F1F1" rx="158.3675" ry="34.0735" style="stroke:#181818;stroke-width:0.5;"/><text fill="#000000" font-family="sans-serif" font-size="14" lengthAdjust="spacing" textLength="286" x="203.3675" y="177.802">UC10 - Discussion's list ordered by popularity</text></g><g id="elem_UC11"><ellipse cx="346.5069" cy="948.9014" fill="#F1F1F1" rx="77.5069" ry="17.9014" style="stroke:#181818;stroke-width:0.5;"/><text fill="#000000" font-family="sans-serif" font-size="14" lengthAdjust="spacing" textLength="108" x="290.3567" y="953.216">UC11 - To logout</text></g><g id="elem_UC12"><ellipse cx="346.2783" cy="1027.9557" fill="#F1F1F1" rx="117.7783" ry="25.9557" style="stroke:#181818;stroke-width:0.5;"/><text fill="#000000" font-family="sans-serif" font-size="14" lengthAdjust="spacing" textLength="200" x="246.2783" y="1031.6842">UC12 - Access a discussion link</text></g><g id="elem_UC13"><ellipse cx="346.6476" cy="73.8295" fill="#F1F1F1" rx="142.1476" ry="30.8295" style="stroke:#181818;stroke-width:0.5;"/><text fill="#000000" font-family="sans-serif" font-size="14" lengthAdjust="spacing" textLength="252" x="220.6476" y="77.558">UC13 - Discussion's list ordered by date</text></g><!--entity RegisteredUser--><g id="elem_RegisteredUser"><ellipse cx="57" cy="626.5" fill="#F1F1F1" rx="8" ry="8" style="stroke:#181818;stroke-width:0.5;"/><path d="M57,634.5 L57,661.5 M44,642.5 L70,642.5 M57,661.5 L44,676.5 M57,661.5 L70,676.5 " fill="none" style="stroke:#181818;stroke-width:0.5;"/><text fill="#000000" font-family="sans-serif" font-size="14" lengthAdjust="spacing" textLength="102" x="6" y="692.5332">Registered User</text></g><!--entity UnregisteredUser--><g id="elem_UnregisteredUser"><ellipse cx="642" cy="197.5" fill="#F1F1F1" rx="8" ry="8" style="stroke:#181818;stroke-width:0.5;"/><path d="M642,205.5 L642,232.5 M629,213.5 L655,213.5 M642,232.5 L629,247.5 M642,232.5 L655,247.5 " fill="none" style="stroke:#181818;stroke-width:0.5;"/><text fill="#000000" font-family="sans-serif" font-size="14" lengthAdjust="spacing" textLength="114" x="585" y="263.5332">Unregistered User</text></g><!--link RegisteredUser to UC02--><g id="link_RegisteredUser_UC02"><path d="M68.19,617.86 C80.04,580.39 103.37,525.21 144,495 C173.91,472.76 212.98,462.01 248.74,457.08 " fill="none" id="RegisteredUser-UC02" style="stroke:#181818;stroke-width:1.0;"/></g><!--link RegisteredUser to UC04--><g id="link_RegisteredUser_UC04"><path d="M87.99,617.79 C102.99,600.85 122.53,582.34 144,571 C178.78,552.63 221.08,543.04 257.93,538.07 " fill="none" id="RegisteredUser-UC04" style="stroke:#181818;stroke-width:1.0;"/></g><!--link RegisteredUser to UC05--><g id="link_RegisteredUser_UC05"><path d="M108.08,648.99 C151.68,642.01 215.64,631.78 266.19,623.69 " fill="none" id="RegisteredUser-UC05" style="stroke:#181818;stroke-width:1.0;"/></g><!--link RegisteredUser to UC06--><g id="link_RegisteredUser_UC06"><path d="M108.08,664.84 C139.13,669.7 180.51,676.17 220.01,682.36 " fill="none" id="RegisteredUser-UC06" style="stroke:#181818;stroke-width:1.0;"/></g><!--link RegisteredUser to UC07--><g id="link_RegisteredUser_UC07"><path d="M83.74,696.38 C98.9,716.42 119.83,739.37 144,753 C179.04,772.76 222.41,782.47 259.92,787.17 " fill="none" id="RegisteredUser-UC07" style="stroke:#181818;stroke-width:1.0;"/></g><!--link RegisteredUser to UC08--><g id="link_RegisteredUser_UC08"><path d="M67.14,696.29 C78.41,735.73 101.52,795.2 144,828 C169.98,848.06 203.22,859.26 235.18,865.38 " fill="none" id="RegisteredUser-UC08" style="stroke:#181818;stroke-width:1.0;"/></g><!--link RegisteredUser to UC10--><g id="link_RegisteredUser_UC10"><path d="M60.55,617.77 C67.57,522.3 90.28,281.55 144,225 C160.09,208.06 180.93,196.43 203.09,188.5 " fill="none" id="RegisteredUser-UC10" style="stroke:#181818;stroke-width:1.0;"/></g><!--link RegisteredUser to UC11--><g id="link_RegisteredUser_UC11"><path d="M59.31,696.24 C63.45,753.13 79.92,857.72 144,913 C178.58,942.83 229.21,951.78 271.07,953.3 " fill="none" id="RegisteredUser-UC11" style="stroke:#181818;stroke-width:1.0;"/></g><!--link RegisteredUser to UC12--><g id="link_RegisteredUser_UC12"><path d="M63.16,696.21 C74.2,774.09 102.53,944.24 144,984 C167,1006.05 198.37,1018.09 229.5,1024.41 " fill="none" id="RegisteredUser-UC12" style="stroke:#181818;stroke-width:1.0;"/></g><!--link RegisteredUser to UC13--><g id="link_RegisteredUser_UC13"><path d="M58.85,617.61 C62.05,506.53 76.96,194.23 144,122 C161.74,102.89 185.59,90.76 210.67,83.18 " fill="none" id="RegisteredUser-UC13" style="stroke:#181818;stroke-width:1.0;"/></g><!--link UC01 to UnregisteredUser--><g id="link_UC01_UnregisteredUser"><path d="M438.86,370.82 C475.1,365.56 515.93,355.4 549,336 C577.36,319.36 601.16,290.7 617.45,267.09 " fill="none" id="UC01-UnregisteredUser" style="stroke:#181818;stroke-width:1.0;"/></g><!--link UC03 to UnregisteredUser--><g id="link_UC03_UnregisteredUser"><path d="M483.08,256.52 C518.98,250.03 555.77,243.39 584.8,238.15 " fill="none" id="UC03-UnregisteredUser" style="stroke:#181818;stroke-width:1.0;"/></g><!--link UC10 to UnregisteredUser--><g id="link_UC10_UnregisteredUser"><path d="M467.3,196.04 C508.04,203.54 551.64,211.56 584.97,217.69 " fill="none" id="UC10-UnregisteredUser" style="stroke:#181818;stroke-width:1.0;"/></g><!--link UC13 to UnregisteredUser--><g id="link_UC13_UnregisteredUser"><path d="M468.43,89.99 C496.22,97.07 524.71,107.27 549,122 C576.4,138.61 599.93,166.12 616.33,188.96 " fill="none" id="UC13-UnregisteredUser" style="stroke:#181818;stroke-width:1.0;"/></g><!--SRC=[XPFBZfim58RtVegZsMI550-vRIlw0DLSkdVD6R1YR6IRIL7LT- -1G4XDh8c81Fw_S_rXuy_AjCA91XfhhAoTRH22wv0jIYlaMLJu6dgDu506OIgDRBCGlXQblIXJmOVG7XdJ-14WM72ggWEKQeXIrZ36X0pMmTCBLie7T5Z2kqVt1CB3SZOSpUIxSG_O-zEHPhV6ACGZ5CAZ7z7EenmUu0y3-asFH1KSiZ7ZLDc9eSTh-cBBO_gPw3SBsbRA05slFPLlPlmvndF2VogyGAYHDk1bvpsbzw2fL3p2tM35DezJxIXLuL04iWP_1sYj3pEyY-7z0WkGjcdGtE1z31y8Vi5MzvD7T4EkYR72CAEuwtnESeYJ72d9Zo7Wea9D8LgPymmVO_XqtUAdfVxiKE3xgi1fvTEMWXPkC-tGkdBStQ-U-cqxBPmA_PI4RrT9-Cq_syqRuIkN-M3pDodH-_-clv-Ahypc-LSTbcJ873uQFF-ZrnwoR7cT7agxjBHFIuUqT4nBfwGqBVYXnDDIUYxQ2ek_QiYwDhj-Z4afJqhKObBAsL_s3m00]--></g></svg>