<?xml version="1.0" encoding="us-ascii" standalone="no"?><svg xmlns="http://www.w3.org/2000/svg" xmlns:xlink="http://www.w3.org/1999/xlink" contentStyleType="text/css" height="378px" preserveAspectRatio="none" style="width:615px;height:378px;background:#FFFFFF;" version="1.1" viewBox="0 0 615 378" width="615px" zoomAndPan="magnify"><defs/><g><text fill="#000000" font-family="sans-serif" font-size="14" font-weight="bold" lengthAdjust="spacing" textLength="321" x="146.25" y="29.5332">SSD US 013 - Discussion's list ordered by date</text><rect fill="#FFFFFF" height="152.7578" style="stroke:#181818;stroke-width:1.0;" width="10" x="122.5" y="132.2188"/><rect fill="#FFFFFF" height="130.4063" style="stroke:#181818;stroke-width:1.0;" width="10" x="572.5" y="154.5703"/><line style="stroke:#181818;stroke-width:0.5;stroke-dasharray:5.0,5.0;" x1="127" x2="127" y1="122.2188" y2="293.9766"/><line style="stroke:#181818;stroke-width:0.5;stroke-dasharray:5.0,5.0;" x1="577.5" x2="577.5" y1="122.2188" y2="293.9766"/><text fill="#000000" font-family="sans-serif" font-size="14" lengthAdjust="spacing" textLength="239" x="5" y="119.1426">RegisteredUser (or UnregisteredUser)</text><ellipse cx="127.5" cy="60.1094" fill="#E3E3E3" rx="16" ry="16" style="stroke:#181818;stroke-width:0.5;"/><path d="M127.5,80.1094 C131.5,80.1094 134.5,80.1094 138.5,76.1094 C146.5,76.1094 154.5,84.1094 154.5,92.1094 L154.5,96.1094 C154.5,100.1094 150.5,104.1094 146.5,104.1094 L108.5,104.1094 C104.5,104.1094 100.5,100.1094 100.5,96.1094 L100.5,92.1094 C100.5,84.1094 108.5,76.1094 116.5,76.1094 C120.5,80.1094 123.5,80.1094 127.5,80.1094 " fill="#E3E3E3" style="stroke:#181818;stroke-width:0.5;"/><text fill="#000000" font-family="sans-serif" font-size="14" lengthAdjust="spacing" textLength="239" x="5" y="307.5098">RegisteredUser (or UnregisteredUser)</text><ellipse cx="127.5" cy="327.0859" fill="#E3E3E3" rx="16" ry="16" style="stroke:#181818;stroke-width:0.5;"/><path d="M127.5,347.0859 C131.5,347.0859 134.5,347.0859 138.5,343.0859 C146.5,343.0859 154.5,351.0859 154.5,359.0859 L154.5,363.0859 C154.5,367.0859 150.5,371.0859 146.5,371.0859 L108.5,371.0859 C104.5,371.0859 100.5,367.0859 100.5,363.0859 L100.5,359.0859 C100.5,351.0859 108.5,343.0859 116.5,343.0859 C120.5,347.0859 123.5,347.0859 127.5,347.0859 " fill="#E3E3E3" style="stroke:#181818;stroke-width:0.5;"/><rect fill="#E3E3E3" height="31.6094" rx="2.5" ry="2.5" style="stroke:#181818;stroke-width:0.5;" width="64" x="545.5" y="89.6094"/><text fill="#000000" font-family="sans-serif" font-size="14" lengthAdjust="spacing" textLength="50" x="552.5" y="111.1426">:System</text><rect fill="#E3E3E3" height="31.6094" rx="2.5" ry="2.5" style="stroke:#181818;stroke-width:0.5;" width="64" x="545.5" y="292.9766"/><text fill="#000000" font-family="sans-serif" font-size="14" lengthAdjust="spacing" textLength="50" x="552.5" y="314.5098">:System</text><rect fill="#FFFFFF" height="152.7578" style="stroke:#181818;stroke-width:1.0;" width="10" x="122.5" y="132.2188"/><rect fill="#FFFFFF" height="130.4063" style="stroke:#181818;stroke-width:1.0;" width="10" x="572.5" y="154.5703"/><polygon fill="#181818" points="560.5,150.5703,570.5,154.5703,560.5,158.5703,564.5,154.5703" style="stroke:#181818;stroke-width:1.0;"/><line style="stroke:#181818;stroke-width:1.0;" x1="132.5" x2="566.5" y1="154.5703" y2="154.5703"/><text fill="#000000" font-family="sans-serif" font-size="13" font-weight="bold" lengthAdjust="spacing" textLength="7" x="139.5" y="149.7139">1</text><text fill="#000000" font-family="sans-serif" font-size="13" lengthAdjust="spacing" textLength="121" x="150.5" y="149.7139">starts the application</text><polygon fill="#181818" points="560.5,180.9219,570.5,184.9219,560.5,188.9219,564.5,184.9219" style="stroke:#181818;stroke-width:1.0;"/><line style="stroke:#181818;stroke-width:1.0;stroke-dasharray:2.0,2.0;" x1="132.5" x2="566.5" y1="184.9219" y2="184.9219"/><text fill="#000000" font-family="sans-serif" font-size="13" font-weight="bold" lengthAdjust="spacing" textLength="7" x="139.5" y="180.0654">2</text><text fill="#000000" font-family="sans-serif" font-size="13" lengthAdjust="spacing" textLength="147" x="150.5" y="180.0654">requests "discussion list"</text><polygon fill="#181818" points="143.5,211.2734,133.5,215.2734,143.5,219.2734,139.5,215.2734" style="stroke:#181818;stroke-width:1.0;"/><line style="stroke:#181818;stroke-width:1.0;" x1="137.5" x2="571.5" y1="215.2734" y2="215.2734"/><text fill="#000000" font-family="sans-serif" font-size="13" font-weight="bold" lengthAdjust="spacing" textLength="7" x="149.5" y="210.417">3</text><text fill="#000000" font-family="sans-serif" font-size="13" lengthAdjust="spacing" textLength="336" x="160.5" y="210.417">Displays homepage (Discussions list sorted by popularity)</text><polygon fill="#181818" points="560.5,241.625,570.5,245.625,560.5,249.625,564.5,245.625" style="stroke:#181818;stroke-width:1.0;"/><line style="stroke:#181818;stroke-width:1.0;stroke-dasharray:2.0,2.0;" x1="132.5" x2="566.5" y1="245.625" y2="245.625"/><text fill="#000000" font-family="sans-serif" font-size="13" font-weight="bold" lengthAdjust="spacing" textLength="7" x="139.5" y="240.7686">4</text><text fill="#000000" font-family="sans-serif" font-size="13" lengthAdjust="spacing" textLength="234" x="150.5" y="240.7686">requests "discussion list sorted by date"</text><polygon fill="#181818" points="143.5,271.9766,133.5,275.9766,143.5,279.9766,139.5,275.9766" style="stroke:#181818;stroke-width:1.0;"/><line style="stroke:#181818;stroke-width:1.0;" x1="137.5" x2="571.5" y1="275.9766" y2="275.9766"/><text fill="#000000" font-family="sans-serif" font-size="13" font-weight="bold" lengthAdjust="spacing" textLength="7" x="149.5" y="271.1201">5</text><text fill="#000000" font-family="sans-serif" font-size="13" lengthAdjust="spacing" textLength="405" x="160.5" y="271.1201">Displays homepage (Discussions list sorted by date (newest-&gt;oldest))</text><!--SRC=[fL7BReGm3Bpp5HQNmc6bLhrnsDD-GH4Vu0qkH1kID3PTyVTrO1_qLgadE_RCs9xmnVg82IUOWWzcJ64Ya3HJmOzEH7F1WLfP744Y8-W7jmVmY7suMZ_09phUTz18I1iHhyGgNXHYHPzjUuAkXTUtTpZ0oRAPcMtmBmpEia18FINguRn0Zw8id2NuUJfJqZohGlb1Wq8ph6DAK6cjy-bNiIu16N9Mw49YZOte1SgcNHGqhTqjNLNjjyxQu0Mi4Gx76w015fLWa56FYT5PWw8RA_31l4i1tDaxUgAlcLW5olvnxdfigVWDbATbNfCTYGuNXb4zY-e-L4-JRXvnIB9P54ES7IOhI_rS_2-ZTnhPvlzlabMWygIVBOTZSBt6kYv-0000]--></g></svg>