<?xml version="1.0" encoding="us-ascii" standalone="no"?><svg xmlns="http://www.w3.org/2000/svg" xmlns:xlink="http://www.w3.org/1999/xlink" contentStyleType="text/css" height="1163px" preserveAspectRatio="none" style="width:576px;height:1163px;background:#FFFFFF;" version="1.1" viewBox="0 0 576 1163" width="576px" zoomAndPan="magnify"><defs/><g><!--cluster actors--><g id="cluster_actors"><rect fill="none" height="243" rx="2.5" ry="2.5" style="stroke:#181818;stroke-width:1.0;" width="146" x="7" y="568"/><text fill="#000000" font-family="sans-serif" font-size="14" font-weight="bold" lengthAdjust="spacing" textLength="99" x="30.5" y="584.5332">System Actors</text></g><!--cluster usecases--><g id="cluster_usecases"><rect fill="none" height="1150" rx="2.5" ry="2.5" style="stroke:#181818;stroke-width:1.0;" width="389" x="181" y="7"/><text fill="#000000" font-family="sans-serif" font-size="14" font-weight="bold" lengthAdjust="spacing" textLength="74" x="338.5" y="23.5332">Use Cases</text></g><!--entity RegisteredUser--><g id="elem_RegisteredUser"><ellipse cx="80" cy="612.5" fill="#F1F1F1" rx="8" ry="8" style="stroke:#181818;stroke-width:0.5;"/><path d="M80,620.5 L80,647.5 M67,628.5 L93,628.5 M80,647.5 L67,662.5 M80,647.5 L93,662.5 " fill="none" style="stroke:#181818;stroke-width:0.5;"/><text fill="#000000" font-family="sans-serif" font-size="14" lengthAdjust="spacing" textLength="102" x="29" y="678.5332">Registered User</text></g><!--entity UnregisteredUser--><g id="elem_UnregisteredUser"><ellipse cx="80" cy="725.5" fill="#F1F1F1" rx="8" ry="8" style="stroke:#181818;stroke-width:0.5;"/><path d="M80,733.5 L80,760.5 M67,741.5 L93,741.5 M80,760.5 L67,775.5 M80,760.5 L93,775.5 " fill="none" style="stroke:#181818;stroke-width:0.5;"/><text fill="#000000" font-family="sans-serif" font-size="14" lengthAdjust="spacing" textLength="114" x="23" y="791.5332">Unregistered User</text></g><g id="elem_UC01"><ellipse cx="375.2514" cy="1007.8503" fill="#F1F1F1" rx="94.7514" ry="21.3503" style="stroke:#181818;stroke-width:0.5;"/><text fill="#000000" font-family="sans-serif" font-size="14" lengthAdjust="spacing" textLength="149" x="300.7514" y="1011.5788">UC1 - User Registration</text></g><g id="elem_UC02"><ellipse cx="375.337" cy="222.9674" fill="#F1F1F1" rx="97.837" ry="21.9674" style="stroke:#181818;stroke-width:0.5;"/><text fill="#000000" font-family="sans-serif" font-size="14" lengthAdjust="spacing" textLength="156" x="297.337" y="226.6959">UC2 - To login in System</text></g><g id="elem_UC03"><ellipse cx="375.6077" cy="1103.1215" fill="#F1F1F1" rx="178.6077" ry="38.1215" style="stroke:#181818;stroke-width:0.5;"/><text fill="#000000" font-family="sans-serif" font-size="14" lengthAdjust="spacing" textLength="328" x="211.6077" y="1106.8501">UC3 - View the discussions list as Unregistered User</text></g><g id="elem_UC04"><ellipse cx="375.3449" cy="302.769" fill="#F1F1F1" rx="101.8449" ry="22.769" style="stroke:#181818;stroke-width:0.5;"/><text fill="#000000" font-family="sans-serif" font-size="14" lengthAdjust="spacing" textLength="165" x="292.8449" y="306.4975">UC4 - Create a discussion</text></g><g id="elem_UC05"><ellipse cx="375.337" cy="382.9674" fill="#F1F1F1" rx="97.837" ry="21.9674" style="stroke:#181818;stroke-width:0.5;"/><text fill="#000000" font-family="sans-serif" font-size="14" lengthAdjust="spacing" textLength="156" x="297.337" y="386.6959">UC5 - Create a comment</text></g><g id="elem_UC06"><ellipse cx="375.4716" cy="474.0943" fill="#F1F1F1" rx="155.9716" ry="33.5943" style="stroke:#181818;stroke-width:0.5;"/><text fill="#000000" font-family="sans-serif" font-size="14" lengthAdjust="spacing" textLength="281" x="234.9716" y="477.8228">UC6 - Reply directly to a post in a discussion</text></g><g id="elem_UC07"><ellipse cx="375.3193" cy="562.9639" fill="#F1F1F1" rx="87.8193" ry="19.9639" style="stroke:#181818;stroke-width:0.5;"/><text fill="#000000" font-family="sans-serif" font-size="14" lengthAdjust="spacing" textLength="133" x="308.8193" y="566.6924">UC7 - Post with a link</text></g><g id="elem_UC08"><ellipse cx="375.5948" cy="643.219" fill="#F1F1F1" rx="114.0948" ry="25.219" style="stroke:#181818;stroke-width:0.5;"/><text fill="#000000" font-family="sans-serif" font-size="14" lengthAdjust="spacing" textLength="192" x="279.5948" y="646.9475">UC8 - To vote on a Discussion</text></g><g id="elem_UC09"><ellipse cx="375.7046" cy="726.9409" fill="#F1F1F1" rx="107.7046" ry="23.9409" style="stroke:#181818;stroke-width:0.5;"/><text fill="#000000" font-family="sans-serif" font-size="14" lengthAdjust="spacing" textLength="178" x="286.7046" y="730.6694">UC9 - To format discussions</text></g><g id="elem_UC10"><ellipse cx="375.3675" cy="917.0735" fill="#F1F1F1" rx="158.3675" ry="34.0735" style="stroke:#181818;stroke-width:0.5;"/><text fill="#000000" font-family="sans-serif" font-size="14" lengthAdjust="spacing" textLength="286" x="232.3675" y="920.802">UC10 - Discussion's list ordered by popularity</text></g><g id="elem_UC11"><ellipse cx="375.5069" cy="60.9014" fill="#F1F1F1" rx="77.5069" ry="17.9014" style="stroke:#181818;stroke-width:0.5;"/><text fill="#000000" font-family="sans-serif" font-size="14" lengthAdjust="spacing" textLength="108" x="319.3567" y="65.216">UC11 - To logout</text></g><g id="elem_UC12"><ellipse cx="375.2783" cy="139.9557" fill="#F1F1F1" rx="117.7783" ry="25.9557" style="stroke:#181818;stroke-width:0.5;"/><text fill="#000000" font-family="sans-serif" font-size="14" lengthAdjust="spacing" textLength="200" x="275.2783" y="143.6842">UC12 - Access a discussion link</text></g><g id="elem_UC13"><ellipse cx="375.6476" cy="816.8295" fill="#F1F1F1" rx="142.1476" ry="30.8295" style="stroke:#181818;stroke-width:0.5;"/><text fill="#000000" font-family="sans-serif" font-size="14" lengthAdjust="spacing" textLength="252" x="249.6476" y="820.558">UC13 - Discussion's list ordered by date</text></g><!--link UnregisteredUser to UC01--><g id="link_UnregisteredUser_UC01"><path d="M86.78,795.08 C96.08,843.4 119.13,924.55 173,968 C202.98,992.18 237.5746,1002.3497 274.4346,1006.8697 " fill="none" id="UnregisteredUser-to-UC01" style="stroke:#181818;stroke-width:1.0;"/><polygon fill="#181818" points="280.39,1007.6,271.9438,1002.5343,275.4272,1006.9914,270.9701,1010.4748,280.39,1007.6" style="stroke:#181818;stroke-width:1.0;"/></g><!--link RegisteredUser to UC02--><g id="link_RegisteredUser_UC02"><path d="M85.14,603.69 C95.18,516.14 123.67,309.12 173,262 C200.76,235.48 234.884,225.0181 272.004,221.0481 " fill="none" id="RegisteredUser-to-UC02" style="stroke:#181818;stroke-width:1.0;"/><polygon fill="#181818" points="277.97,220.41,268.5957,217.3898,272.9984,220.9417,269.4464,225.3444,277.97,220.41" style="stroke:#181818;stroke-width:1.0;"/></g><!--link UnregisteredUser to UC03--><g id="link_UnregisteredUser_UC03"><path d="M82.03,795.02 C85.84,857.26 102.48,978.92 173,1047 C188.67,1062.13 202.4941,1071.0343 223.0041,1079.1843 " fill="none" id="UnregisteredUser-to-UC03" style="stroke:#181818;stroke-width:1.0;"/><polygon fill="#181818" points="228.58,1081.4,221.6933,1074.3592,223.9334,1079.5536,218.739,1081.7937,228.58,1081.4" style="stroke:#181818;stroke-width:1.0;"/></g><!--link RegisteredUser to UC04--><g id="link_RegisteredUser_UC04"><path d="M80.98,603.99 C83.2,539.54 97.5,411.19 173,343 C200.13,318.5 231.8927,307.9933 267.3527,303.2633 " fill="none" id="RegisteredUser-to-UC04" style="stroke:#181818;stroke-width:1.0;"/><polygon fill="#181818" points="273.3,302.47,263.8501,299.6951,268.3439,303.1311,264.9079,307.6249,273.3,302.47" style="stroke:#181818;stroke-width:1.0;"/></g><!--link RegisteredUser to UC05--><g id="link_RegisteredUser_UC05"><path d="M86.1,603.78 C94.77,553.84 117.23,468.59 173,423 C202.06,399.24 235.3402,389.0342 271.4602,384.3342 " fill="none" id="RegisteredUser-to-UC05" style="stroke:#181818;stroke-width:1.0;"/><polygon fill="#181818" points="277.41,383.56,267.9691,380.7547,272.4518,384.2052,269.0014,388.6879,277.41,383.56" style="stroke:#181818;stroke-width:1.0;"/></g><!--link RegisteredUser to UC06--><g id="link_RegisteredUser_UC06"><path d="M102.14,603.95 C118.24,577.83 142.76,544.73 173,525 C194.98,510.65 214.9864,502.0076 240.5964,494.5976 " fill="none" id="RegisteredUser-to-UC06" style="stroke:#181818;stroke-width:1.0;"/><polygon fill="#181818" points="246.36,492.93,236.6029,491.5891,241.557,494.3197,238.8264,499.2739,246.36,492.93" style="stroke:#181818;stroke-width:1.0;"/></g><!--link RegisteredUser to UC07--><g id="link_RegisteredUser_UC07"><path d="M131.16,616.73 C144.49,610.54 159.06,604.46 173,600 C213.15,587.17 253.3696,579.2014 291.3696,573.3614 " fill="none" id="RegisteredUser-to-UC07" style="stroke:#181818;stroke-width:1.0;"/><polygon fill="#181818" points="297.3,572.45,287.7968,569.8635,292.358,573.2095,289.012,577.7707,297.3,572.45" style="stroke:#181818;stroke-width:1.0;"/></g><!--link RegisteredUser to UC08--><g id="link_RegisteredUser_UC08"><path d="M131.12,643 C166.81,643 210.23,643 255.22,643 " fill="none" id="RegisteredUser-to-UC08" style="stroke:#181818;stroke-width:1.0;"/><polygon fill="#181818" points="261.22,643,252.22,639,256.22,643,252.22,647,261.22,643" style="stroke:#181818;stroke-width:1.0;"/></g><!--link RegisteredUser to UC09--><g id="link_RegisteredUser_UC09"><path d="M131.29,668.4 C144.61,674.45 159.15,680.46 173,685 C209.67,697.03 245.3652,705.2616 281.2052,712.0616 " fill="none" id="RegisteredUser-to-UC09" style="stroke:#181818;stroke-width:1.0;"/><polygon fill="#181818" points="287.1,713.18,279.0034,707.5724,282.1876,712.248,277.5121,715.4322,287.1,713.18" style="stroke:#181818;stroke-width:1.0;"/></g><!--link RegisteredUser to UC10--><g id="link_RegisteredUser_UC10"><path d="M131.29,668.1 C142.94,676.33 153.97,686.61 161,699 C179.25,731.17 149.31,836.6 173,865 C187.98,882.96 202.6599,893.0689 224.6199,901.2789 " fill="none" id="RegisteredUser-to-UC10" style="stroke:#181818;stroke-width:1.0;"/><polygon fill="#181818" points="230.24,903.38,223.2106,896.4816,225.5566,901.6291,220.4091,903.975,230.24,903.38" style="stroke:#181818;stroke-width:1.0;"/></g><!--link UnregisteredUser to UC10--><g id="link_UnregisteredUser_UC10"><path d="M104.99,795.17 C121.37,818.74 145.12,847.47 173,865 C195.41,879.08 215.7289,887.6837 241.5389,895.1937 " fill="none" id="UnregisteredUser-to-UC10" style="stroke:#181818;stroke-width:1.0;"/><polygon fill="#181818" points="247.3,896.87,239.7759,890.5148,242.4991,895.4731,237.5408,898.1962,247.3,896.87" style="stroke:#181818;stroke-width:1.0;"/></g><!--link RegisteredUser to UC11--><g id="link_RegisteredUser_UC11"><path d="M81.92,603.71 C85.43,490.61 101.61,167.77 173,96 C206.43,62.39 253.79,54.3241 297.2,54.2941 " fill="none" id="RegisteredUser-to-UC11" style="stroke:#181818;stroke-width:1.0;"/><polygon fill="#181818" points="303.2,54.29,294.2,50.29,298.2,54.29,294.2,58.29,303.2,54.29" style="stroke:#181818;stroke-width:1.0;"/></g><!--link RegisteredUser to UC12--><g id="link_RegisteredUser_UC12"><path d="M83.44,603.68 C90.46,503.54 114.14,242.62 173,183 C195.37,160.34 220.6433,149.4003 251.7933,143.2603 " fill="none" id="RegisteredUser-to-UC12" style="stroke:#181818;stroke-width:1.0;"/><polygon fill="#181818" points="257.68,142.1,248.0763,139.916,252.7744,143.0669,249.6235,147.765,257.68,142.1" style="stroke:#181818;stroke-width:1.0;"/></g><!--link RegisteredUser to UC13--><g id="link_RegisteredUser_UC13"><path d="M131.3,669.18 C142.66,677.3 153.54,687.27 161,699 C177.7,725.27 151.73,745.27 173,768 C191.02,787.26 209.4772,797.7622 234.8572,805.4422 " fill="none" id="RegisteredUser-to-UC13" style="stroke:#181818;stroke-width:1.0;"/><polygon fill="#181818" points="240.6,807.18,233.1443,800.7448,235.8143,805.7318,230.8272,808.4019,240.6,807.18" style="stroke:#181818;stroke-width:1.0;"/></g><!--link UnregisteredUser to UC13--><g id="link_UnregisteredUser_UC13"><path d="M137.24,767.69 C175.36,775.61 220.9656,785.0889 266.2356,794.4989 " fill="none" id="UnregisteredUser-to-UC13" style="stroke:#181818;stroke-width:1.0;"/><polygon fill="#181818" points="272.11,795.72,264.1124,789.9721,267.2146,794.7024,262.4843,797.8047,272.11,795.72" style="stroke:#181818;stroke-width:1.0;"/></g><!--SRC=[XLJBRgCm5DtxAwwooIfI27bkAbNq0qRfj7lNt80LWv5j9aAZ-VUvl0erbA88OP_7VIfhUvTvmGtF8DEv5gdH6O8p9R81ARYuymHVNQKG30h7yqGXMmyCc_9OFsIUm8qhYumfl3bm6enCKWUnh5LIvunzoc7rMbc76JmBfurT0RV0cq_uou2UvW2hAoQIU0PZUBDe6jvmLr-DsM-vcU6FRnl5lo-9q1L4t6ARH6bHr8SkZUv8h2Y0JUFPnJUyBgaD46q3dxqZzcyDIYSo1_grvVRqdKyFYVukyG4kHMgO5QMrP6z1KIY_Y55fqJRqhVPa5Hda3e6Fh7h-tkSVndoXimnprvCFFlb8v2iMgkgcIXyqPmw5fZIfpBc8Hz_aH2Q_Qi53kfGaIkRtddpooUUsaNyqvQVh02-J06TVSsarDsqoxiRjx1MNoN2t91cSrrtZjOcRXdzKL65HAcwagpgJO3in2Jw7hik-Xy5aDO9wDvw5G6k_z6lSXs2o8K7uKuOnZR2NXupL1es9l_-msJmDEtkTnNQBod11kL_03WlOSG4xBM3d1UpoFTPDxviAEtHUkT2tRcppMBWOiKNR5_r3_GS0]--></g></svg>