<?xml version="1.0" encoding="us-ascii" standalone="no"?><svg xmlns="http://www.w3.org/2000/svg" xmlns:xlink="http://www.w3.org/1999/xlink" contentStyleType="text/css" height="395px" preserveAspectRatio="none" style="width:592px;height:395px;background:#FFFFFF;" version="1.1" viewBox="0 0 592 395" width="592px" zoomAndPan="magnify"><defs/><g><text fill="#000000" font-family="sans-serif" font-size="14" font-weight="bold" lengthAdjust="spacing" textLength="564" x="10" y="28.5352">As a user, I want to access the website through a link present in a discussion.</text><rect fill="#FFFFFF" height="176.8633" style="stroke:#181818;stroke-width:1.0;" width="10" x="52.75" y="128.9766"/><rect fill="#FFFFFF" height="29.3105" style="stroke:#181818;stroke-width:1.0;" width="10" x="507.75" y="150.2871"/><rect fill="#FFFFFF" height="58.6211" style="stroke:#181818;stroke-width:1.0;" width="10" x="507.75" y="238.2188"/><rect fill="#FFFFFF" height="29.3105" style="stroke:#181818;stroke-width:1.0;" width="10" x="512.75" y="267.5293"/><line style="stroke:#181818;stroke-width:0.5;stroke-dasharray:5.0,5.0;" x1="57.25" x2="57.25" y1="118.9766" y2="314.8398"/><line style="stroke:#181818;stroke-width:0.5;stroke-dasharray:5.0,5.0;" x1="512.75" x2="512.75" y1="118.9766" y2="314.8398"/><text fill="#000000" font-family="sans-serif" font-size="14" lengthAdjust="spacing" textLength="31" x="39.25" y="116.0234">User</text><ellipse cx="57.75" cy="50.9883" fill="#E3E3E3" rx="8" ry="8" style="stroke:#181818;stroke-width:0.5;"/><path d="M57.75,58.9883 L57.75,85.9883 M44.75,66.9883 L70.75,66.9883 M57.75,85.9883 L44.75,100.9883 M57.75,85.9883 L70.75,100.9883 " fill="none" style="stroke:#181818;stroke-width:0.5;"/><text fill="#000000" font-family="sans-serif" font-size="14" lengthAdjust="spacing" textLength="31" x="39.25" y="327.375">User</text><ellipse cx="57.75" cy="338.8281" fill="#E3E3E3" rx="8" ry="8" style="stroke:#181818;stroke-width:0.5;"/><path d="M57.75,346.8281 L57.75,373.8281 M44.75,354.8281 L70.75,354.8281 M57.75,373.8281 L44.75,388.8281 M57.75,373.8281 L70.75,388.8281 " fill="none" style="stroke:#181818;stroke-width:0.5;"/><rect fill="#E3E3E3" height="30.4883" rx="2.5" ry="2.5" style="stroke:#181818;stroke-width:0.5;" width="66" x="479.75" y="87.4883"/><text fill="#000000" font-family="sans-serif" font-size="14" lengthAdjust="spacing" textLength="52" x="486.75" y="108.0234">:System</text><rect fill="#E3E3E3" height="30.4883" rx="2.5" ry="2.5" style="stroke:#181818;stroke-width:0.5;" width="66" x="479.75" y="313.8398"/><text fill="#000000" font-family="sans-serif" font-size="14" lengthAdjust="spacing" textLength="52" x="486.75" y="334.375">:System</text><rect fill="#FFFFFF" height="176.8633" style="stroke:#181818;stroke-width:1.0;" width="10" x="52.75" y="128.9766"/><rect fill="#FFFFFF" height="29.3105" style="stroke:#181818;stroke-width:1.0;" width="10" x="507.75" y="150.2871"/><rect fill="#FFFFFF" height="58.6211" style="stroke:#181818;stroke-width:1.0;" width="10" x="507.75" y="238.2188"/><rect fill="#FFFFFF" height="29.3105" style="stroke:#181818;stroke-width:1.0;" width="10" x="512.75" y="267.5293"/><polygon fill="#181818" points="495.75,146.2871,505.75,150.2871,495.75,154.2871,499.75,150.2871" style="stroke:#181818;stroke-width:1.0;"/><line style="stroke:#181818;stroke-width:1.0;" x1="62.75" x2="501.75" y1="150.2871" y2="150.2871"/><text fill="#000000" font-family="sans-serif" font-size="13" font-weight="bold" lengthAdjust="spacing" textLength="9" x="69.75" y="145.5449">1</text><text fill="#000000" font-family="sans-serif" font-size="13" lengthAdjust="spacing" textLength="161" x="82.75" y="145.5449">Enter email and password</text><polygon fill="#181818" points="73.75,175.5977,63.75,179.5977,73.75,183.5977,69.75,179.5977" style="stroke:#181818;stroke-width:1.0;"/><line style="stroke:#181818;stroke-width:1.0;stroke-dasharray:2.0,2.0;" x1="67.75" x2="511.75" y1="179.5977" y2="179.5977"/><text fill="#000000" font-family="sans-serif" font-size="13" font-weight="bold" lengthAdjust="spacing" textLength="9" x="79.75" y="174.8555">2</text><text fill="#000000" font-family="sans-serif" font-size="13" lengthAdjust="spacing" textLength="168" x="92.75" y="174.8555">Check email and password</text><polygon fill="#181818" points="73.75,204.9082,63.75,208.9082,73.75,212.9082,69.75,208.9082" style="stroke:#181818;stroke-width:1.0;"/><line style="stroke:#181818;stroke-width:1.0;stroke-dasharray:2.0,2.0;" x1="67.75" x2="511.75" y1="208.9082" y2="208.9082"/><text fill="#000000" font-family="sans-serif" font-size="13" font-weight="bold" lengthAdjust="spacing" textLength="9" x="79.75" y="204.166">3</text><text fill="#000000" font-family="sans-serif" font-size="13" lengthAdjust="spacing" textLength="111" x="92.75" y="204.166">Grant user access</text><polygon fill="#181818" points="73.75,234.2188,63.75,238.2188,73.75,242.2188,69.75,238.2188" style="stroke:#181818;stroke-width:1.0;"/><line style="stroke:#181818;stroke-width:1.0;stroke-dasharray:2.0,2.0;" x1="67.75" x2="506.75" y1="238.2188" y2="238.2188"/><text fill="#000000" font-family="sans-serif" font-size="13" font-weight="bold" lengthAdjust="spacing" textLength="9" x="79.75" y="233.4766">4</text><text fill="#000000" font-family="sans-serif" font-size="13" lengthAdjust="spacing" textLength="238" x="92.75" y="233.4766">Shows discussions that contain a link</text><polygon fill="#181818" points="500.75,263.5293,510.75,267.5293,500.75,271.5293,504.75,267.5293" style="stroke:#181818;stroke-width:1.0;"/><line style="stroke:#181818;stroke-width:1.0;" x1="62.75" x2="506.75" y1="267.5293" y2="267.5293"/><text fill="#000000" font-family="sans-serif" font-size="13" font-weight="bold" lengthAdjust="spacing" textLength="9" x="69.75" y="262.7871">5</text><text fill="#000000" font-family="sans-serif" font-size="13" lengthAdjust="spacing" textLength="104" x="82.75" y="262.7871">Click on the link</text><polygon fill="#181818" points="73.75,292.8398,63.75,296.8398,73.75,300.8398,69.75,296.8398" style="stroke:#181818;stroke-width:1.0;"/><line style="stroke:#181818;stroke-width:1.0;stroke-dasharray:2.0,2.0;" x1="67.75" x2="506.75" y1="296.8398" y2="296.8398"/><text fill="#000000" font-family="sans-serif" font-size="13" font-weight="bold" lengthAdjust="spacing" textLength="9" x="79.75" y="292.0977">6</text><text fill="#000000" font-family="sans-serif" font-size="13" lengthAdjust="spacing" textLength="408" x="92.75" y="292.0977">Open a new browser tab with the page corresponding to the link.</text><!--SRC=[dLFBZjim3BpxAuXSjWMo-m4v52WMYwAd7eBUzi98Z2tOfbIINYD_NqfDqWUI0YrFUWndg26bO-A2WZFCcNCO9Cy49WjrUhqf64RiQM-dYK0e678__GhG0MDU4_Tmn4cfwooPGpyg82nAieNFi28RM0OCWLJ11eAL3fhCvLnrwGS7Jub7A49A3axi9p5fM5HJvgUkmyKoB_E1nDV1ii3cgzDl01LUvZBb4r7d9LaAgLIzpMv_KgEv8NuiMsPwGzUzfdJWSTd1uuSp57RmmaO2D6EQ03cw5QfhbjWohaGNPZZ7EVtHcQwiEtWUA8ptk6eytCxJ8Qzk6Ee8mTNwB8dKhL9xvKOaz6qXDOM8Xl1Ew4X276Zxof4qI2hc_lakyJ7BZ7K7lzyOXO5JmEcFyxX8WsyXPBNthTH8__ZmJr9xKGVXtFt_ezat7tuEH1qYD2-C3TkirEcvtvYR_NsUalV4xQZp-FVy-uLzALJbcLOuYDVexpGym9fiQBp5Fu-NAJxN9NEi_yG_maNnwRORtm40]--></g></svg>