<?xml version="1.0" encoding="us-ascii" standalone="no"?><svg xmlns="http://www.w3.org/2000/svg" xmlns:xlink="http://www.w3.org/1999/xlink" contentStyleType="text/css" height="378px" preserveAspectRatio="none" style="width:520px;height:378px;background:#FFFFFF;" version="1.1" viewBox="0 0 520 378" width="520px" zoomAndPan="magnify"><defs/><g><text fill="#000000" font-family="sans-serif" font-size="14" font-weight="bold" lengthAdjust="spacing" textLength="472" x="23.25" y="29.5332">SSD US 013 - To be able to see the discussion's list ordered by date</text><rect fill="#FFFFFF" height="152.7578" style="stroke:#181818;stroke-width:1.0;" width="10" x="27.5" y="132.2188"/><rect fill="#FFFFFF" height="130.4063" style="stroke:#181818;stroke-width:1.0;" width="10" x="477.5" y="154.5703"/><line style="stroke:#181818;stroke-width:0.5;stroke-dasharray:5.0,5.0;" x1="32" x2="32" y1="122.2188" y2="293.9766"/><line style="stroke:#181818;stroke-width:0.5;stroke-dasharray:5.0,5.0;" x1="482.5" x2="482.5" y1="122.2188" y2="293.9766"/><text fill="#000000" font-family="sans-serif" font-size="14" lengthAdjust="spacing" textLength="29" x="15" y="119.1426">User</text><ellipse cx="32.5" cy="60.1094" fill="#E3E3E3" rx="16" ry="16" style="stroke:#181818;stroke-width:0.5;"/><path d="M32.5,80.1094 C36.5,80.1094 39.5,80.1094 43.5,76.1094 C51.5,76.1094 59.5,84.1094 59.5,92.1094 L59.5,96.1094 C59.5,100.1094 55.5,104.1094 51.5,104.1094 L13.5,104.1094 C9.5,104.1094 5.5,100.1094 5.5,96.1094 L5.5,92.1094 C5.5,84.1094 13.5,76.1094 21.5,76.1094 C25.5,80.1094 28.5,80.1094 32.5,80.1094 " fill="#E3E3E3" style="stroke:#181818;stroke-width:0.5;"/><text fill="#000000" font-family="sans-serif" font-size="14" lengthAdjust="spacing" textLength="29" x="15" y="307.5098">User</text><ellipse cx="32.5" cy="327.0859" fill="#E3E3E3" rx="16" ry="16" style="stroke:#181818;stroke-width:0.5;"/><path d="M32.5,347.0859 C36.5,347.0859 39.5,347.0859 43.5,343.0859 C51.5,343.0859 59.5,351.0859 59.5,359.0859 L59.5,363.0859 C59.5,367.0859 55.5,371.0859 51.5,371.0859 L13.5,371.0859 C9.5,371.0859 5.5,367.0859 5.5,363.0859 L5.5,359.0859 C5.5,351.0859 13.5,343.0859 21.5,343.0859 C25.5,347.0859 28.5,347.0859 32.5,347.0859 " fill="#E3E3E3" style="stroke:#181818;stroke-width:0.5;"/><rect fill="#E3E3E3" height="31.6094" rx="2.5" ry="2.5" style="stroke:#181818;stroke-width:0.5;" width="64" x="450.5" y="89.6094"/><text fill="#000000" font-family="sans-serif" font-size="14" lengthAdjust="spacing" textLength="50" x="457.5" y="111.1426">:System</text><rect fill="#E3E3E3" height="31.6094" rx="2.5" ry="2.5" style="stroke:#181818;stroke-width:0.5;" width="64" x="450.5" y="292.9766"/><text fill="#000000" font-family="sans-serif" font-size="14" lengthAdjust="spacing" textLength="50" x="457.5" y="314.5098">:System</text><rect fill="#FFFFFF" height="152.7578" style="stroke:#181818;stroke-width:1.0;" width="10" x="27.5" y="132.2188"/><rect fill="#FFFFFF" height="130.4063" style="stroke:#181818;stroke-width:1.0;" width="10" x="477.5" y="154.5703"/><polygon fill="#181818" points="465.5,150.5703,475.5,154.5703,465.5,158.5703,469.5,154.5703" style="stroke:#181818;stroke-width:1.0;"/><line style="stroke:#181818;stroke-width:1.0;" x1="37.5" x2="471.5" y1="154.5703" y2="154.5703"/><text fill="#000000" font-family="sans-serif" font-size="13" font-weight="bold" lengthAdjust="spacing" textLength="7" x="44.5" y="149.7139">1</text><text fill="#000000" font-family="sans-serif" font-size="13" lengthAdjust="spacing" textLength="121" x="55.5" y="149.7139">starts the application</text><polygon fill="#181818" points="465.5,180.9219,475.5,184.9219,465.5,188.9219,469.5,184.9219" style="stroke:#181818;stroke-width:1.0;"/><line style="stroke:#181818;stroke-width:1.0;stroke-dasharray:2.0,2.0;" x1="37.5" x2="471.5" y1="184.9219" y2="184.9219"/><text fill="#000000" font-family="sans-serif" font-size="13" font-weight="bold" lengthAdjust="spacing" textLength="7" x="44.5" y="180.0654">2</text><text fill="#000000" font-family="sans-serif" font-size="13" lengthAdjust="spacing" textLength="147" x="55.5" y="180.0654">requests "discussion list"</text><polygon fill="#181818" points="48.5,211.2734,38.5,215.2734,48.5,219.2734,44.5,215.2734" style="stroke:#181818;stroke-width:1.0;"/><line style="stroke:#181818;stroke-width:1.0;" x1="42.5" x2="476.5" y1="215.2734" y2="215.2734"/><text fill="#000000" font-family="sans-serif" font-size="13" font-weight="bold" lengthAdjust="spacing" textLength="7" x="54.5" y="210.417">3</text><text fill="#000000" font-family="sans-serif" font-size="13" lengthAdjust="spacing" textLength="336" x="65.5" y="210.417">Displays homepage (Discussions list sorted by popularity)</text><polygon fill="#181818" points="465.5,241.625,475.5,245.625,465.5,249.625,469.5,245.625" style="stroke:#181818;stroke-width:1.0;"/><line style="stroke:#181818;stroke-width:1.0;stroke-dasharray:2.0,2.0;" x1="37.5" x2="471.5" y1="245.625" y2="245.625"/><text fill="#000000" font-family="sans-serif" font-size="13" font-weight="bold" lengthAdjust="spacing" textLength="7" x="44.5" y="240.7686">4</text><text fill="#000000" font-family="sans-serif" font-size="13" lengthAdjust="spacing" textLength="234" x="55.5" y="240.7686">requests "discussion list sorted by date"</text><polygon fill="#181818" points="48.5,271.9766,38.5,275.9766,48.5,279.9766,44.5,275.9766" style="stroke:#181818;stroke-width:1.0;"/><line style="stroke:#181818;stroke-width:1.0;" x1="42.5" x2="476.5" y1="275.9766" y2="275.9766"/><text fill="#000000" font-family="sans-serif" font-size="13" font-weight="bold" lengthAdjust="spacing" textLength="7" x="54.5" y="271.1201">5</text><text fill="#000000" font-family="sans-serif" font-size="13" lengthAdjust="spacing" textLength="405" x="65.5" y="271.1201">Displays homepage (Discussions list sorted by date (newest-&gt;oldest))</text><!--SRC=[fL6xRiCm3Dpz5GSlJOO0BRfbo9G_SFC1jCt6GcH94Ua6_llITXuU2tGY9TuTJoUvk90eKuy-XjXqEVOCpGCNyfmaQYvqvaf7pyZSA8MpNmEaepRUN3ZZcxoi9zHep0kHRYmcNXJgr8vLTSIfmll79tRuYgWDKTkzHWXRwHYjasOGSJ6y2RmJHSmjPsvHZsX9JOi6ZM7eQyxMJxjGdeHp2H9CJM4sr3KkKL2K-seKvNwUBktCSZ-cjS0Bp1MxmnsmXwX9o6o8KlAk8JL71dmo7rB0WxsYPxuEB2PGlfupFwOq_0AQjasyFOvEagTHq5bIoJB7vlXatJEGc7M98CKqUCfEn-tB-5zMhpIc6F_lP5B19h1ziUuEqRTMjzlY5m00]--></g></svg>