<?xml version="1.0" encoding="us-ascii" standalone="no"?><svg xmlns="http://www.w3.org/2000/svg" xmlns:xlink="http://www.w3.org/1999/xlink" contentStyleType="text/css" height="405px" preserveAspectRatio="none" style="width:499px;height:405px;background:#FFFFFF;" version="1.1" viewBox="0 0 499 405" width="499px" zoomAndPan="magnify"><defs/><g><text fill="#000000" font-family="sans-serif" font-size="14" font-weight="bold" lengthAdjust="spacing" textLength="352" x="75.25" y="29.5332">SSD US002: TO LOGIN IN SYSTEM - Alternative Two</text><rect fill="#FFFFFF" height="183.1094" style="stroke:#181818;stroke-width:1.0;" width="10" x="50" y="131.2188"/><rect fill="#FFFFFF" height="30.3516" style="stroke:#181818;stroke-width:1.0;" width="10" x="314" y="153.5703"/><rect fill="#FFFFFF" height="100.0547" style="stroke:#181818;stroke-width:1.0;" width="10" x="314" y="214.2734"/><rect fill="#FFFFFF" height="69.7031" style="stroke:#181818;stroke-width:1.0;" width="10" x="319" y="244.625"/><rect fill="#FFFFFF" height="30.3516" style="stroke:#181818;stroke-width:1.0;" width="10" x="324" y="274.9766"/><line style="stroke:#181818;stroke-width:0.5;stroke-dasharray:5.0,5.0;" x1="55" x2="55" y1="121.2188" y2="323.3281"/><line style="stroke:#181818;stroke-width:0.5;stroke-dasharray:5.0,5.0;" x1="319" x2="319" y1="121.2188" y2="323.3281"/><line style="stroke:#181818;stroke-width:0.5;stroke-dasharray:5.0,5.0;" x1="462.5" x2="462.5" y1="121.2188" y2="323.3281"/><text fill="#000000" font-family="sans-serif" font-size="14" lengthAdjust="spacing" textLength="94" x="5" y="118.1426">Registred User</text><ellipse cx="55" cy="52.1094" fill="#E3E3E3" rx="8" ry="8" style="stroke:#181818;stroke-width:0.5;"/><path d="M55,60.1094 L55,87.1094 M42,68.1094 L68,68.1094 M55,87.1094 L42,102.1094 M55,87.1094 L68,102.1094 " fill="none" style="stroke:#181818;stroke-width:0.5;"/><text fill="#000000" font-family="sans-serif" font-size="14" lengthAdjust="spacing" textLength="94" x="5" y="336.8613">Registred User</text><ellipse cx="55" cy="348.4375" fill="#E3E3E3" rx="8" ry="8" style="stroke:#181818;stroke-width:0.5;"/><path d="M55,356.4375 L55,383.4375 M42,364.4375 L68,364.4375 M55,383.4375 L42,398.4375 M55,383.4375 L68,398.4375 " fill="none" style="stroke:#181818;stroke-width:0.5;"/><rect fill="#E3E3E3" height="31.6094" rx="2.5" ry="2.5" style="stroke:#181818;stroke-width:0.5;" width="64" x="287" y="88.6094"/><text fill="#000000" font-family="sans-serif" font-size="14" lengthAdjust="spacing" textLength="50" x="294" y="110.1426">:System</text><rect fill="#E3E3E3" height="31.6094" rx="2.5" ry="2.5" style="stroke:#181818;stroke-width:0.5;" width="64" x="287" y="322.3281"/><text fill="#000000" font-family="sans-serif" font-size="14" lengthAdjust="spacing" textLength="50" x="294" y="343.8613">:System</text><text fill="#000000" font-family="sans-serif" font-size="14" lengthAdjust="spacing" textLength="65" x="427.5" y="118.1426">:Database</text><path d="M445,67.6094 C445,57.6094 463,57.6094 463,57.6094 C463,57.6094 481,57.6094 481,67.6094 L481,93.6094 C481,103.6094 463,103.6094 463,103.6094 C463,103.6094 445,103.6094 445,93.6094 L445,67.6094 " fill="#E3E3E3" style="stroke:#181818;stroke-width:1.5;"/><path d="M445,67.6094 C445,77.6094 463,77.6094 463,77.6094 C463,77.6094 481,77.6094 481,67.6094 " fill="none" style="stroke:#181818;stroke-width:1.5;"/><text fill="#000000" font-family="sans-serif" font-size="14" lengthAdjust="spacing" textLength="65" x="427.5" y="336.8613">:Database</text><path d="M445,349.9375 C445,339.9375 463,339.9375 463,339.9375 C463,339.9375 481,339.9375 481,349.9375 L481,375.9375 C481,385.9375 463,385.9375 463,385.9375 C463,385.9375 445,385.9375 445,375.9375 L445,349.9375 " fill="#E3E3E3" style="stroke:#181818;stroke-width:1.5;"/><path d="M445,349.9375 C445,359.9375 463,359.9375 463,359.9375 C463,359.9375 481,359.9375 481,349.9375 " fill="none" style="stroke:#181818;stroke-width:1.5;"/><rect fill="#FFFFFF" height="183.1094" style="stroke:#181818;stroke-width:1.0;" width="10" x="50" y="131.2188"/><rect fill="#FFFFFF" height="30.3516" style="stroke:#181818;stroke-width:1.0;" width="10" x="314" y="153.5703"/><rect fill="#FFFFFF" height="100.0547" style="stroke:#181818;stroke-width:1.0;" width="10" x="314" y="214.2734"/><rect fill="#FFFFFF" height="69.7031" style="stroke:#181818;stroke-width:1.0;" width="10" x="319" y="244.625"/><rect fill="#FFFFFF" height="30.3516" style="stroke:#181818;stroke-width:1.0;" width="10" x="324" y="274.9766"/><polygon fill="#181818" points="302,149.5703,312,153.5703,302,157.5703,306,153.5703" style="stroke:#181818;stroke-width:1.0;"/><line style="stroke:#181818;stroke-width:1.0;" x1="60" x2="308" y1="153.5703" y2="153.5703"/><text fill="#000000" font-family="sans-serif" font-size="13" font-weight="bold" lengthAdjust="spacing" textLength="7" x="67" y="148.7139">1</text><text fill="#000000" font-family="sans-serif" font-size="13" lengthAdjust="spacing" textLength="141" x="78" y="148.7139">wants to login in system</text><polygon fill="#181818" points="71,179.9219,61,183.9219,71,187.9219,67,183.9219" style="stroke:#181818;stroke-width:1.0;"/><line style="stroke:#181818;stroke-width:1.0;stroke-dasharray:2.0,2.0;" x1="65" x2="318" y1="183.9219" y2="183.9219"/><text fill="#000000" font-family="sans-serif" font-size="13" font-weight="bold" lengthAdjust="spacing" textLength="7" x="77" y="179.0654">2</text><text fill="#000000" font-family="sans-serif" font-size="13" lengthAdjust="spacing" textLength="219" x="88" y="179.0654">requests data (username + password)</text><polygon fill="#181818" points="302,210.2734,312,214.2734,302,218.2734,306,214.2734" style="stroke:#181818;stroke-width:1.0;"/><line style="stroke:#181818;stroke-width:1.0;" x1="60" x2="308" y1="214.2734" y2="214.2734"/><text fill="#000000" font-family="sans-serif" font-size="13" font-weight="bold" lengthAdjust="spacing" textLength="7" x="67" y="209.417">3</text><text fill="#000000" font-family="sans-serif" font-size="13" lengthAdjust="spacing" textLength="215" x="78" y="209.417">types incorrect username and submit</text><polygon fill="#181818" points="451,240.625,461,244.625,451,248.625,455,244.625" style="stroke:#181818;stroke-width:1.0;"/><line style="stroke:#181818;stroke-width:1.0;" x1="329" x2="457" y1="244.625" y2="244.625"/><text fill="#000000" font-family="sans-serif" font-size="13" font-weight="bold" lengthAdjust="spacing" textLength="7" x="336" y="239.7686">4</text><text fill="#000000" font-family="sans-serif" font-size="13" lengthAdjust="spacing" textLength="104" x="347" y="239.7686">verifies data in DB</text><polygon fill="#181818" points="345,270.9766,335,274.9766,345,278.9766,341,274.9766" style="stroke:#181818;stroke-width:1.0;"/><line style="stroke:#181818;stroke-width:1.0;stroke-dasharray:2.0,2.0;" x1="339" x2="462" y1="274.9766" y2="274.9766"/><text fill="#000000" font-family="sans-serif" font-size="13" font-weight="bold" lengthAdjust="spacing" textLength="7" x="351" y="270.1201">5</text><text fill="#000000" font-family="sans-serif" font-size="13" lengthAdjust="spacing" textLength="54" x="362" y="270.1201">no match</text><polygon fill="#181818" points="71,301.3281,61,305.3281,71,309.3281,67,305.3281" style="stroke:#181818;stroke-width:1.0;"/><line style="stroke:#181818;stroke-width:1.0;stroke-dasharray:2.0,2.0;" x1="65" x2="318" y1="305.3281" y2="305.3281"/><text fill="#000000" font-family="sans-serif" font-size="13" font-weight="bold" lengthAdjust="spacing" textLength="7" x="77" y="300.4717">6</text><text fill="#000000" font-family="sans-serif" font-size="13" lengthAdjust="spacing" textLength="175" x="88" y="300.4717">displays message of insucess</text><!--SRC=[bP9DQyCm38Rl_XMYfuqHA3lcKDZe68DjXQKzxAWwQceQsvcbjEJVJqcpCDW7c_51jgH7hz-43ouqcD23Zo7QVOgUG59BXgTCW_Q05HNIrGI9h62ewiy5lCSodboeO8Sraz4bJhIuA9QmAURpwnpMAtXStJyyW-xYjLZVFK46DxLG2YZkIB0-HMEmbHXQlwMaiPMOOFP2bMD9LCA6ASq0UGYCZXPdNOD1O9ON7Glv8NiEJOc2MsJIv78CX_J7OHZWZYXqvXdGrKUGBKO6v71IF8D4g6Fb0kZcCxwldW3ZoE6oNsDxfgI1cAjjRosnedfPSD5o_swr-ahTPJx5L5uEtILz2_sYIxg6MENOcFel0XCGGmdSRhsJlqbSJ8OezKZ9xHoDAlMnozjVALDhzbbRYE1HxFwV7fMEcnex1a_C-hz1tAa4RgqUV_B6l0C0]--></g></svg>