<?xml version="1.0" encoding="us-ascii" standalone="no"?><svg xmlns="http://www.w3.org/2000/svg" xmlns:xlink="http://www.w3.org/1999/xlink" contentStyleType="text/css" height="378px" preserveAspectRatio="none" style="width:546px;height:378px;background:#FFFFFF;" version="1.1" viewBox="0 0 546 378" width="546px" zoomAndPan="magnify"><defs/><g><text fill="#000000" font-family="sans-serif" font-size="14" font-weight="bold" lengthAdjust="spacing" textLength="321" x="111.5" y="29.5332">SSD US 013 - Discussion's list ordered by date</text><rect fill="#FFFFFF" height="152.7578" style="stroke:#181818;stroke-width:1.0;" width="10" x="58" y="132.2188"/><rect fill="#FFFFFF" height="30.3516" style="stroke:#181818;stroke-width:1.0;" width="10" x="503" y="154.5703"/><rect fill="#FFFFFF" height="30.3516" style="stroke:#181818;stroke-width:1.0;" width="10" x="503" y="215.2734"/><rect fill="#FFFFFF" height="9" style="stroke:#181818;stroke-width:1.0;" width="10" x="503" y="275.9766"/><line style="stroke:#181818;stroke-width:0.5;stroke-dasharray:5.0,5.0;" x1="63" x2="63" y1="122.2188" y2="293.9766"/><line style="stroke:#181818;stroke-width:0.5;stroke-dasharray:5.0,5.0;" x1="508" x2="508" y1="122.2188" y2="293.9766"/><text fill="#000000" font-family="sans-serif" font-size="14" lengthAdjust="spacing" textLength="110" x="5" y="119.1426">UnregisteredUser</text><ellipse cx="63" cy="60.1094" fill="#E3E3E3" rx="16" ry="16" style="stroke:#181818;stroke-width:0.5;"/><path d="M63,80.1094 C67,80.1094 70,80.1094 74,76.1094 C82,76.1094 90,84.1094 90,92.1094 L90,96.1094 C90,100.1094 86,104.1094 82,104.1094 L44,104.1094 C40,104.1094 36,100.1094 36,96.1094 L36,92.1094 C36,84.1094 44,76.1094 52,76.1094 C56,80.1094 59,80.1094 63,80.1094 " fill="#E3E3E3" style="stroke:#181818;stroke-width:0.5;"/><text fill="#000000" font-family="sans-serif" font-size="14" lengthAdjust="spacing" textLength="110" x="5" y="307.5098">UnregisteredUser</text><ellipse cx="63" cy="327.0859" fill="#E3E3E3" rx="16" ry="16" style="stroke:#181818;stroke-width:0.5;"/><path d="M63,347.0859 C67,347.0859 70,347.0859 74,343.0859 C82,343.0859 90,351.0859 90,359.0859 L90,363.0859 C90,367.0859 86,371.0859 82,371.0859 L44,371.0859 C40,371.0859 36,367.0859 36,363.0859 L36,359.0859 C36,351.0859 44,343.0859 52,343.0859 C56,347.0859 59,347.0859 63,347.0859 " fill="#E3E3E3" style="stroke:#181818;stroke-width:0.5;"/><rect fill="#E3E3E3" height="31.6094" rx="2.5" ry="2.5" style="stroke:#181818;stroke-width:0.5;" width="64" x="476" y="89.6094"/><text fill="#000000" font-family="sans-serif" font-size="14" lengthAdjust="spacing" textLength="50" x="483" y="111.1426">:System</text><rect fill="#E3E3E3" height="31.6094" rx="2.5" ry="2.5" style="stroke:#181818;stroke-width:0.5;" width="64" x="476" y="292.9766"/><text fill="#000000" font-family="sans-serif" font-size="14" lengthAdjust="spacing" textLength="50" x="483" y="314.5098">:System</text><rect fill="#FFFFFF" height="152.7578" style="stroke:#181818;stroke-width:1.0;" width="10" x="58" y="132.2188"/><rect fill="#FFFFFF" height="30.3516" style="stroke:#181818;stroke-width:1.0;" width="10" x="503" y="154.5703"/><rect fill="#FFFFFF" height="30.3516" style="stroke:#181818;stroke-width:1.0;" width="10" x="503" y="215.2734"/><rect fill="#FFFFFF" height="9" style="stroke:#181818;stroke-width:1.0;" width="10" x="503" y="275.9766"/><polygon fill="#181818" points="491,150.5703,501,154.5703,491,158.5703,495,154.5703" style="stroke:#181818;stroke-width:1.0;"/><line style="stroke:#181818;stroke-width:1.0;" x1="68" x2="497" y1="154.5703" y2="154.5703"/><text fill="#000000" font-family="sans-serif" font-size="13" font-weight="bold" lengthAdjust="spacing" textLength="7" x="75" y="149.7139">1</text><text fill="#000000" font-family="sans-serif" font-size="13" lengthAdjust="spacing" textLength="121" x="86" y="149.7139">starts the application</text><polygon fill="#181818" points="496,180.9219,506,184.9219,496,188.9219,500,184.9219" style="stroke:#181818;stroke-width:1.0;"/><line style="stroke:#181818;stroke-width:1.0;stroke-dasharray:2.0,2.0;" x1="68" x2="502" y1="184.9219" y2="184.9219"/><text fill="#000000" font-family="sans-serif" font-size="13" font-weight="bold" lengthAdjust="spacing" textLength="7" x="75" y="180.0654">2</text><text fill="#000000" font-family="sans-serif" font-size="13" lengthAdjust="spacing" textLength="228" x="86" y="180.0654">requests data (solid line - synchronous)</text><polygon fill="#181818" points="79,211.2734,69,215.2734,79,219.2734,75,215.2734" style="stroke:#181818;stroke-width:1.0;"/><line style="stroke:#181818;stroke-width:1.0;" x1="73" x2="502" y1="215.2734" y2="215.2734"/><text fill="#000000" font-family="sans-serif" font-size="13" font-weight="bold" lengthAdjust="spacing" textLength="7" x="85" y="210.417">3</text><text fill="#000000" font-family="sans-serif" font-size="13" lengthAdjust="spacing" textLength="336" x="96" y="210.417">Displays homepage (Discussions list sorted by popularity)</text><polygon fill="#181818" points="496,241.625,506,245.625,496,249.625,500,245.625" style="stroke:#181818;stroke-width:1.0;"/><line style="stroke:#181818;stroke-width:1.0;stroke-dasharray:2.0,2.0;" x1="68" x2="502" y1="245.625" y2="245.625"/><text fill="#000000" font-family="sans-serif" font-size="13" font-weight="bold" lengthAdjust="spacing" textLength="7" x="75" y="240.7686">4</text><text fill="#000000" font-family="sans-serif" font-size="13" lengthAdjust="spacing" textLength="340" x="86" y="240.7686">Requests data organized by date (solid line - synchronous)</text><polygon fill="#181818" points="79,271.9766,69,275.9766,79,279.9766,75,275.9766" style="stroke:#181818;stroke-width:1.0;"/><line style="stroke:#181818;stroke-width:1.0;" x1="73" x2="502" y1="275.9766" y2="275.9766"/><text fill="#000000" font-family="sans-serif" font-size="13" font-weight="bold" lengthAdjust="spacing" textLength="7" x="85" y="271.1201">5</text><text fill="#000000" font-family="sans-serif" font-size="13" lengthAdjust="spacing" textLength="405" x="96" y="271.1201">Displays homepage (Discussions list sorted by date (newest-&gt;oldest))</text><!--SRC=[jLAxRiCm3Dpz5KIMnaE05jqoPEeNrCW7C19h2v4bLQGQk5zVAiwhRT2jaoZmxdWyYVSk9CmumXX3D4EE8u7aGWrVEWdD7dlgPF84cOnWwFqjW0UqyU123s_e-RQ3HcAUYNWWLl6c4ITwxReNs7Rm-FGCAtXnR0gpY-61mJiMYDbI9Wkx2IoAih1836NSKTQwgi9Y6pBr2gx0BLDU03BKej7XuenB60GMwsvIp7ZipkLHmNsexWnlu7Z2QdC2h8559HXaKECfUMTGr9q2Byop5C2PVKFFz5w8LK3D8omvUcTriK2wB4-XvXnYuLRPbkv8pbKrLANNDQ3aSM8ODCAaZm7BQsQdo3XccHDBCHMFsSdKtdVyo-_hDxynznZSvpN-lpRu1__po43wOsIrYTxgsRRDppbV]--></g></svg>