<?xml version="1.0" encoding="us-ascii" standalone="no"?><svg xmlns="http://www.w3.org/2000/svg" xmlns:xlink="http://www.w3.org/1999/xlink" contentStyleType="text/css" height="424px" preserveAspectRatio="none" style="width:707px;height:424px;background:#FFFFFF;" version="1.1" viewBox="0 0 707 424" width="707px" zoomAndPan="magnify"><defs><filter height="300%" id="f1x7vq6t58lxdk" width="300%" x="-1" y="-1"><feGaussianBlur result="blurOut" stdDeviation="2.0"/><feColorMatrix in="blurOut" result="blurOut2" type="matrix" values="0 0 0 0 0 0 0 0 0 0 0 0 0 0 0 0 0 0 .4 0"/><feOffset dx="4.0" dy="4.0" in="blurOut2" result="blurOut3"/><feBlend in="SourceGraphic" in2="blurOut3" mode="normal"/></filter></defs><g><text fill="#000000" font-family="sans-serif" font-size="14" font-weight="bold" lengthAdjust="spacing" textLength="207" x="252" y="28.5352">- US007 - Create a link Post</text><rect fill="#FFFFFF" filter="url(#f1x7vq6t58lxdk)" height="193.8633" style="stroke:#181818;stroke-width:1.0;" width="10" x="57" y="131.9766"/><rect fill="#FFFFFF" filter="url(#f1x7vq6t58lxdk)" height="29.3105" style="stroke:#181818;stroke-width:1.0;" width="10" x="497" y="153.2871"/><rect fill="#FFFFFF" filter="url(#f1x7vq6t58lxdk)" height="113.9316" style="stroke:#181818;stroke-width:1.0;" width="10" x="497" y="211.9082"/><line style="stroke:#181818;stroke-width:0.5;stroke-dasharray:5.0,5.0;" x1="62" x2="62" y1="121.9766" y2="343.8398"/><line style="stroke:#181818;stroke-width:0.5;stroke-dasharray:5.0,5.0;" x1="501.5" x2="501.5" y1="121.9766" y2="343.8398"/><text fill="#000000" font-family="sans-serif" font-size="14" lengthAdjust="spacing" textLength="108" x="5" y="119.0234">Registered User</text><ellipse cx="62" cy="50.9883" fill="#E2E2F0" filter="url(#f1x7vq6t58lxdk)" rx="8" ry="8" style="stroke:#181818;stroke-width:0.5;"/><path d="M62,58.9883 L62,85.9883 M49,66.9883 L75,66.9883 M62,85.9883 L49,100.9883 M62,85.9883 L75,100.9883 " fill="none" filter="url(#f1x7vq6t58lxdk)" style="stroke:#181818;stroke-width:0.5;"/><text fill="#000000" font-family="sans-serif" font-size="14" lengthAdjust="spacing" textLength="108" x="5" y="356.375">Registered User</text><ellipse cx="62" cy="367.8281" fill="#E2E2F0" filter="url(#f1x7vq6t58lxdk)" rx="8" ry="8" style="stroke:#181818;stroke-width:0.5;"/><path d="M62,375.8281 L62,402.8281 M49,383.8281 L75,383.8281 M62,402.8281 L49,417.8281 M62,402.8281 L75,417.8281 " fill="none" filter="url(#f1x7vq6t58lxdk)" style="stroke:#181818;stroke-width:0.5;"/><rect fill="#E2E2F0" filter="url(#f1x7vq6t58lxdk)" height="30.4883" rx="2.5" ry="2.5" style="stroke:#181818;stroke-width:0.5;" width="66" x="467.5" y="87.4883"/><text fill="#000000" font-family="sans-serif" font-size="14" lengthAdjust="spacing" textLength="52" x="474.5" y="108.0234">:System</text><rect fill="#E2E2F0" filter="url(#f1x7vq6t58lxdk)" height="30.4883" rx="2.5" ry="2.5" style="stroke:#181818;stroke-width:0.5;" width="66" x="467.5" y="342.8398"/><text fill="#000000" font-family="sans-serif" font-size="14" lengthAdjust="spacing" textLength="52" x="474.5" y="363.375">:System</text><rect fill="#FFFFFF" filter="url(#f1x7vq6t58lxdk)" height="193.8633" style="stroke:#181818;stroke-width:1.0;" width="10" x="57" y="131.9766"/><rect fill="#FFFFFF" filter="url(#f1x7vq6t58lxdk)" height="29.3105" style="stroke:#181818;stroke-width:1.0;" width="10" x="497" y="153.2871"/><rect fill="#FFFFFF" filter="url(#f1x7vq6t58lxdk)" height="113.9316" style="stroke:#181818;stroke-width:1.0;" width="10" x="497" y="211.9082"/><polygon fill="#181818" points="485,149.2871,495,153.2871,485,157.2871,489,153.2871" style="stroke:#181818;stroke-width:1.0;"/><line style="stroke:#181818;stroke-width:1.0;" x1="67" x2="491" y1="153.2871" y2="153.2871"/><text fill="#000000" font-family="sans-serif" font-size="13" font-weight="bold" lengthAdjust="spacing" textLength="9" x="74" y="148.5449">1</text><text fill="#000000" font-family="sans-serif" font-size="13" lengthAdjust="spacing" textLength="95" x="87" y="148.5449">Select "Submit"</text><polygon fill="#181818" points="78,178.5977,68,182.5977,78,186.5977,74,182.5977" style="stroke:#181818;stroke-width:1.0;"/><line style="stroke:#181818;stroke-width:1.0;stroke-dasharray:2.0,2.0;" x1="72" x2="501" y1="182.5977" y2="182.5977"/><text fill="#000000" font-family="sans-serif" font-size="13" font-weight="bold" lengthAdjust="spacing" textLength="9" x="84" y="177.8555">2</text><text fill="#000000" font-family="sans-serif" font-size="13" lengthAdjust="spacing" textLength="187" x="97" y="177.8555">Display new submission form</text><polygon fill="#181818" points="485,207.9082,495,211.9082,485,215.9082,489,211.9082" style="stroke:#181818;stroke-width:1.0;"/><line style="stroke:#181818;stroke-width:1.0;" x1="67" x2="491" y1="211.9082" y2="211.9082"/><text fill="#000000" font-family="sans-serif" font-size="13" font-weight="bold" lengthAdjust="spacing" textLength="9" x="74" y="207.166">3</text><text fill="#000000" font-family="sans-serif" font-size="13" lengthAdjust="spacing" textLength="398" x="87" y="207.166">Enter title, select link and enter link and Click on "Submit post"</text><line style="stroke:#181818;stroke-width:1.0;" x1="507" x2="549" y1="241.2188" y2="241.2188"/><line style="stroke:#181818;stroke-width:1.0;" x1="549" x2="549" y1="241.2188" y2="254.2188"/><line style="stroke:#181818;stroke-width:1.0;" x1="508" x2="549" y1="254.2188" y2="254.2188"/><polygon fill="#181818" points="518,250.2188,508,254.2188,518,258.2188,514,254.2188" style="stroke:#181818;stroke-width:1.0;"/><text fill="#000000" font-family="sans-serif" font-size="13" font-weight="bold" lengthAdjust="spacing" textLength="9" x="514" y="236.4766">4</text><text fill="#000000" font-family="sans-serif" font-size="13" lengthAdjust="spacing" textLength="173" x="527" y="236.4766">Check title and link validity</text><line style="stroke:#181818;stroke-width:1.0;" x1="507" x2="549" y1="283.5293" y2="283.5293"/><line style="stroke:#181818;stroke-width:1.0;" x1="549" x2="549" y1="283.5293" y2="296.5293"/><line style="stroke:#181818;stroke-width:1.0;" x1="508" x2="549" y1="296.5293" y2="296.5293"/><polygon fill="#181818" points="518,292.5293,508,296.5293,518,300.5293,514,296.5293" style="stroke:#181818;stroke-width:1.0;"/><text fill="#000000" font-family="sans-serif" font-size="13" font-weight="bold" lengthAdjust="spacing" textLength="9" x="514" y="278.7871">5</text><text fill="#000000" font-family="sans-serif" font-size="13" lengthAdjust="spacing" textLength="60" x="527" y="278.7871">Save post</text><polygon fill="#181818" points="73,321.8398,63,325.8398,73,329.8398,69,325.8398" style="stroke:#181818;stroke-width:1.0;"/><line style="stroke:#181818;stroke-width:1.0;stroke-dasharray:2.0,2.0;" x1="67" x2="501" y1="325.8398" y2="325.8398"/><text fill="#000000" font-family="sans-serif" font-size="13" font-weight="bold" lengthAdjust="spacing" textLength="9" x="79" y="321.0977">6</text><text fill="#000000" font-family="sans-serif" font-size="13" lengthAdjust="spacing" textLength="344" x="92" y="321.0977">Confirm post submission and return to all discussions</text><!--SRC=[VL7DRi8m3BxdAJxrF2HkapZiqkq-hU81J6kArVnKYGlgsvC6nYg1TacTVd-samRn8qLoSC67zXI3Onp99ZRf0OtK3jHpexDbH6wLV6_NX7IYBbp4zz0uiJ4gcfdOODzij-_vMqScPH2i-07V8QanD6dmapjmp7Mh8QBwuLwISkGE-yIn0gLIc1oZqif8Nb7jcZcJN45lPJ6Gyn9Hw6OviVcumzYXOPlxHjLC1oTQ_V5_3UxCJHOLyGwVaaPBCpnVa1PPIX8yZY4wq_6JmLFaby-JeApY3UcMNyOdtu4B-BZMLje1sVtU8CQyed-wNCNK9yxIsyONg-9v9YkTwFnIqT2PIy2hgUlWZn9TmTTZBzQHTOeU6a3MefFKJWLCB_Qn-bEUv0e0]--></g></svg>