<?xml version="1.0" encoding="us-ascii" standalone="no"?><svg xmlns="http://www.w3.org/2000/svg" xmlns:xlink="http://www.w3.org/1999/xlink" contentStyleType="text/css" height="424px" preserveAspectRatio="none" style="width:658px;height:424px;background:#FFFFFF;" version="1.1" viewBox="0 0 658 424" width="658px" zoomAndPan="magnify"><defs><filter height="300%" id="fuk0mxc25u3ay" width="300%" x="-1" y="-1"><feGaussianBlur result="blurOut" stdDeviation="2.0"/><feColorMatrix in="blurOut" result="blurOut2" type="matrix" values="0 0 0 0 0 0 0 0 0 0 0 0 0 0 0 0 0 0 .4 0"/><feOffset dx="4.0" dy="4.0" in="blurOut2" result="blurOut3"/><feBlend in="SourceGraphic" in2="blurOut3" mode="normal"/></filter></defs><g><text fill="#000000" font-family="sans-serif" font-size="14" font-weight="bold" lengthAdjust="spacing" textLength="207" x="227.5" y="28.5352">- US007 - Create a link Post</text><rect fill="#FFFFFF" filter="url(#fuk0mxc25u3ay)" height="193.8633" style="stroke:#181818;stroke-width:1.0;" width="10" x="57" y="131.9766"/><rect fill="#FFFFFF" filter="url(#fuk0mxc25u3ay)" height="29.3105" style="stroke:#181818;stroke-width:1.0;" width="10" x="448" y="153.2871"/><rect fill="#FFFFFF" filter="url(#fuk0mxc25u3ay)" height="113.9316" style="stroke:#181818;stroke-width:1.0;" width="10" x="448" y="211.9082"/><line style="stroke:#181818;stroke-width:0.5;stroke-dasharray:5.0,5.0;" x1="62" x2="62" y1="121.9766" y2="343.8398"/><line style="stroke:#181818;stroke-width:0.5;stroke-dasharray:5.0,5.0;" x1="452.5" x2="452.5" y1="121.9766" y2="343.8398"/><text fill="#000000" font-family="sans-serif" font-size="14" lengthAdjust="spacing" textLength="108" x="5" y="119.0234">Registered User</text><ellipse cx="62" cy="50.9883" fill="#E2E2F0" filter="url(#fuk0mxc25u3ay)" rx="8" ry="8" style="stroke:#181818;stroke-width:0.5;"/><path d="M62,58.9883 L62,85.9883 M49,66.9883 L75,66.9883 M62,85.9883 L49,100.9883 M62,85.9883 L75,100.9883 " fill="none" filter="url(#fuk0mxc25u3ay)" style="stroke:#181818;stroke-width:0.5;"/><text fill="#000000" font-family="sans-serif" font-size="14" lengthAdjust="spacing" textLength="108" x="5" y="356.375">Registered User</text><ellipse cx="62" cy="367.8281" fill="#E2E2F0" filter="url(#fuk0mxc25u3ay)" rx="8" ry="8" style="stroke:#181818;stroke-width:0.5;"/><path d="M62,375.8281 L62,402.8281 M49,383.8281 L75,383.8281 M62,402.8281 L49,417.8281 M62,402.8281 L75,417.8281 " fill="none" filter="url(#fuk0mxc25u3ay)" style="stroke:#181818;stroke-width:0.5;"/><rect fill="#E2E2F0" filter="url(#fuk0mxc25u3ay)" height="30.4883" rx="2.5" ry="2.5" style="stroke:#181818;stroke-width:0.5;" width="66" x="418.5" y="87.4883"/><text fill="#000000" font-family="sans-serif" font-size="14" lengthAdjust="spacing" textLength="52" x="425.5" y="108.0234">:System</text><rect fill="#E2E2F0" filter="url(#fuk0mxc25u3ay)" height="30.4883" rx="2.5" ry="2.5" style="stroke:#181818;stroke-width:0.5;" width="66" x="418.5" y="342.8398"/><text fill="#000000" font-family="sans-serif" font-size="14" lengthAdjust="spacing" textLength="52" x="425.5" y="363.375">:System</text><rect fill="#FFFFFF" filter="url(#fuk0mxc25u3ay)" height="193.8633" style="stroke:#181818;stroke-width:1.0;" width="10" x="57" y="131.9766"/><rect fill="#FFFFFF" filter="url(#fuk0mxc25u3ay)" height="29.3105" style="stroke:#181818;stroke-width:1.0;" width="10" x="448" y="153.2871"/><rect fill="#FFFFFF" filter="url(#fuk0mxc25u3ay)" height="113.9316" style="stroke:#181818;stroke-width:1.0;" width="10" x="448" y="211.9082"/><polygon fill="#181818" points="436,149.2871,446,153.2871,436,157.2871,440,153.2871" style="stroke:#181818;stroke-width:1.0;"/><line style="stroke:#181818;stroke-width:1.0;" x1="67" x2="442" y1="153.2871" y2="153.2871"/><text fill="#000000" font-family="sans-serif" font-size="13" font-weight="bold" lengthAdjust="spacing" textLength="9" x="74" y="148.5449">1</text><text fill="#000000" font-family="sans-serif" font-size="13" lengthAdjust="spacing" textLength="95" x="87" y="148.5449">Select "Submit"</text><polygon fill="#181818" points="78,178.5977,68,182.5977,78,186.5977,74,182.5977" style="stroke:#181818;stroke-width:1.0;"/><line style="stroke:#181818;stroke-width:1.0;stroke-dasharray:2.0,2.0;" x1="72" x2="452" y1="182.5977" y2="182.5977"/><text fill="#000000" font-family="sans-serif" font-size="13" font-weight="bold" lengthAdjust="spacing" textLength="9" x="84" y="177.8555">2</text><text fill="#000000" font-family="sans-serif" font-size="13" lengthAdjust="spacing" textLength="187" x="97" y="177.8555">Display new submission form</text><polygon fill="#181818" points="436,207.9082,446,211.9082,436,215.9082,440,211.9082" style="stroke:#181818;stroke-width:1.0;"/><line style="stroke:#181818;stroke-width:1.0;" x1="67" x2="442" y1="211.9082" y2="211.9082"/><text fill="#000000" font-family="sans-serif" font-size="13" font-weight="bold" lengthAdjust="spacing" textLength="9" x="74" y="207.166">3</text><text fill="#000000" font-family="sans-serif" font-size="13" lengthAdjust="spacing" textLength="225" x="87" y="207.166">Enter title, select link and enter link</text><line style="stroke:#181818;stroke-width:1.0;" x1="458" x2="500" y1="241.2188" y2="241.2188"/><line style="stroke:#181818;stroke-width:1.0;" x1="500" x2="500" y1="241.2188" y2="254.2188"/><line style="stroke:#181818;stroke-width:1.0;" x1="459" x2="500" y1="254.2188" y2="254.2188"/><polygon fill="#181818" points="469,250.2188,459,254.2188,469,258.2188,465,254.2188" style="stroke:#181818;stroke-width:1.0;"/><text fill="#000000" font-family="sans-serif" font-size="13" font-weight="bold" lengthAdjust="spacing" textLength="9" x="465" y="236.4766">4</text><text fill="#000000" font-family="sans-serif" font-size="13" lengthAdjust="spacing" textLength="173" x="478" y="236.4766">Check title and link validity</text><line style="stroke:#181818;stroke-width:1.0;" x1="458" x2="500" y1="283.5293" y2="283.5293"/><line style="stroke:#181818;stroke-width:1.0;" x1="500" x2="500" y1="283.5293" y2="296.5293"/><line style="stroke:#181818;stroke-width:1.0;" x1="459" x2="500" y1="296.5293" y2="296.5293"/><polygon fill="#181818" points="469,292.5293,459,296.5293,469,300.5293,465,296.5293" style="stroke:#181818;stroke-width:1.0;"/><text fill="#000000" font-family="sans-serif" font-size="13" font-weight="bold" lengthAdjust="spacing" textLength="9" x="465" y="278.7871">5</text><text fill="#000000" font-family="sans-serif" font-size="13" lengthAdjust="spacing" textLength="60" x="478" y="278.7871">Save post</text><polygon fill="#181818" points="73,321.8398,63,325.8398,73,329.8398,69,325.8398" style="stroke:#181818;stroke-width:1.0;"/><line style="stroke:#181818;stroke-width:1.0;stroke-dasharray:2.0,2.0;" x1="67" x2="452" y1="325.8398" y2="325.8398"/><text fill="#000000" font-family="sans-serif" font-size="13" font-weight="bold" lengthAdjust="spacing" textLength="9" x="79" y="321.0977">6</text><text fill="#000000" font-family="sans-serif" font-size="13" lengthAdjust="spacing" textLength="344" x="92" y="321.0977">Confirm post submission and return to all discussions</text><!--SRC=[TL0xRiCm3Drr2i9p0sGhaA5BshseaGCmCkCGriSGwGI-VMKcRGqaNIHAxqC-oi1fn88HOaxPdqkE12SCGav-eH7zW3srEWU2GbunzM5Da3Ds-Sgf1oqJEQUibGaREBJRxMkzzuLG2H02fm4-iwXpE6bEKpnIgRNNNA3vefv5gL071w7I08eLhhPHzZnYKcXsxLn9qT1RQGPyMLeOtIqdRDxkCEoWfL3dXgQTZf6r-UF_6DoPcoeoyGxUMSQ0CoIwWYmo4Su9Jhb4rz63mKFBZrIJWAtY1UJMt-9Zwe0CN9x_ZxBosf_93pSlavlF1GDthFDJHOiNWj4M_HXjdzE9IpHydMsnBgHJIQ0PC0JeMFnae3m9lVgnlNy3]--></g></svg>