<?xml version="1.0" encoding="us-ascii" standalone="no"?><svg xmlns="http://www.w3.org/2000/svg" xmlns:xlink="http://www.w3.org/1999/xlink" contentStyleType="text/css" height="437px" preserveAspectRatio="none" style="width:380px;height:437px;background:#FFFFFF;" version="1.1" viewBox="0 0 380 437" width="380px" zoomAndPan="magnify"><defs/><g><!--cluster DeploymentMachine--><g id="cluster_DeploymentMachine"><polygon fill="none" points="16,16,26,6,363,6,363,410.93,353,420.93,16,420.93,16,16" style="stroke:#181818;stroke-width:1.0;"/><line style="stroke:#181818;stroke-width:1.0;" x1="353" x2="363" y1="16" y2="6"/><line style="stroke:#181818;stroke-width:1.0;" x1="16" x2="353" y1="16" y2="16"/><line style="stroke:#181818;stroke-width:1.0;" x1="353" x2="353" y1="16" y2="420.93"/><text fill="#000000" font-family="sans-serif" font-size="14" font-style="italic" lengthAdjust="spacing" textLength="57" x="157" y="32.5352">&#171;device&#187;</text><text fill="#000000" font-family="sans-serif" font-size="14" font-weight="bold" lengthAdjust="spacing" textLength="146" x="112.5" y="49.0234">DeploymentMachine</text></g><!--entity MySQL--><g id="elem_MySQL"><polygon fill="#F1F1F1" points="213.5,351.95,223.5,341.95,332.5,341.95,332.5,394.9266,322.5,404.9266,213.5,404.9266,213.5,351.95" style="stroke:#181818;stroke-width:0.5;"/><line style="stroke:#181818;stroke-width:0.5;" x1="322.5" x2="332.5" y1="351.95" y2="341.95"/><line style="stroke:#181818;stroke-width:0.5;" x1="213.5" x2="322.5" y1="351.95" y2="351.95"/><line style="stroke:#181818;stroke-width:0.5;" x1="322.5" x2="322.5" y1="351.95" y2="404.9266"/><text fill="#000000" font-family="sans-serif" font-size="14" font-style="italic" lengthAdjust="spacing" textLength="79" x="228.5" y="375.4852">&#171;container&#187;</text><text fill="#000000" font-family="sans-serif" font-size="14" lengthAdjust="spacing" textLength="45" x="245.5" y="391.9734">MySQL</text></g><!--entity Adminer--><g id="elem_Adminer"><polygon fill="#F1F1F1" points="223.5,211.98,233.5,201.98,342.5,201.98,342.5,254.9566,332.5,264.9566,223.5,264.9566,223.5,211.98" style="stroke:#181818;stroke-width:0.5;"/><line style="stroke:#181818;stroke-width:0.5;" x1="332.5" x2="342.5" y1="211.98" y2="201.98"/><line style="stroke:#181818;stroke-width:0.5;" x1="223.5" x2="332.5" y1="211.98" y2="211.98"/><line style="stroke:#181818;stroke-width:0.5;" x1="332.5" x2="332.5" y1="211.98" y2="264.9566"/><text fill="#000000" font-family="sans-serif" font-size="14" font-style="italic" lengthAdjust="spacing" textLength="79" x="238.5" y="235.5152">&#171;container&#187;</text><text fill="#000000" font-family="sans-serif" font-size="14" lengthAdjust="spacing" textLength="59" x="248.5" y="252.0034">Adminer</text></g><!--entity Redis--><g id="elem_Redis"><polygon fill="#F1F1F1" points="52.5,351.95,62.5,341.95,171.5,341.95,171.5,394.9266,161.5,404.9266,52.5,404.9266,52.5,351.95" style="stroke:#181818;stroke-width:0.5;"/><line style="stroke:#181818;stroke-width:0.5;" x1="161.5" x2="171.5" y1="351.95" y2="341.95"/><line style="stroke:#181818;stroke-width:0.5;" x1="52.5" x2="161.5" y1="351.95" y2="351.95"/><line style="stroke:#181818;stroke-width:0.5;" x1="161.5" x2="161.5" y1="351.95" y2="404.9266"/><text fill="#000000" font-family="sans-serif" font-size="14" font-style="italic" lengthAdjust="spacing" textLength="79" x="67.5" y="375.4852">&#171;container&#187;</text><text fill="#000000" font-family="sans-serif" font-size="14" lengthAdjust="spacing" textLength="37" x="88.5" y="391.9734">Redis</text></g><!--entity Backend--><g id="elem_Backend"><polygon fill="#F1F1F1" points="39,211.98,49,201.98,185,201.98,185,254.9566,175,264.9566,39,264.9566,39,211.98" style="stroke:#181818;stroke-width:0.5;"/><line style="stroke:#181818;stroke-width:0.5;" x1="175" x2="185" y1="211.98" y2="201.98"/><line style="stroke:#181818;stroke-width:0.5;" x1="39" x2="175" y1="211.98" y2="211.98"/><line style="stroke:#181818;stroke-width:0.5;" x1="175" x2="175" y1="211.98" y2="264.9566"/><text fill="#000000" font-family="sans-serif" font-size="14" font-style="italic" lengthAdjust="spacing" textLength="106" x="54" y="235.5152">&#171;node process&#187;</text><text fill="#000000" font-family="sans-serif" font-size="14" lengthAdjust="spacing" textLength="57" x="78.5" y="252.0034">Backend</text></g><!--entity Frontend--><g id="elem_Frontend"><polygon fill="#F1F1F1" points="32,72,42,62,178,62,178,114.9766,168,124.9766,32,124.9766,32,72" style="stroke:#181818;stroke-width:0.5;"/><line style="stroke:#181818;stroke-width:0.5;" x1="168" x2="178" y1="72" y2="62"/><line style="stroke:#181818;stroke-width:0.5;" x1="32" x2="168" y1="72" y2="72"/><line style="stroke:#181818;stroke-width:0.5;" x1="168" x2="168" y1="72" y2="124.9766"/><text fill="#000000" font-family="sans-serif" font-size="14" font-style="italic" lengthAdjust="spacing" textLength="106" x="47" y="95.5352">&#171;node process&#187;</text><text fill="#000000" font-family="sans-serif" font-size="14" lengthAdjust="spacing" textLength="63" x="68.5" y="112.0234">Frontend</text></g><!--entity Browser--><g id="elem_Browser"><polygon fill="#F1F1F1" points="240.5,72,250.5,62,347.5,62,347.5,114.9766,337.5,124.9766,240.5,124.9766,240.5,72" style="stroke:#181818;stroke-width:0.5;"/><line style="stroke:#181818;stroke-width:0.5;" x1="337.5" x2="347.5" y1="72" y2="62"/><line style="stroke:#181818;stroke-width:0.5;" x1="240.5" x2="337.5" y1="72" y2="72"/><line style="stroke:#181818;stroke-width:0.5;" x1="337.5" x2="337.5" y1="72" y2="124.9766"/><text fill="#000000" font-family="sans-serif" font-size="14" font-style="italic" lengthAdjust="spacing" textLength="67" x="255.5" y="95.5352">&#171;process&#187;</text><text fill="#000000" font-family="sans-serif" font-size="14" lengthAdjust="spacing" textLength="55" x="261.5" y="112.0234">Browser</text></g><!--link Frontend to Backend--><g id="link_Frontend_Backend"><path d="M106.57,125.45 C107.72,148.18 109.28,178.9 110.43,201.6 " fill="none" id="Frontend-Backend" style="stroke:#181818;stroke-width:1.0;"/><text fill="#000000" font-family="sans-serif" font-size="13" lengthAdjust="spacing" textLength="26" x="109" y="168.5484">http</text><text fill="#000000" font-family="sans-serif" font-size="13" lengthAdjust="spacing" textLength="32" x="74.8062" y="191.0807">5001</text></g><!--link Backend to MySQL--><g id="link_Backend_MySQL"><path d="M148.13,265.43 C174.65,288.15 210.5,318.88 236.99,341.58 " fill="none" id="Backend-MySQL" style="stroke:#181818;stroke-width:1.0;"/><text fill="#000000" font-family="sans-serif" font-size="13" lengthAdjust="spacing" textLength="39" x="203" y="308.5184">tcp/ip</text><text fill="#000000" font-family="sans-serif" font-size="13" lengthAdjust="spacing" textLength="32" x="194.2629" y="331.0627">3306</text></g><!--link Backend to Redis--><g id="link_Backend_Redis"><path d="M112,265.43 C112,288.15 112,318.88 112,341.58 " fill="none" id="Backend-Redis" style="stroke:#181818;stroke-width:1.0;"/><text fill="#000000" font-family="sans-serif" font-size="13" lengthAdjust="spacing" textLength="39" x="113" y="308.5184">tcp/ip</text><text fill="#000000" font-family="sans-serif" font-size="13" lengthAdjust="spacing" textLength="32" x="76.7" y="331.0627">6379</text></g><!--link Adminer to MySQL--><g id="link_Adminer_MySQL"><path d="M280.76,265.43 C279.11,288.15 276.88,318.88 275.24,341.58 " fill="none" id="Adminer-MySQL" style="stroke:#181818;stroke-width:1.0;"/><text fill="#000000" font-family="sans-serif" font-size="13" lengthAdjust="spacing" textLength="39" x="279" y="308.5184">tcp/ip</text><text fill="#000000" font-family="sans-serif" font-size="13" lengthAdjust="spacing" textLength="32" x="240.402" y="331.0627">3306</text></g><!--link Frontend to Browser--><g id="link_Frontend_Browser"><path d="M178.34,93.49 C198.89,93.49 220.84,93.49 240.04,93.49 " fill="none" id="Frontend-Browser" style="stroke:#181818;stroke-width:1.0;"/><text fill="#000000" font-family="sans-serif" font-size="13" lengthAdjust="spacing" textLength="26" x="196.25" y="87.0584">http</text><text fill="#000000" font-family="sans-serif" font-size="13" lengthAdjust="spacing" textLength="32" x="186.0177" y="106.7164">3000</text></g><!--link Browser to Adminer--><g id="link_Browser_Adminer"><path d="M291.53,125.45 C289.72,148.18 287.27,178.9 285.46,201.6 " fill="none" id="Browser-Adminer" style="stroke:#181818;stroke-width:1.0;"/><text fill="#000000" font-family="sans-serif" font-size="13" lengthAdjust="spacing" textLength="26" x="290" y="168.5484">http</text><text fill="#000000" font-family="sans-serif" font-size="13" lengthAdjust="spacing" textLength="32" x="250.6674" y="191.0807">8080</text></g><!--SRC=[VP3H2e8m58RlVOgnUsaXcOa8HNIL5zKJo7R2aMxYHY7HkxUfCuniTzltxPpp7o4Pe3tKfMmh43hBQS45e2HXSESKqXGzFMIEi5xMNav7mwWKEZTQawRUXsvPPTzc-HaOLxDqbzCR26PuTwqRIK6fYN9epCzvPyI-Z_2Aa2LsHMDKQ5ttbkjZfI0W8UvJnKZJUi5_I66mtk1- -Adaylwjr6Thv4Drc_aQsG6_XAksPGWXU0mo6TkPnef8PAoX_I2zl3S0]--></g></svg>