<?xml version="1.0" encoding="us-ascii" standalone="no"?><svg xmlns="http://www.w3.org/2000/svg" xmlns:xlink="http://www.w3.org/1999/xlink" contentStyleType="text/css" height="435px" preserveAspectRatio="none" style="width:680px;height:435px;background:#FFFFFF;" version="1.1" viewBox="0 0 680 435" width="680px" zoomAndPan="magnify"><defs/><g><text fill="#000000" font-family="sans-serif" font-size="14" font-weight="bold" lengthAdjust="spacing" textLength="139" x="269.5" y="29.5332">Reply to a Comment</text><rect fill="#FFFFFF" height="213.4609" style="stroke:#181818;stroke-width:1.0;" width="10" x="54" y="131.2188"/><rect fill="#FFFFFF" height="30.3516" style="stroke:#181818;stroke-width:1.0;" width="10" x="637" y="153.5703"/><rect fill="#FFFFFF" height="30.3516" style="stroke:#181818;stroke-width:1.0;" width="10" x="637" y="214.2734"/><rect fill="#FFFFFF" height="60.7031" style="stroke:#181818;stroke-width:1.0;" width="10" x="637" y="274.9766"/><line style="stroke:#181818;stroke-width:0.5;stroke-dasharray:5.0,5.0;" x1="59" x2="59" y1="121.2188" y2="353.6797"/><line style="stroke:#181818;stroke-width:0.5;stroke-dasharray:5.0,5.0;" x1="642" x2="642" y1="121.2188" y2="353.6797"/><text fill="#000000" font-family="sans-serif" font-size="14" lengthAdjust="spacing" textLength="102" x="5" y="118.1426">Registered User</text><ellipse cx="59" cy="52.1094" fill="#E3E3E3" rx="8" ry="8" style="stroke:#181818;stroke-width:0.5;"/><path d="M59,60.1094 L59,87.1094 M46,68.1094 L72,68.1094 M59,87.1094 L46,102.1094 M59,87.1094 L72,102.1094 " fill="none" style="stroke:#181818;stroke-width:0.5;"/><text fill="#000000" font-family="sans-serif" font-size="14" lengthAdjust="spacing" textLength="102" x="5" y="367.2129">Registered User</text><ellipse cx="59" cy="378.7891" fill="#E3E3E3" rx="8" ry="8" style="stroke:#181818;stroke-width:0.5;"/><path d="M59,386.7891 L59,413.7891 M46,394.7891 L72,394.7891 M59,413.7891 L46,428.7891 M59,413.7891 L72,428.7891 " fill="none" style="stroke:#181818;stroke-width:0.5;"/><rect fill="#E3E3E3" height="31.6094" rx="2.5" ry="2.5" style="stroke:#181818;stroke-width:0.5;" width="64" x="610" y="88.6094"/><text fill="#000000" font-family="sans-serif" font-size="14" lengthAdjust="spacing" textLength="50" x="617" y="110.1426">:System</text><rect fill="#E3E3E3" height="31.6094" rx="2.5" ry="2.5" style="stroke:#181818;stroke-width:0.5;" width="64" x="610" y="352.6797"/><text fill="#000000" font-family="sans-serif" font-size="14" lengthAdjust="spacing" textLength="50" x="617" y="374.2129">:System</text><rect fill="#FFFFFF" height="213.4609" style="stroke:#181818;stroke-width:1.0;" width="10" x="54" y="131.2188"/><rect fill="#FFFFFF" height="30.3516" style="stroke:#181818;stroke-width:1.0;" width="10" x="637" y="153.5703"/><rect fill="#FFFFFF" height="30.3516" style="stroke:#181818;stroke-width:1.0;" width="10" x="637" y="214.2734"/><rect fill="#FFFFFF" height="60.7031" style="stroke:#181818;stroke-width:1.0;" width="10" x="637" y="274.9766"/><polygon fill="#181818" points="625,149.5703,635,153.5703,625,157.5703,629,153.5703" style="stroke:#181818;stroke-width:1.0;"/><line style="stroke:#181818;stroke-width:1.0;" x1="64" x2="631" y1="153.5703" y2="153.5703"/><text fill="#000000" font-family="sans-serif" font-size="13" font-weight="bold" lengthAdjust="spacing" textLength="7" x="71" y="148.7139">1</text><text fill="#000000" font-family="sans-serif" font-size="13" lengthAdjust="spacing" textLength="162" x="82" y="148.7139">Select a specific discussion</text><polygon fill="#181818" points="75,179.9219,65,183.9219,75,187.9219,71,183.9219" style="stroke:#181818;stroke-width:1.0;"/><line style="stroke:#181818;stroke-width:1.0;stroke-dasharray:2.0,2.0;" x1="69" x2="641" y1="183.9219" y2="183.9219"/><text fill="#000000" font-family="sans-serif" font-size="13" font-weight="bold" lengthAdjust="spacing" textLength="7" x="81" y="179.0654">2</text><text fill="#000000" font-family="sans-serif" font-size="13" lengthAdjust="spacing" textLength="129" x="92" y="179.0654">Open discussion page</text><polygon fill="#181818" points="625,210.2734,635,214.2734,625,218.2734,629,214.2734" style="stroke:#181818;stroke-width:1.0;"/><line style="stroke:#181818;stroke-width:1.0;" x1="64" x2="631" y1="214.2734" y2="214.2734"/><text fill="#000000" font-family="sans-serif" font-size="13" font-weight="bold" lengthAdjust="spacing" textLength="7" x="71" y="209.417">3</text><text fill="#000000" font-family="sans-serif" font-size="13" lengthAdjust="spacing" textLength="260" x="82" y="209.417">Click on "reply" button of a specific comment</text><polygon fill="#181818" points="75,240.625,65,244.625,75,248.625,71,244.625" style="stroke:#181818;stroke-width:1.0;"/><line style="stroke:#181818;stroke-width:1.0;stroke-dasharray:2.0,2.0;" x1="69" x2="641" y1="244.625" y2="244.625"/><text fill="#000000" font-family="sans-serif" font-size="13" font-weight="bold" lengthAdjust="spacing" textLength="7" x="81" y="239.7686">4</text><text fill="#000000" font-family="sans-serif" font-size="13" lengthAdjust="spacing" textLength="92" x="92" y="239.7686">Open reply form</text><polygon fill="#181818" points="625,270.9766,635,274.9766,625,278.9766,629,274.9766" style="stroke:#181818;stroke-width:1.0;"/><line style="stroke:#181818;stroke-width:1.0;" x1="64" x2="631" y1="274.9766" y2="274.9766"/><text fill="#000000" font-family="sans-serif" font-size="13" font-weight="bold" lengthAdjust="spacing" textLength="7" x="71" y="270.1201">5</text><text fill="#000000" font-family="sans-serif" font-size="13" lengthAdjust="spacing" textLength="154" x="82" y="270.1201">Submit reply content (text)</text><polygon fill="#181818" points="75,301.3281,65,305.3281,75,309.3281,71,305.3281" style="stroke:#181818;stroke-width:1.0;"/><line style="stroke:#181818;stroke-width:1.0;stroke-dasharray:2.0,2.0;" x1="69" x2="636" y1="305.3281" y2="305.3281"/><text fill="#000000" font-family="sans-serif" font-size="13" font-weight="bold" lengthAdjust="spacing" textLength="7" x="81" y="300.4717">6</text><text fill="#000000" font-family="sans-serif" font-size="13" lengthAdjust="spacing" textLength="155" x="92" y="300.4717">Returns success message</text><polygon fill="#181818" points="75,331.6797,65,335.6797,75,339.6797,71,335.6797" style="stroke:#181818;stroke-width:1.0;"/><line style="stroke:#181818;stroke-width:1.0;stroke-dasharray:2.0,2.0;" x1="69" x2="641" y1="335.6797" y2="335.6797"/><text fill="#000000" font-family="sans-serif" font-size="13" font-weight="bold" lengthAdjust="spacing" textLength="7" x="81" y="330.8232">7</text><text fill="#000000" font-family="sans-serif" font-size="13" lengthAdjust="spacing" textLength="538" x="92" y="330.8232">Redirects to updated discussion page and displays the updated list of replies ordered by date</text><!--SRC=[ZLAxRiCm3Dpr5OIdTiWFPEYI3oWGen-WIBH3H2-8L5l_VIadJOCqGnQPCE-EnvFuHAdOQYF4dB8xrXmHf3OqVEqKwqvsnb6MW53HYKrpk0NmqVhyHMc6oGP6OuH4eNiiOG79O66NOyGanjWcERLumAgrarnXsEDCB5ZHmmTZ7S3oMXWL5t9KR18OjkEYeBXsp-KgG9zMy0mt_OJDswMzXH63cjNfND3HH0uyiMlCbDCVzrVi_8MD2dIXBRmNJ3SCZM56u_4VyNxiBf0xWHA6sWCOuD14buOytLfnbqIUzB5AmPHhVCR2s0wHv49oEObEWXV1RtbzOk0UfTN4mCqvP8QeHz_z0T1JVm_SBxaLhwh-FZ6mQVrNWbqKTyGhCEYjzr2wIqA6NFtw20uBTC23FNy0]--></g></svg>