<?xml version="1.0" encoding="us-ascii" standalone="no"?><svg xmlns="http://www.w3.org/2000/svg" xmlns:xlink="http://www.w3.org/1999/xlink" contentStyleType="text/css" height="408px" preserveAspectRatio="none" style="width:380px;height:408px;background:#FFFFFF;" version="1.1" viewBox="0 0 380 408" width="380px" zoomAndPan="magnify"><defs/><g><text fill="#000000" font-family="sans-serif" font-size="14" font-weight="bold" lengthAdjust="spacing" textLength="352" x="10" y="29.5332">SSD US002: TO LOGIN IN SYSTEM - Alternative Two</text><rect fill="#FFFFFF" height="183.1094" style="stroke:#181818;stroke-width:1.0;" width="10" x="47.25" y="132.2188"/><rect fill="#FFFFFF" height="30.3516" style="stroke:#181818;stroke-width:1.0;" width="10" x="311.25" y="154.5703"/><rect fill="#FFFFFF" height="30.3516" style="stroke:#181818;stroke-width:1.0;" width="10" x="311.25" y="215.2734"/><rect fill="#FFFFFF" height="30.3516" style="stroke:#181818;stroke-width:1.0;" width="10" x="311.25" y="275.9766"/><line style="stroke:#181818;stroke-width:0.5;stroke-dasharray:5.0,5.0;" x1="51.75" x2="51.75" y1="122.2188" y2="324.3281"/><line style="stroke:#181818;stroke-width:0.5;stroke-dasharray:5.0,5.0;" x1="316.25" x2="316.25" y1="122.2188" y2="324.3281"/><text fill="#000000" font-family="sans-serif" font-size="14" lengthAdjust="spacing" textLength="29" x="34.75" y="119.1426">User</text><ellipse cx="52.25" cy="60.1094" fill="#E3E3E3" rx="16" ry="16" style="stroke:#181818;stroke-width:0.5;"/><path d="M52.25,80.1094 C56.25,80.1094 59.25,80.1094 63.25,76.1094 C71.25,76.1094 79.25,84.1094 79.25,92.1094 L79.25,96.1094 C79.25,100.1094 75.25,104.1094 71.25,104.1094 L33.25,104.1094 C29.25,104.1094 25.25,100.1094 25.25,96.1094 L25.25,92.1094 C25.25,84.1094 33.25,76.1094 41.25,76.1094 C45.25,80.1094 48.25,80.1094 52.25,80.1094 " fill="#E3E3E3" style="stroke:#181818;stroke-width:0.5;"/><text fill="#000000" font-family="sans-serif" font-size="14" lengthAdjust="spacing" textLength="29" x="34.75" y="337.8613">User</text><ellipse cx="52.25" cy="357.4375" fill="#E3E3E3" rx="16" ry="16" style="stroke:#181818;stroke-width:0.5;"/><path d="M52.25,377.4375 C56.25,377.4375 59.25,377.4375 63.25,373.4375 C71.25,373.4375 79.25,381.4375 79.25,389.4375 L79.25,393.4375 C79.25,397.4375 75.25,401.4375 71.25,401.4375 L33.25,401.4375 C29.25,401.4375 25.25,397.4375 25.25,393.4375 L25.25,389.4375 C25.25,381.4375 33.25,373.4375 41.25,373.4375 C45.25,377.4375 48.25,377.4375 52.25,377.4375 " fill="#E3E3E3" style="stroke:#181818;stroke-width:0.5;"/><rect fill="#E3E3E3" height="31.6094" rx="2.5" ry="2.5" style="stroke:#181818;stroke-width:0.5;" width="64" x="284.25" y="89.6094"/><text fill="#000000" font-family="sans-serif" font-size="14" lengthAdjust="spacing" textLength="50" x="291.25" y="111.1426">:System</text><rect fill="#E3E3E3" height="31.6094" rx="2.5" ry="2.5" style="stroke:#181818;stroke-width:0.5;" width="64" x="284.25" y="323.3281"/><text fill="#000000" font-family="sans-serif" font-size="14" lengthAdjust="spacing" textLength="50" x="291.25" y="344.8613">:System</text><rect fill="#FFFFFF" height="183.1094" style="stroke:#181818;stroke-width:1.0;" width="10" x="47.25" y="132.2188"/><rect fill="#FFFFFF" height="30.3516" style="stroke:#181818;stroke-width:1.0;" width="10" x="311.25" y="154.5703"/><rect fill="#FFFFFF" height="30.3516" style="stroke:#181818;stroke-width:1.0;" width="10" x="311.25" y="215.2734"/><rect fill="#FFFFFF" height="30.3516" style="stroke:#181818;stroke-width:1.0;" width="10" x="311.25" y="275.9766"/><polygon fill="#181818" points="299.25,150.5703,309.25,154.5703,299.25,158.5703,303.25,154.5703" style="stroke:#181818;stroke-width:1.0;"/><line style="stroke:#181818;stroke-width:1.0;" x1="57.25" x2="305.25" y1="154.5703" y2="154.5703"/><text fill="#000000" font-family="sans-serif" font-size="13" font-weight="bold" lengthAdjust="spacing" textLength="7" x="64.25" y="149.7139">1</text><text fill="#000000" font-family="sans-serif" font-size="13" lengthAdjust="spacing" textLength="141" x="75.25" y="149.7139">wants to login in system</text><polygon fill="#181818" points="68.25,180.9219,58.25,184.9219,68.25,188.9219,64.25,184.9219" style="stroke:#181818;stroke-width:1.0;"/><line style="stroke:#181818;stroke-width:1.0;stroke-dasharray:2.0,2.0;" x1="62.25" x2="315.25" y1="184.9219" y2="184.9219"/><text fill="#000000" font-family="sans-serif" font-size="13" font-weight="bold" lengthAdjust="spacing" textLength="7" x="74.25" y="180.0654">2</text><text fill="#000000" font-family="sans-serif" font-size="13" lengthAdjust="spacing" textLength="219" x="85.25" y="180.0654">requests data (username + password)</text><polygon fill="#181818" points="299.25,211.2734,309.25,215.2734,299.25,219.2734,303.25,215.2734" style="stroke:#181818;stroke-width:1.0;"/><line style="stroke:#181818;stroke-width:1.0;" x1="57.25" x2="305.25" y1="215.2734" y2="215.2734"/><text fill="#000000" font-family="sans-serif" font-size="13" font-weight="bold" lengthAdjust="spacing" textLength="7" x="64.25" y="210.417">3</text><text fill="#000000" font-family="sans-serif" font-size="13" lengthAdjust="spacing" textLength="215" x="75.25" y="210.417">types incorrect username and submit</text><polygon fill="#181818" points="68.25,241.625,58.25,245.625,68.25,249.625,64.25,245.625" style="stroke:#181818;stroke-width:1.0;"/><line style="stroke:#181818;stroke-width:1.0;stroke-dasharray:2.0,2.0;" x1="62.25" x2="315.25" y1="245.625" y2="245.625"/><text fill="#000000" font-family="sans-serif" font-size="13" font-weight="bold" lengthAdjust="spacing" textLength="7" x="74.25" y="240.7686">4</text><text fill="#000000" font-family="sans-serif" font-size="13" lengthAdjust="spacing" textLength="175" x="85.25" y="240.7686">displays message of insucess</text><polygon fill="#181818" points="299.25,271.9766,309.25,275.9766,299.25,279.9766,303.25,275.9766" style="stroke:#181818;stroke-width:1.0;"/><line style="stroke:#181818;stroke-width:1.0;" x1="57.25" x2="305.25" y1="275.9766" y2="275.9766"/><text fill="#000000" font-family="sans-serif" font-size="13" font-weight="bold" lengthAdjust="spacing" textLength="7" x="64.25" y="271.1201">5</text><text fill="#000000" font-family="sans-serif" font-size="13" lengthAdjust="spacing" textLength="205" x="75.25" y="271.1201">types correct username and submit</text><polygon fill="#181818" points="68.25,302.3281,58.25,306.3281,68.25,310.3281,64.25,306.3281" style="stroke:#181818;stroke-width:1.0;"/><line style="stroke:#181818;stroke-width:1.0;stroke-dasharray:2.0,2.0;" x1="62.25" x2="315.25" y1="306.3281" y2="306.3281"/><text fill="#000000" font-family="sans-serif" font-size="13" font-weight="bold" lengthAdjust="spacing" textLength="7" x="74.25" y="301.4717">6</text><text fill="#000000" font-family="sans-serif" font-size="13" lengthAdjust="spacing" textLength="165" x="85.25" y="301.4717">displays message of sucess</text><!--SRC=[jP71QiCm38RlVWhHqyOeb1rp60msHc5R3suFEwgEcfecTcR93NdxAKbN2Xk33MPqa97-pxybFlZGOi86cXYYswVO44ZAPFXSQT4Ti28hVKsGo0c6ghviu3sMiVEXWXtMV5b19p5DGko85MwC4Izwj_O1DdQnk2rWlOBdrTFo5JJicrq_li0SxckX553yaM3THMCmImovsLBIVE32RCEKPe0CGsBqIV7EjnW4PeNjMQWPgrCwglmHXQPs0tg63EPtfnOee5CrWqIeO-K3QF2a7hhFW4yYdCv9FbVII2nqJk-PM54b2i9Lvk4pEjiR7ITp5rDvFQfB-XRwnPVqBR7QSJ4DAu0p44C9dBUDbrzQB3stDVOC3J7hVY7kbC_PwVKFrlxNs8-sFW00]--></g></svg>