<?xml version="1.0" encoding="us-ascii" standalone="no"?><svg xmlns="http://www.w3.org/2000/svg" xmlns:xlink="http://www.w3.org/1999/xlink" contentStyleType="text/css" height="405px" preserveAspectRatio="none" style="width:759px;height:405px;background:#FFFFFF;" version="1.1" viewBox="0 0 759 405" width="759px" zoomAndPan="magnify"><defs/><g><text fill="#000000" font-family="sans-serif" font-size="14" font-weight="bold" lengthAdjust="spacing" textLength="353" x="204.75" y="29.5332">SSD US002: TO LOGIN IN SYSTEM - Alternative One</text><rect fill="#FFFFFF" height="183.1094" style="stroke:#181818;stroke-width:1.0;" width="10" x="50" y="131.2188"/><rect fill="#FFFFFF" height="30.3516" style="stroke:#181818;stroke-width:1.0;" width="10" x="460" y="153.5703"/><rect fill="#FFFFFF" height="100.0547" style="stroke:#181818;stroke-width:1.0;" width="10" x="460" y="214.2734"/><rect fill="#FFFFFF" height="69.7031" style="stroke:#181818;stroke-width:1.0;" width="10" x="465" y="244.625"/><rect fill="#FFFFFF" height="30.3516" style="stroke:#181818;stroke-width:1.0;" width="10" x="470" y="274.9766"/><line style="stroke:#181818;stroke-width:0.5;stroke-dasharray:5.0,5.0;" x1="55" x2="55" y1="121.2188" y2="323.3281"/><line style="stroke:#181818;stroke-width:0.5;stroke-dasharray:5.0,5.0;" x1="465" x2="465" y1="121.2188" y2="323.3281"/><line style="stroke:#181818;stroke-width:0.5;stroke-dasharray:5.0,5.0;" x1="722.5" x2="722.5" y1="121.2188" y2="323.3281"/><text fill="#000000" font-family="sans-serif" font-size="14" lengthAdjust="spacing" textLength="94" x="5" y="118.1426">Registred User</text><ellipse cx="55" cy="52.1094" fill="#E3E3E3" rx="8" ry="8" style="stroke:#181818;stroke-width:0.5;"/><path d="M55,60.1094 L55,87.1094 M42,68.1094 L68,68.1094 M55,87.1094 L42,102.1094 M55,87.1094 L68,102.1094 " fill="none" style="stroke:#181818;stroke-width:0.5;"/><text fill="#000000" font-family="sans-serif" font-size="14" lengthAdjust="spacing" textLength="94" x="5" y="336.8613">Registred User</text><ellipse cx="55" cy="348.4375" fill="#E3E3E3" rx="8" ry="8" style="stroke:#181818;stroke-width:0.5;"/><path d="M55,356.4375 L55,383.4375 M42,364.4375 L68,364.4375 M55,383.4375 L42,398.4375 M55,383.4375 L68,398.4375 " fill="none" style="stroke:#181818;stroke-width:0.5;"/><rect fill="#E3E3E3" height="31.6094" rx="2.5" ry="2.5" style="stroke:#181818;stroke-width:0.5;" width="64" x="433" y="88.6094"/><text fill="#000000" font-family="sans-serif" font-size="14" lengthAdjust="spacing" textLength="50" x="440" y="110.1426">:System</text><rect fill="#E3E3E3" height="31.6094" rx="2.5" ry="2.5" style="stroke:#181818;stroke-width:0.5;" width="64" x="433" y="322.3281"/><text fill="#000000" font-family="sans-serif" font-size="14" lengthAdjust="spacing" textLength="50" x="440" y="343.8613">:System</text><text fill="#000000" font-family="sans-serif" font-size="14" lengthAdjust="spacing" textLength="65" x="687.5" y="118.1426">:Database</text><path d="M705,67.6094 C705,57.6094 723,57.6094 723,57.6094 C723,57.6094 741,57.6094 741,67.6094 L741,93.6094 C741,103.6094 723,103.6094 723,103.6094 C723,103.6094 705,103.6094 705,93.6094 L705,67.6094 " fill="#E3E3E3" style="stroke:#181818;stroke-width:1.5;"/><path d="M705,67.6094 C705,77.6094 723,77.6094 723,77.6094 C723,77.6094 741,77.6094 741,67.6094 " fill="none" style="stroke:#181818;stroke-width:1.5;"/><text fill="#000000" font-family="sans-serif" font-size="14" lengthAdjust="spacing" textLength="65" x="687.5" y="336.8613">:Database</text><path d="M705,349.9375 C705,339.9375 723,339.9375 723,339.9375 C723,339.9375 741,339.9375 741,349.9375 L741,375.9375 C741,385.9375 723,385.9375 723,385.9375 C723,385.9375 705,385.9375 705,375.9375 L705,349.9375 " fill="#E3E3E3" style="stroke:#181818;stroke-width:1.5;"/><path d="M705,349.9375 C705,359.9375 723,359.9375 723,359.9375 C723,359.9375 741,359.9375 741,349.9375 " fill="none" style="stroke:#181818;stroke-width:1.5;"/><rect fill="#FFFFFF" height="183.1094" style="stroke:#181818;stroke-width:1.0;" width="10" x="50" y="131.2188"/><rect fill="#FFFFFF" height="30.3516" style="stroke:#181818;stroke-width:1.0;" width="10" x="460" y="153.5703"/><rect fill="#FFFFFF" height="100.0547" style="stroke:#181818;stroke-width:1.0;" width="10" x="460" y="214.2734"/><rect fill="#FFFFFF" height="69.7031" style="stroke:#181818;stroke-width:1.0;" width="10" x="465" y="244.625"/><rect fill="#FFFFFF" height="30.3516" style="stroke:#181818;stroke-width:1.0;" width="10" x="470" y="274.9766"/><polygon fill="#181818" points="448,149.5703,458,153.5703,448,157.5703,452,153.5703" style="stroke:#181818;stroke-width:1.0;"/><line style="stroke:#181818;stroke-width:1.0;" x1="60" x2="454" y1="153.5703" y2="153.5703"/><text fill="#000000" font-family="sans-serif" font-size="13" font-weight="bold" lengthAdjust="spacing" textLength="7" x="67" y="148.7139">1</text><text fill="#000000" font-family="sans-serif" font-size="13" lengthAdjust="spacing" textLength="141" x="78" y="148.7139">wants to login in system</text><polygon fill="#181818" points="71,179.9219,61,183.9219,71,187.9219,67,183.9219" style="stroke:#181818;stroke-width:1.0;"/><line style="stroke:#181818;stroke-width:1.0;stroke-dasharray:2.0,2.0;" x1="65" x2="464" y1="183.9219" y2="183.9219"/><text fill="#000000" font-family="sans-serif" font-size="13" font-weight="bold" lengthAdjust="spacing" textLength="7" x="77" y="179.0654">2</text><text fill="#000000" font-family="sans-serif" font-size="13" lengthAdjust="spacing" textLength="211" x="88" y="179.0654">requests data (username, password)</text><polygon fill="#181818" points="448,210.2734,458,214.2734,448,218.2734,452,214.2734" style="stroke:#181818;stroke-width:1.0;"/><line style="stroke:#181818;stroke-width:1.0;" x1="60" x2="454" y1="214.2734" y2="214.2734"/><text fill="#000000" font-family="sans-serif" font-size="13" font-weight="bold" lengthAdjust="spacing" textLength="7" x="67" y="209.417">3</text><text fill="#000000" font-family="sans-serif" font-size="13" lengthAdjust="spacing" textLength="370" x="78" y="209.417">types correct requested data  (username, password) and submit</text><polygon fill="#181818" points="711,240.625,721,244.625,711,248.625,715,244.625" style="stroke:#181818;stroke-width:1.0;"/><line style="stroke:#181818;stroke-width:1.0;" x1="475" x2="717" y1="244.625" y2="244.625"/><text fill="#000000" font-family="sans-serif" font-size="13" font-weight="bold" lengthAdjust="spacing" textLength="7" x="482" y="239.7686">4</text><text fill="#000000" font-family="sans-serif" font-size="13" lengthAdjust="spacing" textLength="218" x="493" y="239.7686">Check username and password in DB</text><polygon fill="#181818" points="491,270.9766,481,274.9766,491,278.9766,487,274.9766" style="stroke:#181818;stroke-width:1.0;"/><line style="stroke:#181818;stroke-width:1.0;stroke-dasharray:2.0,2.0;" x1="485" x2="722" y1="274.9766" y2="274.9766"/><text fill="#000000" font-family="sans-serif" font-size="13" font-weight="bold" lengthAdjust="spacing" textLength="7" x="497" y="270.1201">5</text><text fill="#000000" font-family="sans-serif" font-size="13" lengthAdjust="spacing" textLength="79" x="508" y="270.1201">validates data</text><polygon fill="#181818" points="71,301.3281,61,305.3281,71,309.3281,67,305.3281" style="stroke:#181818;stroke-width:1.0;"/><line style="stroke:#181818;stroke-width:1.0;stroke-dasharray:2.0,2.0;" x1="65" x2="464" y1="305.3281" y2="305.3281"/><text fill="#000000" font-family="sans-serif" font-size="13" font-weight="bold" lengthAdjust="spacing" textLength="7" x="77" y="300.4717">6</text><text fill="#000000" font-family="sans-serif" font-size="13" lengthAdjust="spacing" textLength="174" x="88" y="300.4717">Displays message of success</text><!--SRC=[bPB1JiCm38RlVGfh9v2OD77SOH8mX920INGxSFHIhulM92LsD-tjSREsciH04ENWnFPd-qzuPtsD4Hsuu8FPnk0893QKyU2fqUomf5oE5K4a8-ZBwZo0jrY4W_KbRB1Yoh9Ch6XidizXbKycjrDOBk1byVJy1hhpZtpv-0fZkAk4eaUnUuA5rpni9FZ6hIcgRIH46BrJQLaY5R1YYYD0JaQcbSKQMwCN64tp8mkvv3sPMO62QsHIvxmpaxi_f09sZq8dNWQwMWl6iuu1KpWeda42LA6q7dJp2Tz63u2kPBfiLvS-Lb8YJbMrpuPOKMrRSDLmExUZ6zMM-H1YSPsI2xh8_DQM76jYC26shz73LQ94luW7z0LmitPM_jRxR51AwprioUoWnoPMJsurcT__pXn8u_CXzbXPRPXEelnNqRdbki8ZWoDc_PqGDZgVCNhwGSel]--></g></svg>