<?xml version="1.0" encoding="us-ascii" standalone="no"?><svg xmlns="http://www.w3.org/2000/svg" xmlns:xlink="http://www.w3.org/1999/xlink" contentStyleType="text/css" height="483px" preserveAspectRatio="none" style="width:609px;height:483px;background:#FFFFFF;" version="1.1" viewBox="0 0 609 483" width="609px" zoomAndPan="magnify"><defs/><g><text fill="#000000" font-family="sans-serif" font-size="14" font-weight="bold" lengthAdjust="spacing" textLength="329" x="141" y="29.5332">SSD US001: User Registration - Alternative One</text><rect fill="#FFFFFF" height="261.2969" style="stroke:#181818;stroke-width:1.0;" width="10" x="75" y="131.2188"/><rect fill="#FFFFFF" height="237.9453" style="stroke:#181818;stroke-width:1.0;" width="10" x="394" y="153.5703"/><rect fill="#FFFFFF" height="30" style="stroke:#181818;stroke-width:1.0;" width="10" x="545" y="239.625"/><rect fill="none" height="215.9453" style="stroke:#000000;stroke-width:1.5;" width="592" x="10" y="168.5703"/><line style="stroke:#181818;stroke-width:0.5;stroke-dasharray:5.0,5.0;" x1="80" x2="80" y1="121.2188" y2="401.5156"/><line style="stroke:#181818;stroke-width:0.5;stroke-dasharray:5.0,5.0;" x1="399" x2="399" y1="121.2188" y2="401.5156"/><line style="stroke:#181818;stroke-width:0.5;stroke-dasharray:5.0,5.0;" x1="550" x2="550" y1="121.2188" y2="401.5156"/><text fill="#000000" font-family="sans-serif" font-size="14" lengthAdjust="spacing" textLength="114" x="20" y="118.1426">Unregistered User</text><ellipse cx="80" cy="52.1094" fill="#E3E3E3" rx="8" ry="8" style="stroke:#181818;stroke-width:0.5;"/><path d="M80,60.1094 L80,87.1094 M67,68.1094 L93,68.1094 M80,87.1094 L67,102.1094 M80,87.1094 L93,102.1094 " fill="none" style="stroke:#181818;stroke-width:0.5;"/><text fill="#000000" font-family="sans-serif" font-size="14" lengthAdjust="spacing" textLength="114" x="20" y="415.0488">Unregistered User</text><ellipse cx="80" cy="426.625" fill="#E3E3E3" rx="8" ry="8" style="stroke:#181818;stroke-width:0.5;"/><path d="M80,434.625 L80,461.625 M67,442.625 L93,442.625 M80,461.625 L67,476.625 M80,461.625 L93,476.625 " fill="none" style="stroke:#181818;stroke-width:0.5;"/><rect fill="#E3E3E3" height="31.6094" rx="2.5" ry="2.5" style="stroke:#181818;stroke-width:0.5;" width="144" x="327" y="88.6094"/><text fill="#000000" font-family="sans-serif" font-size="14" lengthAdjust="spacing" textLength="130" x="334" y="110.1426">:Registration System</text><rect fill="#E3E3E3" height="31.6094" rx="2.5" ry="2.5" style="stroke:#181818;stroke-width:0.5;" width="144" x="327" y="400.5156"/><text fill="#000000" font-family="sans-serif" font-size="14" lengthAdjust="spacing" textLength="130" x="334" y="422.0488">:Registration System</text><rect fill="#E3E3E3" height="31.6094" rx="2.5" ry="2.5" style="stroke:#181818;stroke-width:0.5;" width="84" x="508" y="88.6094"/><text fill="#000000" font-family="sans-serif" font-size="14" lengthAdjust="spacing" textLength="70" x="515" y="110.1426">:Data Base</text><rect fill="#E3E3E3" height="31.6094" rx="2.5" ry="2.5" style="stroke:#181818;stroke-width:0.5;" width="84" x="508" y="400.5156"/><text fill="#000000" font-family="sans-serif" font-size="14" lengthAdjust="spacing" textLength="70" x="515" y="422.0488">:Data Base</text><rect fill="#FFFFFF" height="261.2969" style="stroke:#181818;stroke-width:1.0;" width="10" x="75" y="131.2188"/><rect fill="#FFFFFF" height="237.9453" style="stroke:#181818;stroke-width:1.0;" width="10" x="394" y="153.5703"/><rect fill="#FFFFFF" height="30" style="stroke:#181818;stroke-width:1.0;" width="10" x="545" y="239.625"/><polygon fill="#181818" points="382,149.5703,392,153.5703,382,157.5703,386,153.5703" style="stroke:#181818;stroke-width:1.0;"/><line style="stroke:#181818;stroke-width:1.0;" x1="85" x2="388" y1="153.5703" y2="153.5703"/><text fill="#000000" font-family="sans-serif" font-size="13" font-weight="bold" lengthAdjust="spacing" textLength="7" x="92" y="148.7139">1</text><text fill="#000000" font-family="sans-serif" font-size="13" lengthAdjust="spacing" textLength="279" x="103" y="148.7139">submitRegistration (username, password, email)</text><path d="M10,168.5703 L71,168.5703 L71,176.9219 L61,186.9219 L10,186.9219 L10,168.5703 " fill="#EEEEEE" style="stroke:#000000;stroke-width:1.5;"/><rect fill="none" height="215.9453" style="stroke:#000000;stroke-width:1.5;" width="592" x="10" y="168.5703"/><text fill="#000000" font-family="sans-serif" font-size="13" font-weight="bold" lengthAdjust="spacing" textLength="16" x="25" y="183.0654">alt</text><text fill="#000000" font-family="sans-serif" font-size="11" font-weight="bold" lengthAdjust="spacing" textLength="102" x="86" y="181.9893">[Valid Credentials]</text><polygon fill="#181818" points="96,205.2734,86,209.2734,96,213.2734,92,209.2734" style="stroke:#181818;stroke-width:1.0;"/><line style="stroke:#181818;stroke-width:1.0;stroke-dasharray:2.0,2.0;" x1="90" x2="393" y1="209.2734" y2="209.2734"/><text fill="#000000" font-family="sans-serif" font-size="13" font-weight="bold" lengthAdjust="spacing" textLength="7" x="102" y="204.417">2</text><text fill="#000000" font-family="sans-serif" font-size="13" lengthAdjust="spacing" textLength="257" x="113" y="204.417">Validate User Credentials (Valid Credentials)</text><polygon fill="#181818" points="533,235.625,543,239.625,533,243.625,537,239.625" style="stroke:#181818;stroke-width:1.0;"/><line style="stroke:#181818;stroke-width:1.0;" x1="404" x2="539" y1="239.625" y2="239.625"/><text fill="#000000" font-family="sans-serif" font-size="13" font-weight="bold" lengthAdjust="spacing" textLength="7" x="411" y="234.7686">3</text><text fill="#000000" font-family="sans-serif" font-size="13" lengthAdjust="spacing" textLength="111" x="422" y="234.7686">createUserAccount</text><polygon fill="#181818" points="96,295.9766,86,299.9766,96,303.9766,92,299.9766" style="stroke:#181818;stroke-width:1.0;"/><line style="stroke:#181818;stroke-width:1.0;stroke-dasharray:2.0,2.0;" x1="90" x2="393" y1="299.9766" y2="299.9766"/><text fill="#000000" font-family="sans-serif" font-size="13" font-weight="bold" lengthAdjust="spacing" textLength="7" x="102" y="295.1201">4</text><text fill="#000000" font-family="sans-serif" font-size="13" lengthAdjust="spacing" textLength="174" x="113" y="295.1201">displayConfirmationMessage()</text><line style="stroke:#000000;stroke-width:1.0;stroke-dasharray:2.0,2.0;" x1="10" x2="602" y1="308.9766" y2="308.9766"/><text fill="#000000" font-family="sans-serif" font-size="11" font-weight="bold" lengthAdjust="spacing" textLength="110" x="15" y="320.3955">[Invalid Credentials]</text><polygon fill="#181818" points="96,342.1641,86,346.1641,96,350.1641,92,346.1641" style="stroke:#181818;stroke-width:1.0;"/><line style="stroke:#181818;stroke-width:1.0;stroke-dasharray:2.0,2.0;" x1="90" x2="393" y1="346.1641" y2="346.1641"/><text fill="#000000" font-family="sans-serif" font-size="13" font-weight="bold" lengthAdjust="spacing" textLength="7" x="102" y="341.3076">5</text><text fill="#000000" font-family="sans-serif" font-size="13" lengthAdjust="spacing" textLength="263" x="113" y="341.3076">Validate User Credentials (Invalid Credentials)</text><polygon fill="#181818" points="96,372.5156,86,376.5156,96,380.5156,92,376.5156" style="stroke:#181818;stroke-width:1.0;"/><line style="stroke:#181818;stroke-width:1.0;stroke-dasharray:2.0,2.0;" x1="90" x2="393" y1="376.5156" y2="376.5156"/><text fill="#000000" font-family="sans-serif" font-size="13" font-weight="bold" lengthAdjust="spacing" textLength="7" x="102" y="371.6592">6</text><text fill="#000000" font-family="sans-serif" font-size="13" lengthAdjust="spacing" textLength="130" x="113" y="371.6592">displayErrorMessage()</text><!--SRC=[ZLBBRi8m4BpdArQSG0A9NdD0ei2XXwfI8tfVd2LO-16jDo3-lev3QLBwyibUpyxCZXsEsjN8QC5wvzM1lIKGRYWBjviQrH4hAkHY29YKeAjC7n0EMFgpTXNiqGJACj4IeKMnXcqndp_ai0t4y4gL3i8esZkOmT88iOkd4y6BYrtOY7UDtH77lHBFCDewJat4L2QI4M18conAYrQwHYSmoWVSnILss0Jjjb_0QnI4HmoK8ErfXwtjAAfFADG9P11NCZvRN7aWXz3ih9Q1tBW9xI2MfZ6g4CwUoocGHMqcYUD6UpNJ5Ot06nfTmYhEHavqZAwxQjTLRnQbauMy0t-OwpV1-8wdqxqZMzncpK4nHRAMQwcKRs8kGw-tLDfgIVVrdwpcKEfG6xoilDjhjYcZPmeXVg5npnZ5dm9FxlJl37wDu1kY2VpjSSFiUMXkuyhsSJwDzeRlQDu1]--></g></svg>