<?xml version="1.0" encoding="us-ascii" standalone="no"?><svg xmlns="http://www.w3.org/2000/svg" xmlns:xlink="http://www.w3.org/1999/xlink" contentStyleType="text/css" height="476px" preserveAspectRatio="none" style="width:598px;height:476px;background:#FFFFFF;" version="1.1" viewBox="0 0 598 476" width="598px" zoomAndPan="magnify"><defs/><g><text fill="#000000" font-family="sans-serif" font-size="14" font-weight="bold" lengthAdjust="spacing" textLength="350" x="130.5" y="29.5332">System Sequence Diagram (SSD) - Alternative Two</text><rect fill="#FFFFFF" height="254.2969" style="stroke:#181818;stroke-width:1.0;" width="10" x="75" y="131.2188"/><rect fill="#FFFFFF" height="222.9453" style="stroke:#181818;stroke-width:1.0;" width="10" x="394" y="153.5703"/><rect fill="#FFFFFF" height="30" style="stroke:#181818;stroke-width:1.0;" width="10" x="545" y="239.625"/><line style="stroke:#181818;stroke-width:0.5;stroke-dasharray:5.0,5.0;" x1="80" x2="80" y1="121.2188" y2="394.5156"/><line style="stroke:#181818;stroke-width:0.5;stroke-dasharray:5.0,5.0;" x1="399" x2="399" y1="121.2188" y2="394.5156"/><line style="stroke:#181818;stroke-width:0.5;stroke-dasharray:5.0,5.0;" x1="550" x2="550" y1="121.2188" y2="394.5156"/><text fill="#000000" font-family="sans-serif" font-size="14" lengthAdjust="spacing" textLength="114" x="20" y="118.1426">Unregistered User</text><ellipse cx="80" cy="52.1094" fill="#E3E3E3" rx="8" ry="8" style="stroke:#181818;stroke-width:0.5;"/><path d="M80,60.1094 L80,87.1094 M67,68.1094 L93,68.1094 M80,87.1094 L67,102.1094 M80,87.1094 L93,102.1094 " fill="none" style="stroke:#181818;stroke-width:0.5;"/><text fill="#000000" font-family="sans-serif" font-size="14" lengthAdjust="spacing" textLength="114" x="20" y="408.0488">Unregistered User</text><ellipse cx="80" cy="419.625" fill="#E3E3E3" rx="8" ry="8" style="stroke:#181818;stroke-width:0.5;"/><path d="M80,427.625 L80,454.625 M67,435.625 L93,435.625 M80,454.625 L67,469.625 M80,454.625 L93,469.625 " fill="none" style="stroke:#181818;stroke-width:0.5;"/><rect fill="#E3E3E3" height="31.6094" rx="2.5" ry="2.5" style="stroke:#181818;stroke-width:0.5;" width="144" x="327" y="88.6094"/><text fill="#000000" font-family="sans-serif" font-size="14" lengthAdjust="spacing" textLength="130" x="334" y="110.1426">:Registration System</text><rect fill="#E3E3E3" height="31.6094" rx="2.5" ry="2.5" style="stroke:#181818;stroke-width:0.5;" width="144" x="327" y="393.5156"/><text fill="#000000" font-family="sans-serif" font-size="14" lengthAdjust="spacing" textLength="130" x="334" y="415.0488">:Registration System</text><rect fill="#E3E3E3" height="31.6094" rx="2.5" ry="2.5" style="stroke:#181818;stroke-width:0.5;" width="84" x="508" y="88.6094"/><text fill="#000000" font-family="sans-serif" font-size="14" lengthAdjust="spacing" textLength="70" x="515" y="110.1426">:Data Base</text><rect fill="#E3E3E3" height="31.6094" rx="2.5" ry="2.5" style="stroke:#181818;stroke-width:0.5;" width="84" x="508" y="393.5156"/><text fill="#000000" font-family="sans-serif" font-size="14" lengthAdjust="spacing" textLength="70" x="515" y="415.0488">:Data Base</text><rect fill="#FFFFFF" height="254.2969" style="stroke:#181818;stroke-width:1.0;" width="10" x="75" y="131.2188"/><rect fill="#FFFFFF" height="222.9453" style="stroke:#181818;stroke-width:1.0;" width="10" x="394" y="153.5703"/><rect fill="#FFFFFF" height="30" style="stroke:#181818;stroke-width:1.0;" width="10" x="545" y="239.625"/><polygon fill="#181818" points="382,149.5703,392,153.5703,382,157.5703,386,153.5703" style="stroke:#181818;stroke-width:1.0;"/><line style="stroke:#181818;stroke-width:1.0;" x1="85" x2="388" y1="153.5703" y2="153.5703"/><text fill="#000000" font-family="sans-serif" font-size="13" font-weight="bold" lengthAdjust="spacing" textLength="7" x="92" y="148.7139">1</text><text fill="#000000" font-family="sans-serif" font-size="13" lengthAdjust="spacing" textLength="279" x="103" y="148.7139">submitRegistration (username, password, email)</text><polygon fill="#181818" points="96,205.2734,86,209.2734,96,213.2734,92,209.2734" style="stroke:#181818;stroke-width:1.0;"/><line style="stroke:#181818;stroke-width:1.0;stroke-dasharray:2.0,2.0;" x1="90" x2="393" y1="209.2734" y2="209.2734"/><text fill="#000000" font-family="sans-serif" font-size="13" font-weight="bold" lengthAdjust="spacing" textLength="7" x="102" y="204.417">2</text><text fill="#000000" font-family="sans-serif" font-size="13" lengthAdjust="spacing" textLength="257" x="113" y="204.417">Validate User Credentials (Valid Credentials)</text><polygon fill="#181818" points="533,235.625,543,239.625,533,243.625,537,239.625" style="stroke:#181818;stroke-width:1.0;"/><line style="stroke:#181818;stroke-width:1.0;" x1="404" x2="539" y1="239.625" y2="239.625"/><text fill="#000000" font-family="sans-serif" font-size="13" font-weight="bold" lengthAdjust="spacing" textLength="7" x="411" y="234.7686">3</text><text fill="#000000" font-family="sans-serif" font-size="13" lengthAdjust="spacing" textLength="111" x="422" y="234.7686">createUserAccount</text><polygon fill="#181818" points="96,295.9766,86,299.9766,96,303.9766,92,299.9766" style="stroke:#181818;stroke-width:1.0;"/><line style="stroke:#181818;stroke-width:1.0;stroke-dasharray:2.0,2.0;" x1="90" x2="393" y1="299.9766" y2="299.9766"/><text fill="#000000" font-family="sans-serif" font-size="13" font-weight="bold" lengthAdjust="spacing" textLength="7" x="102" y="295.1201">4</text><text fill="#000000" font-family="sans-serif" font-size="13" lengthAdjust="spacing" textLength="174" x="113" y="295.1201">displayConfirmationMessage()</text><polygon fill="#181818" points="96,342.1641,86,346.1641,96,350.1641,92,346.1641" style="stroke:#181818;stroke-width:1.0;"/><line style="stroke:#181818;stroke-width:1.0;stroke-dasharray:2.0,2.0;" x1="90" x2="393" y1="346.1641" y2="346.1641"/><text fill="#000000" font-family="sans-serif" font-size="13" font-weight="bold" lengthAdjust="spacing" textLength="7" x="102" y="341.3076">5</text><text fill="#000000" font-family="sans-serif" font-size="13" lengthAdjust="spacing" textLength="263" x="113" y="341.3076">Validate User Credentials (Invalid Credentials)</text><polygon fill="#181818" points="96,372.5156,86,376.5156,96,380.5156,92,376.5156" style="stroke:#181818;stroke-width:1.0;"/><line style="stroke:#181818;stroke-width:1.0;stroke-dasharray:2.0,2.0;" x1="90" x2="398" y1="376.5156" y2="376.5156"/><text fill="#000000" font-family="sans-serif" font-size="13" font-weight="bold" lengthAdjust="spacing" textLength="7" x="102" y="371.6592">6</text><text fill="#000000" font-family="sans-serif" font-size="13" lengthAdjust="spacing" textLength="130" x="113" y="371.6592">displayErrorMessage()</text><!--SRC=[ZLBBRi8m4BpdArQSWWG_a0CIXHvwwAKflI_E4YpyIDSR47zVEu4eG5y-hNV7CxCZXuDs3J9QiDvvjMTl2OHRoi8mQL0TiAPIpeQ0IGcwsem1OO-LFsbNmmvDe2mJBH5QdeEGXP8-MtAAOAsnJl2yBDTJcCFI2B53qKU2zvFFCcp5kzPkYMEjn3DCDewfrf67gO9D89u0Xgx8ehPefHjq0fFYhODnPFFkejn1-_8El4P1UC907IJTjfXyHr5zHA5U88DuKWNpnNMP0aAxjLfkvF8sf4KipM9M8PmyLpCWYzfCEuw1zcAcRng13pIwWbNSZPpec5q_IkUYDu_IdOMY1r_DZHz1_i3JwpwGBOPT2r1CaInnBPNoRSpbrkkGIkfMzDZ_oMe1bGwDmVFAkvrcssNqIY74FvIFZ57yAl3YZl_EuDS8lY6QmjyUdvazZyrbz_lsBxy0]--></g></svg>