<?xml version="1.0" encoding="us-ascii" standalone="no"?><svg xmlns="http://www.w3.org/2000/svg" xmlns:xlink="http://www.w3.org/1999/xlink" contentStyleType="text/css" height="474px" preserveAspectRatio="none" style="width:714px;height:474px;background:#FFFFFF;" version="1.1" viewBox="0 0 714 474" width="714px" zoomAndPan="magnify"><defs/><g><text fill="#000000" font-family="sans-serif" font-size="14" font-weight="bold" lengthAdjust="spacing" textLength="206" x="256" y="29.5332">SSD US001: User Registration</text><rect fill="#FFFFFF" height="252.4609" style="stroke:#181818;stroke-width:1.0;" width="10" x="60" y="131.2188"/><rect fill="#FFFFFF" height="30.3516" style="stroke:#181818;stroke-width:1.0;" width="10" x="532" y="153.5703"/><rect fill="#FFFFFF" height="160.4063" style="stroke:#181818;stroke-width:1.0;" width="10" x="532" y="214.2734"/><line style="stroke:#181818;stroke-width:0.5;stroke-dasharray:5.0,5.0;" x1="65" x2="65" y1="121.2188" y2="392.6797"/><line style="stroke:#181818;stroke-width:0.5;stroke-dasharray:5.0,5.0;" x1="537" x2="537" y1="121.2188" y2="392.6797"/><text fill="#000000" font-family="sans-serif" font-size="14" lengthAdjust="spacing" textLength="114" x="5" y="118.1426">Unregistered User</text><ellipse cx="65" cy="52.1094" fill="#E3E3E3" rx="8" ry="8" style="stroke:#181818;stroke-width:0.5;"/><path d="M65,60.1094 L65,87.1094 M52,68.1094 L78,68.1094 M65,87.1094 L52,102.1094 M65,87.1094 L78,102.1094 " fill="none" style="stroke:#181818;stroke-width:0.5;"/><text fill="#000000" font-family="sans-serif" font-size="14" lengthAdjust="spacing" textLength="114" x="5" y="406.2129">Unregistered User</text><ellipse cx="65" cy="417.7891" fill="#E3E3E3" rx="8" ry="8" style="stroke:#181818;stroke-width:0.5;"/><path d="M65,425.7891 L65,452.7891 M52,433.7891 L78,433.7891 M65,452.7891 L52,467.7891 M65,452.7891 L78,467.7891 " fill="none" style="stroke:#181818;stroke-width:0.5;"/><rect fill="#E3E3E3" height="31.6094" rx="2.5" ry="2.5" style="stroke:#181818;stroke-width:0.5;" width="64" x="505" y="88.6094"/><text fill="#000000" font-family="sans-serif" font-size="14" lengthAdjust="spacing" textLength="50" x="512" y="110.1426">:System</text><rect fill="#E3E3E3" height="31.6094" rx="2.5" ry="2.5" style="stroke:#181818;stroke-width:0.5;" width="64" x="505" y="391.6797"/><text fill="#000000" font-family="sans-serif" font-size="14" lengthAdjust="spacing" textLength="50" x="512" y="413.2129">:System</text><rect fill="#FFFFFF" height="252.4609" style="stroke:#181818;stroke-width:1.0;" width="10" x="60" y="131.2188"/><rect fill="#FFFFFF" height="30.3516" style="stroke:#181818;stroke-width:1.0;" width="10" x="532" y="153.5703"/><rect fill="#FFFFFF" height="160.4063" style="stroke:#181818;stroke-width:1.0;" width="10" x="532" y="214.2734"/><polygon fill="#181818" points="520,149.5703,530,153.5703,520,157.5703,524,153.5703" style="stroke:#181818;stroke-width:1.0;"/><line style="stroke:#181818;stroke-width:1.0;" x1="70" x2="526" y1="153.5703" y2="153.5703"/><text fill="#000000" font-family="sans-serif" font-size="13" font-weight="bold" lengthAdjust="spacing" textLength="7" x="77" y="148.7139">1</text><text fill="#000000" font-family="sans-serif" font-size="13" lengthAdjust="spacing" textLength="74" x="88" y="148.7139">Select "Join"</text><polygon fill="#181818" points="81,179.9219,71,183.9219,81,187.9219,77,183.9219" style="stroke:#181818;stroke-width:1.0;"/><line style="stroke:#181818;stroke-width:1.0;" x1="75" x2="536" y1="183.9219" y2="183.9219"/><text fill="#000000" font-family="sans-serif" font-size="13" font-weight="bold" lengthAdjust="spacing" textLength="7" x="87" y="179.0654">2</text><text fill="#000000" font-family="sans-serif" font-size="13" lengthAdjust="spacing" textLength="167" x="98" y="179.0654">Display new registration form</text><polygon fill="#181818" points="520,210.2734,530,214.2734,520,218.2734,524,214.2734" style="stroke:#181818;stroke-width:1.0;"/><line style="stroke:#181818;stroke-width:1.0;" x1="70" x2="526" y1="214.2734" y2="214.2734"/><text fill="#000000" font-family="sans-serif" font-size="13" font-weight="bold" lengthAdjust="spacing" textLength="7" x="77" y="209.417">3</text><text fill="#000000" font-family="sans-serif" font-size="13" lengthAdjust="spacing" textLength="279" x="88" y="209.417">submitRegistration (username, password, email)</text><line style="stroke:#181818;stroke-width:1.0;stroke-dasharray:2.0,2.0;" x1="542" x2="584" y1="244.625" y2="244.625"/><line style="stroke:#181818;stroke-width:1.0;stroke-dasharray:2.0,2.0;" x1="584" x2="584" y1="244.625" y2="257.625"/><line style="stroke:#181818;stroke-width:1.0;stroke-dasharray:2.0,2.0;" x1="543" x2="584" y1="257.625" y2="257.625"/><polygon fill="#181818" points="553,253.625,543,257.625,553,261.625,549,257.625" style="stroke:#181818;stroke-width:1.0;"/><text fill="#000000" font-family="sans-serif" font-size="13" font-weight="bold" lengthAdjust="spacing" textLength="7" x="549" y="239.7686">4</text><text fill="#000000" font-family="sans-serif" font-size="13" lengthAdjust="spacing" textLength="147" x="560" y="239.7686">Validate User Credentials</text><line style="stroke:#181818;stroke-width:1.0;stroke-dasharray:2.0,2.0;" x1="542" x2="584" y1="287.9766" y2="287.9766"/><line style="stroke:#181818;stroke-width:1.0;stroke-dasharray:2.0,2.0;" x1="584" x2="584" y1="287.9766" y2="300.9766"/><line style="stroke:#181818;stroke-width:1.0;stroke-dasharray:2.0,2.0;" x1="543" x2="584" y1="300.9766" y2="300.9766"/><polygon fill="#181818" points="553,296.9766,543,300.9766,553,304.9766,549,300.9766" style="stroke:#181818;stroke-width:1.0;"/><text fill="#000000" font-family="sans-serif" font-size="13" font-weight="bold" lengthAdjust="spacing" textLength="7" x="549" y="283.1201">5</text><text fill="#000000" font-family="sans-serif" font-size="13" lengthAdjust="spacing" textLength="121" x="560" y="283.1201">Create User Account</text><line style="stroke:#181818;stroke-width:1.0;stroke-dasharray:2.0,2.0;" x1="542" x2="584" y1="331.3281" y2="331.3281"/><line style="stroke:#181818;stroke-width:1.0;stroke-dasharray:2.0,2.0;" x1="584" x2="584" y1="331.3281" y2="344.3281"/><line style="stroke:#181818;stroke-width:1.0;stroke-dasharray:2.0,2.0;" x1="543" x2="584" y1="344.3281" y2="344.3281"/><polygon fill="#181818" points="553,340.3281,543,344.3281,553,348.3281,549,344.3281" style="stroke:#181818;stroke-width:1.0;"/><text fill="#000000" font-family="sans-serif" font-size="13" font-weight="bold" lengthAdjust="spacing" textLength="7" x="549" y="326.4717">6</text><text fill="#000000" font-family="sans-serif" font-size="13" lengthAdjust="spacing" textLength="118" x="560" y="326.4717">Log in User Account</text><polygon fill="#181818" points="81,370.6797,71,374.6797,81,378.6797,77,374.6797" style="stroke:#181818;stroke-width:1.0;"/><line style="stroke:#181818;stroke-width:1.0;stroke-dasharray:2.0,2.0;" x1="75" x2="536" y1="374.6797" y2="374.6797"/><text fill="#000000" font-family="sans-serif" font-size="13" font-weight="bold" lengthAdjust="spacing" textLength="7" x="87" y="369.8232">7</text><text fill="#000000" font-family="sans-serif" font-size="13" lengthAdjust="spacing" textLength="427" x="98" y="369.8232">Display Confirmation Message (Valid Credentials) and return to homepage</text><!--SRC=[TP8_QyD03CNt-nJ2Km8ffAk7GaccqYurwQxOYYDwfpDtSaE-VSNbJqsJR0BzdlJqKFvc6J1XW10bjliK0u6caLo-TWPilx6dHe-U856hABsV0dcFNJomzB13dyavPJMqQTQmQPRBvnescH9yKizP4of7SGv7ZJA6BIMhMuq9gesaWb2YhaWgm5mAPukKMnvG5AgwEHeKIlTKbX7yWqedt9M5Jo_dDjJGa3VdKBr5bkgFliZFd2cAieOrvy7Z4OGEa2R6OHTJS1tTJBZPcCTjO9qU3RFH8C502mirvqDCtG8e8FlvOqlJcL_ekRjS2IlBYKJPGh-F6t25NzisZgBtmVVO0yjZy5yegoWxJk5qr0VbREy1is9kQceEA9sbfsCIq0XxUwx1K7URtoy0]--></g></svg>