<?xml version="1.0" encoding="us-ascii" standalone="no"?><svg xmlns="http://www.w3.org/2000/svg" xmlns:xlink="http://www.w3.org/1999/xlink" contentStyleType="text/css" height="522px" preserveAspectRatio="none" style="width:835px;height:522px;background:#FFFFFF;" version="1.1" viewBox="0 0 835 522" width="835px" zoomAndPan="magnify"><defs/><g><text fill="#000000" font-family="sans-serif" font-size="14" font-weight="bold" lengthAdjust="spacing" textLength="139" x="350" y="29.5332">Reply to a Comment</text><rect fill="#FFFFFF" height="300.1641" style="stroke:#181818;stroke-width:1.0;" width="10" x="54" y="131.2188"/><rect fill="#FFFFFF" height="30.3516" style="stroke:#181818;stroke-width:1.0;" width="10" x="637" y="153.5703"/><rect fill="#FFFFFF" height="30.3516" style="stroke:#181818;stroke-width:1.0;" width="10" x="637" y="214.2734"/><rect fill="#FFFFFF" height="147.4063" style="stroke:#181818;stroke-width:1.0;" width="10" x="637" y="274.9766"/><line style="stroke:#181818;stroke-width:0.5;stroke-dasharray:5.0,5.0;" x1="59" x2="59" y1="121.2188" y2="440.3828"/><line style="stroke:#181818;stroke-width:0.5;stroke-dasharray:5.0,5.0;" x1="642" x2="642" y1="121.2188" y2="440.3828"/><text fill="#000000" font-family="sans-serif" font-size="14" lengthAdjust="spacing" textLength="102" x="5" y="118.1426">Registered User</text><ellipse cx="59" cy="52.1094" fill="#E3E3E3" rx="8" ry="8" style="stroke:#181818;stroke-width:0.5;"/><path d="M59,60.1094 L59,87.1094 M46,68.1094 L72,68.1094 M59,87.1094 L46,102.1094 M59,87.1094 L72,102.1094 " fill="none" style="stroke:#181818;stroke-width:0.5;"/><text fill="#000000" font-family="sans-serif" font-size="14" lengthAdjust="spacing" textLength="102" x="5" y="453.916">Registered User</text><ellipse cx="59" cy="465.4922" fill="#E3E3E3" rx="8" ry="8" style="stroke:#181818;stroke-width:0.5;"/><path d="M59,473.4922 L59,500.4922 M46,481.4922 L72,481.4922 M59,500.4922 L46,515.4922 M59,500.4922 L72,515.4922 " fill="none" style="stroke:#181818;stroke-width:0.5;"/><rect fill="#E3E3E3" height="31.6094" rx="2.5" ry="2.5" style="stroke:#181818;stroke-width:0.5;" width="64" x="610" y="88.6094"/><text fill="#000000" font-family="sans-serif" font-size="14" lengthAdjust="spacing" textLength="50" x="617" y="110.1426">:System</text><rect fill="#E3E3E3" height="31.6094" rx="2.5" ry="2.5" style="stroke:#181818;stroke-width:0.5;" width="64" x="610" y="439.3828"/><text fill="#000000" font-family="sans-serif" font-size="14" lengthAdjust="spacing" textLength="50" x="617" y="460.916">:System</text><rect fill="#FFFFFF" height="300.1641" style="stroke:#181818;stroke-width:1.0;" width="10" x="54" y="131.2188"/><rect fill="#FFFFFF" height="30.3516" style="stroke:#181818;stroke-width:1.0;" width="10" x="637" y="153.5703"/><rect fill="#FFFFFF" height="30.3516" style="stroke:#181818;stroke-width:1.0;" width="10" x="637" y="214.2734"/><rect fill="#FFFFFF" height="147.4063" style="stroke:#181818;stroke-width:1.0;" width="10" x="637" y="274.9766"/><polygon fill="#181818" points="625,149.5703,635,153.5703,625,157.5703,629,153.5703" style="stroke:#181818;stroke-width:1.0;"/><line style="stroke:#181818;stroke-width:1.0;" x1="64" x2="631" y1="153.5703" y2="153.5703"/><text fill="#000000" font-family="sans-serif" font-size="13" font-weight="bold" lengthAdjust="spacing" textLength="7" x="71" y="148.7139">1</text><text fill="#000000" font-family="sans-serif" font-size="13" lengthAdjust="spacing" textLength="162" x="82" y="148.7139">Select a specific discussion</text><polygon fill="#181818" points="75,179.9219,65,183.9219,75,187.9219,71,183.9219" style="stroke:#181818;stroke-width:1.0;"/><line style="stroke:#181818;stroke-width:1.0;stroke-dasharray:2.0,2.0;" x1="69" x2="641" y1="183.9219" y2="183.9219"/><text fill="#000000" font-family="sans-serif" font-size="13" font-weight="bold" lengthAdjust="spacing" textLength="7" x="81" y="179.0654">2</text><text fill="#000000" font-family="sans-serif" font-size="13" lengthAdjust="spacing" textLength="129" x="92" y="179.0654">Open discussion page</text><polygon fill="#181818" points="625,210.2734,635,214.2734,625,218.2734,629,214.2734" style="stroke:#181818;stroke-width:1.0;"/><line style="stroke:#181818;stroke-width:1.0;" x1="64" x2="631" y1="214.2734" y2="214.2734"/><text fill="#000000" font-family="sans-serif" font-size="13" font-weight="bold" lengthAdjust="spacing" textLength="7" x="71" y="209.417">3</text><text fill="#000000" font-family="sans-serif" font-size="13" lengthAdjust="spacing" textLength="260" x="82" y="209.417">Click on "reply" button of a specific comment</text><polygon fill="#181818" points="75,240.625,65,244.625,75,248.625,71,244.625" style="stroke:#181818;stroke-width:1.0;"/><line style="stroke:#181818;stroke-width:1.0;stroke-dasharray:2.0,2.0;" x1="69" x2="641" y1="244.625" y2="244.625"/><text fill="#000000" font-family="sans-serif" font-size="13" font-weight="bold" lengthAdjust="spacing" textLength="7" x="81" y="239.7686">4</text><text fill="#000000" font-family="sans-serif" font-size="13" lengthAdjust="spacing" textLength="92" x="92" y="239.7686">Open reply form</text><polygon fill="#181818" points="625,270.9766,635,274.9766,625,278.9766,629,274.9766" style="stroke:#181818;stroke-width:1.0;"/><line style="stroke:#181818;stroke-width:1.0;" x1="64" x2="631" y1="274.9766" y2="274.9766"/><text fill="#000000" font-family="sans-serif" font-size="13" font-weight="bold" lengthAdjust="spacing" textLength="7" x="71" y="270.1201">5</text><text fill="#000000" font-family="sans-serif" font-size="13" lengthAdjust="spacing" textLength="154" x="82" y="270.1201">Submit reply content (text)</text><line style="stroke:#181818;stroke-width:1.0;" x1="647" x2="689" y1="305.3281" y2="305.3281"/><line style="stroke:#181818;stroke-width:1.0;" x1="689" x2="689" y1="305.3281" y2="318.3281"/><line style="stroke:#181818;stroke-width:1.0;" x1="648" x2="689" y1="318.3281" y2="318.3281"/><polygon fill="#181818" points="658,314.3281,648,318.3281,658,322.3281,654,318.3281" style="stroke:#181818;stroke-width:1.0;"/><text fill="#000000" font-family="sans-serif" font-size="13" font-weight="bold" lengthAdjust="spacing" textLength="7" x="654" y="300.4717">6</text><text fill="#000000" font-family="sans-serif" font-size="13" lengthAdjust="spacing" textLength="112" x="665" y="300.4717">Validates input text</text><line style="stroke:#181818;stroke-width:1.0;" x1="647" x2="689" y1="348.6797" y2="348.6797"/><line style="stroke:#181818;stroke-width:1.0;" x1="689" x2="689" y1="348.6797" y2="361.6797"/><line style="stroke:#181818;stroke-width:1.0;" x1="648" x2="689" y1="361.6797" y2="361.6797"/><polygon fill="#181818" points="658,357.6797,648,361.6797,658,365.6797,654,361.6797" style="stroke:#181818;stroke-width:1.0;"/><text fill="#000000" font-family="sans-serif" font-size="13" font-weight="bold" lengthAdjust="spacing" textLength="7" x="654" y="343.8232">7</text><text fill="#000000" font-family="sans-serif" font-size="13" lengthAdjust="spacing" textLength="163" x="665" y="343.8232">Stores reply in the database</text><polygon fill="#181818" points="75,388.0313,65,392.0313,75,396.0313,71,392.0313" style="stroke:#181818;stroke-width:1.0;"/><line style="stroke:#181818;stroke-width:1.0;stroke-dasharray:2.0,2.0;" x1="69" x2="636" y1="392.0313" y2="392.0313"/><text fill="#000000" font-family="sans-serif" font-size="13" font-weight="bold" lengthAdjust="spacing" textLength="7" x="81" y="387.1748">8</text><text fill="#000000" font-family="sans-serif" font-size="13" lengthAdjust="spacing" textLength="155" x="92" y="387.1748">Returns success message</text><polygon fill="#181818" points="75,418.3828,65,422.3828,75,426.3828,71,422.3828" style="stroke:#181818;stroke-width:1.0;"/><line style="stroke:#181818;stroke-width:1.0;stroke-dasharray:2.0,2.0;" x1="69" x2="641" y1="422.3828" y2="422.3828"/><text fill="#000000" font-family="sans-serif" font-size="13" font-weight="bold" lengthAdjust="spacing" textLength="7" x="81" y="417.5264">9</text><text fill="#000000" font-family="sans-serif" font-size="13" lengthAdjust="spacing" textLength="538" x="92" y="417.5264">Redirects to updated discussion page and displays the updated list of replies ordered by date</text><!--SRC=[ZLBDRi8m3BxtAQoUjWClm64N7c0IrNPtKrCiybF5phQ-_Pm20m6JkAHH_Vt5jXmuJfWnG4WnkNrEWK1peKR-AXEw0uxKwUm9CZd5EFfhWEnnIDySHzYX5seQPJNebYO_WoP0sAGGA6hJOD4KI-Wfszrfoj1kQMHHoZJ0Xr1k0MMvD2Qkx7Z2gD2kkzb0OQaUhui0Vw7I4TxK4rPlf_8QEl8Mrjnb8iSxTZ2mk2B2ALwuPx7Z5rOcK8NMy3vHl69O6qPg1heZtjfkFBi36A7DjG4jz4NjqP1srr7SgIDFvbYaO9ToU2P2L_h0UYAv5DMSu4NfHr__DxpGFz7pO101ct1HgCG7iCx6PvYZ2qVGFO7Hi4VRWRjdR4bBZW9Id2CH27RKZZu03botJEhgbAa66Mxd01YNVvF7MHRZCz3RBjLMrrHiwL8UbjNgvvhjqG1_0G00]--></g></svg>